<svg width="24" height="25" viewBox="0 0 24 25" fill="none" xmlns="http://www.w3.org/2000/svg">
<g clip-path="url(#clip0_362_4368)">
<path d="M5.55362 10.3438C1.41452 10.3438 0.727145 6.72925 0.212802 3.82538C0.147433 3.4588 0.0837127 3.0968 0.0135833 2.74744C-0.0276155 2.54071 0.0260345 2.32648 0.159152 2.1637C0.293185 2.00092 0.492221 1.90625 0.702975 1.90625H4.9686C5.35733 1.90625 5.67173 2.22083 5.67173 2.60938C5.67173 2.99792 5.35733 3.3125 4.9686 3.3125H1.54965C1.5654 3.40112 1.58133 3.4903 1.59708 3.57965C2.17111 6.81567 2.79953 8.9375 5.55362 8.9375C5.94236 8.9375 6.25675 9.25208 6.25675 9.64062C6.25675 10.0292 5.94236 10.3438 5.55362 10.3438Z" fill="#FDBF00"/>
<path d="M18.4453 10.3438C18.0568 10.3438 17.7422 10.0292 17.7422 9.64062C17.7422 9.25208 18.0568 8.9375 18.4453 8.9375C21.2001 8.9375 21.8068 6.91528 22.4 3.58569C22.4165 3.49451 22.4323 3.40314 22.4487 3.3125H19.0303C18.6418 3.3125 18.3272 2.99792 18.3272 2.60938C18.3272 2.22083 18.6418 1.90625 19.0303 1.90625H23.296C23.5067 1.90625 23.7059 2.00092 23.8398 2.1637C23.9731 2.32648 24.0266 2.54071 23.9854 2.74744C23.9147 3.10101 23.85 3.46503 23.7841 3.83234C23.2672 6.73346 22.5769 10.3438 18.4453 10.3438Z" fill="#FF9F00"/>
<path d="M19.7344 1.20312V6.82812C19.7344 9.66864 18.1875 12.2843 15.6844 13.6343C14.9672 14.0141 14.1094 14.8344 14.1094 16.2969C14.1094 17.5905 14.7843 18.1719 15.7266 18.9171C16.2047 19.2969 16.7391 19.7188 17.189 20.2812L12.1688 21.6875L12 21.6452L6.81097 20.2812C7.24695 19.7328 7.75305 19.311 8.23132 18.9312C9.1875 18.1578 9.89062 17.5484 9.89062 16.1422C9.89062 15.1298 9.30011 14.1686 8.31573 13.6343C5.8125 12.2843 4.26562 9.66864 4.26562 6.82812V1.20312C4.26562 0.809265 4.57507 0.5 4.96875 0.5H19.0312C19.4251 0.5 19.7344 0.809265 19.7344 1.20312Z" fill="#FFE470"/>
<path d="M19.7344 1.20312V6.82812C19.7344 9.66864 18.1875 12.2843 15.6844 13.6343C14.9672 14.0141 14.1094 14.8344 14.1094 16.2969C14.1094 17.5905 14.7843 18.1719 15.7266 18.9171C16.2047 19.2969 16.7391 19.7188 17.189 20.2812L12.1688 21.6875L12 21.6452V0.5H19.0312C19.4251 0.5 19.7344 0.809265 19.7344 1.20312Z" fill="#FDBF00"/>
<path d="M15.3891 6.6593L14.1797 7.84052L14.4609 9.5141C14.5032 9.78125 14.3906 10.0484 14.1797 10.2031C13.9688 10.3579 13.6734 10.3859 13.4344 10.2593L12 9.4718V3.3125C12.2812 3.3125 12.5204 3.46722 12.6328 3.72028L13.3359 5.22504L14.9954 5.46399C15.2626 5.50629 15.4874 5.68903 15.5579 5.94208C15.6423 6.19531 15.5718 6.47656 15.3891 6.6593Z" fill="#FF9F00"/>
<path d="M15.5586 5.94235C15.4883 5.68912 15.2632 5.50638 14.9961 5.46408L13.3366 5.22513L12.6335 3.72037C12.521 3.46731 12.2819 3.31259 12.0006 3.31259C11.7758 3.29849 11.4804 3.46731 11.3678 3.70627L10.6506 5.19693L8.87888 5.46408C8.61173 5.50638 8.4008 5.68912 8.31638 5.94235C8.23197 6.1954 8.30228 6.47665 8.49912 6.65939L9.70853 7.8406L9.42728 9.51419C9.38517 9.78134 9.48368 10.0485 9.70853 10.2032C9.91947 10.3579 10.2148 10.386 10.4399 10.2594L12.0008 9.47189L13.4353 10.2594C13.6742 10.386 13.9696 10.3579 14.1805 10.2032C14.3915 10.0485 14.5039 9.78134 14.4618 9.51419L14.1805 7.8406L15.3899 6.65939C15.5725 6.47665 15.643 6.1954 15.5586 5.94235Z" fill="#FDBF00"/>
<path d="M13.4344 10.2593L12 9.4718V3.3125C12.2812 3.3125 12.5204 3.46722 12.6328 3.72028L13.3359 5.22504L14.9954 5.46399C15.2626 5.50629 15.4874 5.68903 15.5579 5.94208C15.6423 6.19531 15.5718 6.47656 15.3891 6.6593L14.1797 7.84051L14.4609 9.51392C14.5032 9.78107 14.3906 10.0484 14.1797 10.2029C13.9688 10.3578 13.6734 10.3859 13.4344 10.2593Z" fill="#FF9F00"/>
<path d="M18.3281 23.7969H5.67188C5.67188 22.1376 6.16406 21.0688 6.81097 20.2812H17.189C17.8359 21.0688 18.3281 22.1376 18.3281 23.7969Z" fill="#FDBF00"/>
<path d="M18.3281 23.7969H12V20.2812H17.189C17.8359 21.0688 18.3281 22.1376 18.3281 23.7969Z" fill="#FF9F00"/>
<path d="M19.7344 23.7969C19.7344 24.1906 19.4251 24.5 19.0312 24.5H4.96875C4.57507 24.5 4.26562 24.1906 4.26562 23.7969C4.26562 23.403 4.57507 23.0938 4.96875 23.0938H19.0312C19.4251 23.0938 19.7344 23.403 19.7344 23.7969Z" fill="#5A5A5A"/>
<path d="M19.7344 23.7969C19.7344 24.1906 19.4251 24.5 19.0312 24.5H12V23.0938H19.0312C19.4251 23.0938 19.7344 23.403 19.7344 23.7969Z" fill="#292929"/>
</g>
<defs>
<clipPath id="clip0_362_4368">
<rect width="24" height="24" fill="white" transform="translate(0 0.5)"/>
</clipPath>
</defs>
</svg>