<svg width="60" height="60" viewBox="0 0 60 60" fill="none" xmlns="http://www.w3.org/2000/svg">
<path d="M57.5844 26.8786V23.3568H46.5196V26.8786H46.1641L44.4074 18.0885V14.1402H41.1694C40.7378 8.6275 36.3257 4.21539 30.8129 3.78379V2.32129H29.036V3.78379C23.5232 4.21527 19.1111 8.6275 18.6795 14.1402H15.4414V18.8433L13.8356 26.8786H13.4802V23.3568H2.41559V26.8786H0V32.0991H1.18594V57.6781H7.33148V47.2955H52.6151V57.6781H58.8141V32.0991H60V26.8786H57.5844ZM48.2965 25.1337H55.8075V26.8786H48.2965V25.1337ZM44.3521 26.8786H43.3477L41.786 19.0648H42.7904L44.3521 26.8786ZM29.9245 5.52566C34.8648 5.52566 38.9367 9.31527 39.3862 14.1401H20.4627C20.9122 9.31551 24.9841 5.52566 29.9245 5.52566ZM17.2186 15.9171H18.6448H41.2044H42.6307V17.288H41.895H39.619H20.3811H17.9543H17.2187L17.2186 15.9171ZM29.9245 24.5576C34.0018 24.5576 37.7821 22.8215 40.1493 19.9417L41.5356 26.8785H18.4643L19.8219 20.0854C22.1958 22.8784 25.9161 24.5576 29.9245 24.5576ZM21.2854 19.0648H38.5636C36.5203 21.3889 33.3489 22.7807 29.9244 22.7807C26.5 22.7807 23.3289 21.3889 21.2854 19.0648ZM17.2093 19.0648H18.2139L16.6522 26.8786H15.6478L17.2093 19.0648ZM4.1925 25.1337H11.7035V26.8786H4.1925V25.1337ZM1.77691 28.6555H2.4157H3.8693V30.3223H1.77691V28.6555ZM5.55457 55.9012H2.96273V53.8926H5.55457V55.9012ZM5.55457 52.1158H2.96273V32.0991H3.86906V47.2954H5.55445L5.55457 52.1158ZM54.354 45.5187H5.64598V43.5082H54.3539V45.5187H54.354ZM54.354 41.7312H47.2582V37.0871H45.4813V41.7312H36.2559V37.0871H34.4789V41.7312H25.2537V37.0871H23.4768V41.7312H14.2514V37.0871H12.4745V41.7312H5.64598V28.6555H13.4804H13.4807H18.1091H41.8908H46.5192H46.5195H54.3539V41.7312H54.354ZM57.0373 55.9012H54.3921V53.8926H57.0373V55.9012ZM57.0373 52.1158H54.3921V47.2955H56.1309V32.0991H57.0373V52.1158ZM58.2232 30.3224H56.1308V28.6557H57.5844H58.2232V30.3224Z" fill="#B2465C"/>
<path d="M31.5407 6.90723L31.0059 8.60176C31.4798 8.75141 31.9432 8.94664 32.3833 9.18195L33.2213 7.61504C32.6847 7.32816 32.1193 7.08992 31.5407 6.90723Z" fill="#B2465C"/>
<path d="M34.3966 8.35547L33.3477 9.78961C34.3704 10.5375 35.2157 11.5268 35.7925 12.6507L37.3735 11.8393C36.6706 10.4706 35.6414 9.2659 34.3966 8.35547Z" fill="#B2465C"/>
<path d="M49.7421 29.7578H36.5859V31.5347H49.7421V29.7578Z" fill="#B2465C"/>
<path d="M52.4673 29.7578H50.6904V31.5337H52.4673V29.7578Z" fill="#B2465C"/>
</svg>
