<svg xmlns="http://www.w3.org/2000/svg" width="27" height="27" viewBox="0 0 27 27" fill="none">
<path d="M8.33659 13.0911C8.46484 12.226 8.80746 11.4067 9.33325 10.7078L5.46575 6.85115C3.93597 8.59138 3.01221 10.781 2.83325 13.0911H8.33659ZM10.4708 9.57031C11.1707 9.04839 11.99 8.70953 12.8541 8.58448V3.07031C10.544 3.24927 8.35432 4.17303 6.61409 5.70281L10.4708 9.57031ZM14.4791 3.07031V8.48698C15.3714 8.63193 16.2111 9.00512 16.9166 9.57031L20.7733 5.71365C19.02 4.16914 16.8094 3.24079 14.4791 3.07031ZM9.33325 17.1536C8.81133 16.4537 8.47246 15.6344 8.34742 14.7703H2.83325C3.00002 17.0753 3.90834 19.2644 5.42242 21.0103L9.33325 17.1536ZM12.8541 19.2336C11.989 19.1054 11.1696 18.7628 10.4708 18.237L6.61409 22.1045C8.35432 23.6343 10.544 24.558 12.8541 24.737V19.2336ZM17.9999 10.7078C18.5218 11.4078 18.8607 12.227 18.9858 13.0911H24.4024C24.2356 10.7862 23.3273 8.59708 21.8133 6.85115L17.9999 10.7078ZM16.9166 18.237C16.2166 18.7589 15.3974 19.0978 14.5333 19.2228V24.6395C16.8382 24.4727 19.0273 23.5644 20.7733 22.0503L16.9166 18.237ZM18.9966 14.7161C18.8771 15.6002 18.5341 16.4392 17.9999 17.1536L21.8566 21.0103C23.4011 19.257 24.3294 17.0465 24.4999 14.7161H18.9966Z" fill="#AB1D3F"/>
</svg>