<svg width="22" height="22" viewBox="0 0 22 22" fill="none" xmlns="http://www.w3.org/2000/svg">
<path d="M16.5 11.9149H11.9167V16.4982C11.9167 16.7413 11.8201 16.9745 11.6482 17.1464C11.4763 17.3183 11.2431 17.4149 11 17.4149C10.7569 17.4149 10.5237 17.3183 10.3518 17.1464C10.1799 16.9745 10.0833 16.7413 10.0833 16.4982V11.9149H5.5C5.25689 11.9149 5.02373 11.8183 4.85182 11.6464C4.67991 11.4745 4.58334 11.2413 4.58334 10.9982C4.58334 10.7551 4.67991 10.5219 4.85182 10.35C5.02373 10.1781 5.25689 10.0815 5.5 10.0815H10.0833V5.49821C10.0833 5.25509 10.1799 5.02194 10.3518 4.85003C10.5237 4.67812 10.7569 4.58154 11 4.58154C11.2431 4.58154 11.4763 4.67812 11.6482 4.85003C11.8201 5.02194 11.9167 5.25509 11.9167 5.49821V10.0815H16.5C16.7431 10.0815 16.9763 10.1781 17.1482 10.35C17.3201 10.5219 17.4167 10.7551 17.4167 10.9982C17.4167 11.2413 17.3201 11.4745 17.1482 11.6464C16.9763 11.8183 16.7431 11.9149 16.5 11.9149Z" fill="#AB1D3F"/>
</svg>