<svg width="18" height="19" viewBox="0 0 18 19" fill="none" xmlns="http://www.w3.org/2000/svg">
<g clip-path="url(#clip0_1766_3628)">
<path d="M16.875 2.18599L12.3711 2.186V1.06494C12.3711 0.75416 12.1193 0.502441 11.8086 0.502441C11.4978 0.502441 11.2461 0.75416 11.2461 1.06494V2.18572H6.74606V1.06494C6.74606 0.75416 6.49434 0.502441 6.18356 0.502441C5.87278 0.502441 5.62106 0.75416 5.62106 1.06494V2.18572H1.125C0.503719 2.18572 0 2.68944 0 3.31072V17.3732C0 17.9945 0.503719 18.4982 1.125 18.4982H16.875C17.4963 18.4982 18 17.9945 18 17.3732V3.31072C18 2.68971 17.4963 2.18599 16.875 2.18599ZM16.875 17.3732H1.125V3.31072H5.62106V3.87744C5.62106 4.18821 5.87278 4.43994 6.18356 4.43994C6.49434 4.43994 6.74606 4.18821 6.74606 3.87744V3.311H11.2461V3.87772C11.2461 4.1885 11.4978 4.44022 11.8086 4.44022C12.1193 4.44022 12.3711 4.1885 12.3711 3.87772V3.311H16.875V17.3732ZM12.9375 9.49849H14.0625C14.373 9.49849 14.625 9.24649 14.625 8.93599V7.81099C14.625 7.50049 14.373 7.24849 14.0625 7.24849H12.9375C12.627 7.24849 12.375 7.50049 12.375 7.81099V8.93599C12.375 9.24649 12.627 9.49849 12.9375 9.49849ZM12.9375 13.9982H14.0625C14.373 13.9982 14.625 13.7465 14.625 13.4357V12.3107C14.625 12.0002 14.373 11.7482 14.0625 11.7482H12.9375C12.627 11.7482 12.375 12.0002 12.375 12.3107V13.4357C12.375 13.7468 12.627 13.9982 12.9375 13.9982ZM9.5625 11.7482H8.4375C8.127 11.7482 7.875 12.0002 7.875 12.3107V13.4357C7.875 13.7465 8.127 13.9982 8.4375 13.9982H9.5625C9.873 13.9982 10.125 13.7465 10.125 13.4357V12.3107C10.125 12.0005 9.873 11.7482 9.5625 11.7482ZM9.5625 7.24849H8.4375C8.127 7.24849 7.875 7.50049 7.875 7.81099V8.93599C7.875 9.24649 8.127 9.49849 8.4375 9.49849H9.5625C9.873 9.49849 10.125 9.24649 10.125 8.93599V7.81099C10.125 7.50021 9.873 7.24849 9.5625 7.24849ZM5.0625 7.24849H3.9375C3.627 7.24849 3.375 7.50049 3.375 7.81099V8.93599C3.375 9.24649 3.627 9.49849 3.9375 9.49849H5.0625C5.373 9.49849 5.625 9.24649 5.625 8.93599V7.81099C5.625 7.50021 5.373 7.24849 5.0625 7.24849ZM5.0625 11.7482H3.9375C3.627 11.7482 3.375 12.0002 3.375 12.3107V13.4357C3.375 13.7465 3.627 13.9982 3.9375 13.9982H5.0625C5.373 13.9982 5.625 13.7465 5.625 13.4357V12.3107C5.625 12.0005 5.373 11.7482 5.0625 11.7482Z" fill="#66675D"/>
</g>
<defs>
<clipPath id="clip0_1766_3628">
<rect width="18" height="18" fill="black" transform="translate(0 0.5)"/>
</clipPath>
</defs>
</svg>
