<svg width="60" height="53" viewBox="0 0 60 53" fill="none" xmlns="http://www.w3.org/2000/svg">
  <path d="M57.8035 52.6646C58.2392 52.6646 58.657 52.4911 58.9651 52.1822C59.2731 51.8733 59.4462 51.4544 59.4462 51.0176V32.9012C59.4462 32.4644 59.2731 32.0455 58.9651 31.7366C58.657 31.4278 58.2392 31.2543 57.8035 31.2543C57.3678 31.2543 56.95 31.4278 56.6419 31.7366C56.3339 32.0455 56.1608 32.4644 56.1608 32.9012V45.2204L37.8448 15.5753C37.7246 15.3837 37.5663 15.219 37.3797 15.0915C37.1932 14.964 36.9825 14.8764 36.7606 14.8342C36.5393 14.7901 36.3114 14.7923 36.0909 14.8404C35.8705 14.8886 35.6623 14.9818 35.4793 15.1142L18.8717 27.2028L3.36476 0.851618C3.12557 0.521878 2.7729 0.29281 2.37497 0.208738C1.97705 0.124665 1.56216 0.191565 1.2106 0.396493C0.859031 0.601421 0.59578 0.929808 0.471781 1.31811C0.347783 1.70641 0.371852 2.12703 0.539332 2.49856L16.9662 30.4967C17.0831 30.6944 17.2399 30.8654 17.4266 30.9987C17.6133 31.132 17.8258 31.2247 18.0504 31.2707C18.2742 31.3171 18.5053 31.3162 18.7287 31.268C18.9522 31.2198 19.1632 31.1254 19.3481 30.9907L35.9886 18.8527L54.8631 49.3707H39.7339C39.2982 49.3707 38.8804 49.5442 38.5724 49.8531C38.2643 50.1619 38.0912 50.5808 38.0912 51.0176C38.0912 51.4544 38.2643 51.8733 38.5724 52.1822C38.8804 52.4911 39.2982 52.6646 39.7339 52.6646H57.8035Z" fill="#AB1D3F"/>
</svg>