<svg width="28" height="28" viewBox="0 0 28 28" fill="none" xmlns="http://www.w3.org/2000/svg">
<path opacity="0.4" d="M23.9177 11.888H20.5461C17.7811 11.888 15.5294 9.63634 15.5294 6.87134V3.49967C15.5294 2.85801 15.0044 2.33301 14.3627 2.33301H9.41606C5.82272 2.33301 2.91772 4.66634 2.91772 8.83134V19.168C2.91772 23.333 5.82272 25.6663 9.41606 25.6663H18.5861C22.1794 25.6663 25.0844 23.333 25.0844 19.168V13.0547C25.0844 12.413 24.5594 11.888 23.9177 11.888Z" fill="#ED8936"/>
<path d="M18.4319 2.57841C17.9536 2.10007 17.1252 2.42674 17.1252 3.09174V7.16341C17.1252 8.86674 18.5719 10.2784 20.3336 10.2784C21.4419 10.2901 22.9819 10.2901 24.3002 10.2901C24.9652 10.2901 25.3152 9.50841 24.8486 9.04174C23.1686 7.35007 20.1586 4.30507 18.4319 2.57841Z" fill="#ED8936"/>
<path d="M15.75 16.042H8.75C8.27167 16.042 7.875 15.6453 7.875 15.167C7.875 14.6887 8.27167 14.292 8.75 14.292H15.75C16.2283 14.292 16.625 14.6887 16.625 15.167C16.625 15.6453 16.2283 16.042 15.75 16.042Z" fill="#ED8936"/>
<path d="M13.4167 20.708H8.75C8.27167 20.708 7.875 20.3113 7.875 19.833C7.875 19.3547 8.27167 18.958 8.75 18.958H13.4167C13.895 18.958 14.2917 19.3547 14.2917 19.833C14.2917 20.3113 13.895 20.708 13.4167 20.708Z" fill="#ED8936"/>
</svg>
