<svg width="18" height="19" viewBox="0 0 18 19" fill="none" xmlns="http://www.w3.org/2000/svg">
  <path d="M15.45 3.5752V5.2252C15.45 5.8252 15.075 6.5752 14.7 6.9502L11.475 9.80019C11.025 10.1752 10.725 10.9252 10.725 11.5252V14.7502C10.725 15.2002 10.425 15.8002 10.05 16.0252L9.00004 16.7002C8.02504 17.3002 6.67504 16.6252 6.67504 15.4252V11.4502C6.67504 10.9252 6.37504 10.2502 6.07504 9.8752L5.72254 9.5077C5.49004 9.2602 5.44504 8.8852 5.63254 8.5927L9.47254 2.4277C9.60754 2.2102 9.84754 2.0752 10.11 2.0752H13.95C14.775 2.0752 15.45 2.7502 15.45 3.5752Z" fill="white"/>
  <path d="M7.76255 3.2227L5.10005 7.4902C4.84505 7.9027 4.26005 7.9627 3.92255 7.6102L3.22505 6.8752C2.85005 6.5002 2.55005 5.8252 2.55005 5.3752V3.6502C2.55005 2.7502 3.22505 2.0752 4.05005 2.0752H7.12505C7.71005 2.0752 8.07005 2.7202 7.76255 3.2227Z" fill="white"/>
</svg>