<svg width="60" height="60" viewBox="0 0 60 60" fill="none" xmlns="http://www.w3.org/2000/svg">
<g clip-path="url(#clip0_2105_9498)">
<path d="M54.7131 35.7694C54.37 35.4262 53.8169 35.4295 53.4735 35.7728C53.1303 36.116 53.1337 36.6758 53.4769 37.0192C53.6485 37.1907 53.8735 37.2765 54.0984 37.2765C54.3232 37.2765 54.5482 37.1907 54.7198 37.0192C55.063 36.6758 55.063 36.1194 54.7198 35.7762L54.7131 35.7694Z" fill="#B2465C"/>
<path d="M49.1841 35.7669C48.8394 35.425 48.2862 35.4307 47.9446 35.7755C47.6027 36.1201 47.6085 36.6801 47.9532 37.0218C48.1246 37.1918 48.3484 37.2767 48.5721 37.2767C48.7983 37.2767 49.0243 37.1899 49.1963 37.0166C49.5381 36.672 49.5356 36.1155 49.191 35.7737L49.1841 35.7669Z" fill="#B2465C"/>
<path d="M43.6594 35.7694C43.3163 35.4262 42.7632 35.4295 42.4198 35.7728C42.0766 36.116 42.08 36.6758 42.4232 37.0192C42.5948 37.1907 42.8198 37.2765 43.0446 37.2765C43.2695 37.2765 43.4945 37.1907 43.6661 37.0192C44.0093 36.6758 44.0093 36.1194 43.6661 35.7762L43.6594 35.7694Z" fill="#B2465C"/>
<path d="M38.133 35.7694C37.7899 35.4262 37.2368 35.4295 36.8934 35.7728C36.5502 36.116 36.5536 36.6758 36.8968 37.0192C37.0684 37.1907 37.2934 37.2765 37.5183 37.2765C37.7432 37.2765 37.9682 37.1907 38.1397 37.0192C38.483 36.6758 38.483 36.1194 38.1397 35.7762L38.133 35.7694Z" fill="#B2465C"/>
<path d="M32.6067 35.7694C32.2636 35.4262 31.7104 35.4295 31.3671 35.7728C31.0238 36.116 31.0272 36.6758 31.3705 37.0192C31.542 37.1907 31.767 37.2765 31.9919 37.2765C32.2168 37.2765 32.4418 37.1907 32.6134 37.0192C32.9566 36.6758 32.9566 36.1194 32.6134 35.7762L32.6067 35.7694Z" fill="#B2465C"/>
<path d="M27.0793 35.7694C26.7362 35.4262 26.1831 35.4295 25.8397 35.7728C25.4965 36.116 25.4999 36.6758 25.8431 37.0192C26.0147 37.1907 26.2397 37.2765 26.4646 37.2765C26.6894 37.2765 26.9144 37.1907 27.086 37.0192C27.4293 36.6758 27.4293 36.1194 27.086 35.7762L27.0793 35.7694Z" fill="#B2465C"/>
<path d="M52.0608 31.6991C51.791 31.2956 51.2452 31.1872 50.8417 31.4568C50.4382 31.7267 50.3297 32.2725 50.5996 32.6759L50.6064 32.6861C50.7758 32.9396 51.0541 33.0767 51.3378 33.0767C51.5058 33.0767 51.6755 33.0287 51.8256 32.9284C52.2291 32.6585 52.3376 32.1127 52.0677 31.7093L52.0608 31.6991Z" fill="#B2465C"/>
<path d="M46.4212 31.5659C46.078 31.2228 45.5215 31.2228 45.1783 31.5659C44.8351 31.9093 44.8351 32.4657 45.1783 32.8089L45.1885 32.8191C45.3601 32.9907 45.5851 33.0765 45.81 33.0765C46.0349 33.0765 46.2599 32.9907 46.4314 32.8191C46.7747 32.4758 46.7747 31.9194 46.4314 31.5761L46.4212 31.5659Z" fill="#B2465C"/>
<path d="M40.8879 31.5594C40.5447 31.2162 39.9916 31.2197 39.6483 31.5628C39.3051 31.906 39.3085 32.4659 39.6517 32.8092C39.8233 32.9808 40.0483 33.0666 40.2732 33.0666C40.498 33.0666 40.723 32.9808 40.8946 32.8092C41.2378 32.4659 41.2378 31.9094 40.8946 31.5662L40.8879 31.5594Z" fill="#B2465C"/>
<path d="M35.3616 31.5594C35.0185 31.2162 34.4654 31.2197 34.122 31.5628C33.7786 31.9059 33.7821 32.4659 34.1254 32.8092C34.297 32.9808 34.522 33.0666 34.7468 33.0666C34.9717 33.0666 35.1967 32.9808 35.3683 32.8092C35.7115 32.4659 35.7115 31.9094 35.3683 31.5662L35.3616 31.5594Z" fill="#B2465C"/>
<path d="M29.9387 31.6845C29.6706 31.28 29.1252 31.1691 28.7205 31.4376C28.3159 31.7057 28.2054 32.2511 28.4736 32.6557L28.4804 32.6659C28.6495 32.9212 28.9289 33.0593 29.2138 33.0593C29.3805 33.0593 29.5492 33.012 29.6986 32.9128C30.1032 32.6447 30.2137 32.0993 29.9455 31.6947L29.9387 31.6845Z" fill="#B2465C"/>
<path d="M42.539 28.7257C42.69 28.8277 42.861 28.8766 43.0305 28.8766C43.3125 28.8766 43.5896 28.7411 43.7594 28.4899L43.7662 28.4798C44.0381 28.0776 43.9325 27.5313 43.5304 27.2594C43.1284 26.9873 42.5819 27.093 42.31 27.4952L42.3032 27.5053C42.0314 27.9075 42.1369 28.4538 42.539 28.7257Z" fill="#B2465C"/>
<path d="M37.0155 28.7274C37.1658 28.8281 37.3359 28.8764 37.5042 28.8764C37.7874 28.8764 38.0655 28.7397 38.2349 28.4868L38.2417 28.4768C38.5121 28.0736 38.4044 27.5275 38.0012 27.2573C37.5979 26.9872 37.0519 27.0947 36.7817 27.4979L36.7749 27.508C36.5047 27.9111 36.6124 28.4571 37.0155 28.7274Z" fill="#B2465C"/>
<path d="M57.7505 41.6631C58.9909 41.6631 60 40.6539 60 39.4135V38.2119C60 33.5024 57.8296 29.5538 53.7231 26.793C50.1622 24.3986 45.3875 23.0801 40.2783 23.0801C40.1194 23.0801 39.9609 23.0814 39.8027 23.084L40.2968 19.4557C41.5255 19.4022 42.5093 18.3887 42.5093 17.147V15.1331C42.5093 13.8555 41.4714 12.8159 40.1954 12.8159H24.7718V7.42561L31.7612 5.60639C33.2763 5.20912 34.1896 3.6524 33.7965 2.13436C33.4002 0.617483 31.842 -0.297517 30.3216 0.0947096L21.2067 2.4708C19.9335 2.80385 19.078 3.91127 19.078 5.22658V12.8158H2.31387C1.03793 12.8158 0 13.8553 0 15.133V17.1469C0 18.3886 0.983906 19.4021 2.21262 19.4556L7.35211 57.1786C7.5777 58.8379 8.78203 59.9969 10.2807 59.9969H24.2821H56.2748C58.3289 59.9969 60 58.3256 60 56.2716V54.048C60 53.2199 59.3249 52.5463 58.495 52.5463H56.8356V50.1462C58.3308 49.7294 59.4314 48.355 59.4314 46.7274C59.4314 45.1126 58.3461 43.7475 56.8671 43.3207C57.0705 42.8172 57.2104 42.2626 57.2781 41.6632H57.7505V41.6631ZM20.8357 5.22658C20.8357 4.7153 21.1559 4.30116 21.6507 4.17166L30.7628 1.79615C31.3457 1.6458 31.9438 1.9969 32.0952 2.57686C32.2455 3.15752 31.8956 3.75377 31.3167 3.90565L23.6714 5.89561C23.2841 5.99627 23.0139 6.34608 23.0139 6.74615V12.8156H20.8356V5.22658H20.8357ZM3.98742 19.4608H19.9331C20.4185 19.4608 20.812 19.0674 20.812 18.5819C20.812 18.0963 20.4185 17.703 19.9331 17.703H2.31387C2.01246 17.703 1.75781 17.4483 1.75781 17.1469V15.133C1.75781 14.8297 2.01246 14.5736 2.31387 14.5736H40.1955C40.497 14.5736 40.7516 14.8299 40.7516 15.133V17.1469C40.7516 17.4483 40.497 17.703 40.1955 17.703H24.1095C23.6241 17.703 23.2305 18.0963 23.2305 18.5819C23.2305 19.0674 23.6241 19.4608 24.1095 19.4608H38.5221L38.0174 23.168C33.772 23.4981 29.8634 24.7558 26.8338 26.793C24.9319 28.0717 23.4461 29.6058 22.398 31.3518L6.34102 36.7364L3.98742 19.4608ZM6.50063 37.9072C6.50613 37.9238 6.50766 37.9406 6.50754 37.9576L6.50063 37.9072ZM6.58266 38.5094L21.3483 33.5576C20.8247 35.0033 20.5568 36.5606 20.5568 38.2119V39.4135C20.5568 40.6539 21.566 41.6631 22.8064 41.6631H23.2788C23.3464 42.2626 23.4862 42.8171 23.6896 43.3207C22.2105 43.7476 21.1254 45.1128 21.1254 46.7274C21.1254 47.027 21.1632 47.3178 21.2334 47.5958L8.42519 52.0334L6.58266 38.5094ZM21.1208 58.239H10.2807C9.58266 58.239 9.18164 57.5875 9.09387 56.9415L8.66719 53.8099L22.0935 49.1582C22.5309 49.6224 23.0902 49.9703 23.7212 50.1462V52.5463H22.0618C21.2319 52.5463 20.5568 53.2199 20.5568 54.048V56.2716C20.5568 56.9935 20.7639 57.6676 21.1208 58.239ZM58.2422 54.3041V56.2716C58.2422 57.3565 57.3596 58.239 56.2748 58.239H24.2821C23.1973 58.239 22.3146 57.3565 22.3146 56.2716V54.3041H39.4949C39.9803 54.3041 40.3738 53.9107 40.3738 53.4252C40.3738 52.9397 39.9803 52.5463 39.4949 52.5463H25.479V50.2766H55.0778V52.5463H43.6307C43.1453 52.5463 42.7518 52.9397 42.7518 53.4252C42.7518 53.9107 43.1453 54.3041 43.6307 54.3041H58.2422ZM57.6736 46.7274C57.6736 47.7153 56.8716 48.5188 55.8857 48.5188H24.6712C23.6854 48.5188 22.8833 47.7153 22.8833 46.7274C22.8833 45.7413 23.6854 44.9392 24.6712 44.9392H24.7433C25.1277 45.3251 25.5778 45.6409 26.0925 45.8707C27.7182 46.5967 29.6831 46.3526 31.1068 45.2806C31.9891 46.0654 33.0648 46.4928 34.1781 46.4928C35.2831 46.4928 36.3507 46.0718 37.2293 45.2984C38.1071 46.0697 39.1734 46.4894 40.2768 46.4894C41.3808 46.4894 42.4471 46.0708 43.3259 45.2998C44.2043 46.0724 45.2727 46.4929 46.3789 46.4929C47.4932 46.4929 48.5695 46.0649 49.4503 45.2809C50.8733 46.353 52.8364 46.5967 54.4621 45.8714C54.9775 45.6415 55.428 45.3255 55.8129 44.9393H55.8857C56.8716 44.9392 57.6736 45.7412 57.6736 46.7274ZM25.0512 41.6631H55.5057C55.3181 42.926 54.71 43.8359 53.7461 44.266C52.6359 44.7611 51.2216 44.5328 50.3004 43.7057C49.5162 43.0142 48.89 43.3497 48.5004 43.7558C47.8997 44.3872 47.1463 44.7349 46.3789 44.7349C45.6094 44.7349 44.8548 44.3871 44.2541 43.7558C44.2392 43.7401 44.2236 43.7249 44.2077 43.7104C43.4217 42.9978 42.7908 43.341 42.4018 43.7523C41.7923 44.3929 41.0576 44.7314 40.2769 44.7314C39.5095 44.7314 38.756 44.3837 38.1572 43.7542C37.7684 43.343 37.1392 43.0008 36.3505 43.7065C36.3329 43.7222 36.3161 43.7385 36.2998 43.7557C35.6991 44.3871 34.9457 44.7348 34.1783 44.7348C33.411 44.7348 32.6576 44.387 32.0542 43.7529C31.6645 43.3466 31.0357 43.0095 30.2511 43.7105C29.3341 44.5327 27.9189 44.7608 26.8093 44.2655C25.8461 43.8356 25.2387 42.9258 25.0512 41.6631ZM22.8064 39.9053C22.5353 39.9053 22.3146 39.6846 22.3146 39.4135V38.2119C22.3146 33.036 25.3055 29.9385 27.8145 28.2516C31.0884 26.0502 35.5148 24.8379 40.2783 24.8379C45.0417 24.8379 49.4682 26.0502 52.7422 28.2516C55.2513 29.9385 58.2422 33.036 58.2422 38.2118V39.4133C58.2422 39.6845 58.0216 39.9052 57.7505 39.9052H22.8064V39.9053Z" fill="#B2465C"/>
</g>
<defs>
<clipPath id="clip0_2105_9498">
<rect width="60" height="60" fill="white"/>
</clipPath>
</defs>
</svg>
