<svg width="36" height="36" viewBox="0 0 36 36" fill="none" xmlns="http://www.w3.org/2000/svg">
<rect width="36" height="36" rx="18" fill="#FFE3E3"/>
<path d="M18 8.4375C16.1087 8.4375 14.2599 8.99833 12.6874 10.0491C11.1148 11.0998 9.88917 12.5933 9.16541 14.3406C8.44164 16.0879 8.25227 18.0106 8.62125 19.8656C8.99022 21.7205 9.90096 23.4244 11.2383 24.7617C12.5756 26.099 14.2795 27.0098 16.1345 27.3788C17.9894 27.7477 19.9121 27.5584 21.6594 26.8346C23.4067 26.1108 24.9002 24.8852 25.9509 23.3126C27.0017 21.7401 27.5625 19.8913 27.5625 18C27.5595 15.4648 26.5511 13.0343 24.7584 11.2416C22.9658 9.44891 20.5352 8.44048 18 8.4375ZM25.6472 14.4375H21.8803C21.4704 12.7372 20.7228 11.1368 19.6819 9.73125C20.9741 9.9968 22.1864 10.5606 23.2221 11.3777C24.2578 12.1948 25.0882 13.2426 25.6472 14.4375ZM26.4375 18C26.4381 18.8257 26.3172 19.647 26.0784 20.4375H22.1119C22.3794 18.8235 22.3794 17.1765 22.1119 15.5625H26.0784C26.3172 16.353 26.4381 17.1743 26.4375 18ZM18 26.4375C17.9766 26.4376 17.9535 26.4328 17.9321 26.4232C17.9108 26.4137 17.8918 26.3997 17.8763 26.3822C16.6688 25.0819 15.7819 23.4122 15.2813 21.5625H20.7188C20.2181 23.4122 19.3313 25.0819 18.1238 26.3822C18.1083 26.3997 18.0892 26.4137 18.0679 26.4232C18.0465 26.4328 18.0234 26.4376 18 26.4375ZM15.0291 20.4375C14.7403 18.8253 14.7403 17.1747 15.0291 15.5625H20.9709C21.2597 17.1747 21.2597 18.8253 20.9709 20.4375H15.0291ZM9.5625 18C9.56187 17.1743 9.68286 16.353 9.92157 15.5625H13.8881C13.6206 17.1765 13.6206 18.8235 13.8881 20.4375H9.92157C9.68286 19.647 9.56187 18.8257 9.5625 18ZM18 9.5625C18.0234 9.56237 18.0465 9.56724 18.0679 9.57678C18.0892 9.58632 18.1083 9.60031 18.1238 9.61781C19.3313 10.9181 20.2181 12.5878 20.7188 14.4375H15.2813C15.7819 12.5878 16.6688 10.9181 17.8763 9.61781C17.8918 9.60031 17.9108 9.58632 17.9321 9.57678C17.9535 9.56724 17.9766 9.56237 18 9.5625ZM16.3181 9.73125C15.2772 11.1368 14.5296 12.7372 14.1197 14.4375H10.3528C10.9118 13.2426 11.7423 12.1948 12.7779 11.3777C13.8136 10.5606 15.0259 9.9968 16.3181 9.73125ZM10.3528 21.5625H14.1197C14.5296 23.2628 15.2772 24.8632 16.3181 26.2687C15.0259 26.0032 13.8136 25.4394 12.7779 24.6223C11.7423 23.8052 10.9118 22.7574 10.3528 21.5625ZM19.6819 26.2687C20.7228 24.8632 21.4704 23.2628 21.8803 21.5625H25.6472C25.0882 22.7574 24.2578 23.8052 23.2221 24.6223C22.1864 25.4394 20.9741 26.0032 19.6819 26.2687Z" fill="#AB1D3F"/>
</svg>
