<svg id="Layer_1" data-name="Layer 1" xmlns="http://www.w3.org/2000/svg" xmlns:xlink="http://www.w3.org/1999/xlink" viewBox="0 0 1390.8 384.5"><defs><style>.cls-1{fill:#a1213f;}.cls-2{fill:url(#linear-gradient);}.cls-3{fill:url(#linear-gradient-2);}</style><linearGradient id="linear-gradient" x1="716.9" y1="124.88" x2="716.9" y2="414" gradientUnits="userSpaceOnUse"><stop offset="0.47" stop-color="#e86e30"/><stop offset="0.59" stop-color="#db5e36"/><stop offset="0.73" stop-color="#d2543a"/><stop offset="0.9" stop-color="#cf513b"/></linearGradient><linearGradient id="linear-gradient-2" x1="716.9" y1="332.09" x2="716.9" y2="332.09" xlink:href="#linear-gradient"/></defs><path class="cls-1" d="M239.55,26.14c9.1,0,18.2,4.41,24.82,10.66l-8.28,7.63c-4.77-3.86-11.85-6.34-16.54-6.34h-.74c-4.22,0-11.12,1.56-11.12,7.17,0,4.32,5,5.61,10.76,6.34l5.14.55c13.06,1.57,22.8,6.44,22.8,19.77,0,12.22-10.75,19.76-25,19.85h-.55c-12.87,0-22.25-6.07-27.3-13l8.27-7.63c2.85,4,9.47,8.64,19,8.64h.55c7.44-.09,12.31-3,12.31-7.9,0-5.61-5.23-7.17-11.85-8l-5.06-.55C224.48,61.9,215,57,215,45.72c0-12,10.48-19.4,23.8-19.58Z" transform="translate(-21.5 -26.14)"/><path class="cls-1" d="M439.37,59a32.77,32.77,0,1,1-32.81-32.81A32.78,32.78,0,0,1,439.37,59Zm-52.85,0c0,12.41,8.82,20.87,20,20.87S426.69,71.36,426.69,59s-8.83-20.86-20.13-20.86S386.52,46.64,386.52,59Z" transform="translate(-21.5 -26.14)"/><path class="cls-1" d="M560.05,91.13H546l26.47-64.35h7.45L606,91.13H592l-4.6-11.77h-22.7Zm9-23.81h13.88l-6.89-17.56Z" transform="translate(-21.5 -26.14)"/><path class="cls-1" d="M717,91.13V26.78h12.68v52.4h29V91.13Z" transform="translate(-21.5 -26.14)"/><path class="cls-1" d="M894.16,91.13H881.48V38.73H863.83V26.78h48V38.73H894.16Z" transform="translate(-21.5 -26.14)"/><path class="cls-1" d="M1063.28,52.8v12h-27.85V79.18h30.15V91.13h-42.83V26.78h42.83V38.73h-30.15V52.8Z" transform="translate(-21.5 -26.14)"/><path class="cls-1" d="M1218,52.8v12h-27.85V79.18h30.15V91.13h-42.83V26.78h42.83V38.73h-30.15V52.8Z" transform="translate(-21.5 -26.14)"/><path class="cls-2" d="M207.14,133.16a52.56,52.56,0,0,1-1.81,7.7c-5.91,17.2-12.17,34.26-17.81,51.55-2.68,8.24-5.22,16.53-7.71,24.84-2.36,7.9-5.09,15.82-7,23.85a18.2,18.2,0,0,0-1,4.45c0,2.44,4.1,2,5.61,2,1.93,0,3.93-.15,5.91-.1a5.54,5.54,0,0,1,5.88,1.34l.2.11-.06.06a4.16,4.16,0,0,1,.83,1.73,22.13,22.13,0,0,1,.07,9.13,2.23,2.23,0,0,1,.66,1.78,4.13,4.13,0,0,1-2.48,4,4.83,4.83,0,0,1-1.72,2.35l.67.51c-.16.39-.29,1.12-.47,1.13-7.36.45-14.73.83-22.19,1.23-1,3.31-2.11,6.21-2.83,9.21-5.46,22.65-11.4,45.16-15.61,68.12a9.9,9.9,0,0,1-.28,1.42c-.74,2-1.11,4.4-2.38,5.88a14.11,14.11,0,0,1-5.24,2.87,6.52,6.52,0,0,1-6.28,0h-.2c-1.12,0-2.25,0-3.37,0a1.87,1.87,0,0,1-.63.19,2.55,2.55,0,0,1-1,0,5.62,5.62,0,0,1-4.37-1c-.13-.1-.24-.21-.36-.31-2.82-.19-3.86-.78-4-2.66a34.87,34.87,0,0,1,0-7.91c2.32-16.68,6.06-33.09,9.85-49.45,1.79-7.7,4-15.43,5.36-23.22.39-2.22-1.53-2.44-3.18-2.28-2.66.26-5.33.31-8,.4-10.8.35-21.6.89-32.41,1.17-1.45,0-2.9,0-4.35,0s-2.22-.2-2.78,1.27c-1.63,4.21-2.8,8.6-4.09,12.94-1.35,4.54-2.67,9.08-3.79,13.69-3,12.35-5.71,24.79-8.46,37.21-1.15,5.16-2,10.38-3.17,15.54-.3,1.36-.91,3-2.7,2.41-.36-.11-.65-.76-1-1.07a6.72,6.72,0,0,1-1,.74c0,.09-.07.17-.1.27A3.72,3.72,0,0,1,56.46,358c-2,.85-3.46.73-4.41-.28a28.21,28.21,0,0,1-4.46-.12,10.14,10.14,0,0,1-5.07-1.92c-2.52.36-3.76-1.14-4.13-3.54a59.81,59.81,0,0,1,0-18c.55-3.81,1.06-7.64,1.77-11.41q1.89-9.93,4-19.81c2-9.35,4.1-18.71,6.23-28.4-2.93-1.65-6.38-.6-9.71-1.21a6.21,6.21,0,0,1-4.07-2c-.07-.06-.14-.11-.21-.18h0a9.68,9.68,0,0,1-2-5.22,23.9,23.9,0,0,1,.14-7.59c-1.15-4.28,1.87-7.75,6.22-8.19a3.47,3.47,0,0,1,.72,0c.33-.05.66-.1,1-.13,4.69-.4,9.4-.62,14.52-1,4.53-15.4,8.9-30.78,13.59-46C75.25,187.92,80.19,173,85,157.88c-1.13-1.3-2.13-.22-2.92.34C70.4,166.57,59,176.08,50.25,188A95.7,95.7,0,0,0,40.06,205.3a17.31,17.31,0,0,0,1.4,17.63,20.25,20.25,0,0,1,2.12,3.67c.81,1.85-1,3.56-2.63,3.39A11.21,11.21,0,0,1,35,226.48a42.29,42.29,0,0,1-13.26-26.3c-1.42-13.44,3.28-24.55,10.17-35a80.57,80.57,0,0,1,17.79-19.7c8.39-6.48,16.89-12.76,26.55-17.12a167.44,167.44,0,0,1,25.61-9.09c2.76-.74,5.48-1.66,8.45.27,2.34,1.52,5.74.59,7.79,3.47.52.72,1.92.91,2.94,1a9.39,9.39,0,0,1,7.09,5,14.28,14.28,0,0,1,.92,4.62c1.06,0,2.45-.43,3.06.12a4.19,4.19,0,0,1,.84,3.24,29.46,29.46,0,0,1-1.79,6.19c-3.65,9.07-7.2,18.21-11.17,27.13-7.17,16.13-13.32,32.71-19.43,49.31-1.65,4.49-3.24,9-4.81,13.51-.93,2.67-2,5.3-2.86,8-.45,1.36-3.11,7-.44,7.13,7.68.28,15.42-.23,23.1-.3,3.83,0,7.66-.1,11.49-.13,3.23,0,6.44,0,9.66,0,4.38,0,5.45-6.49,6.22-9.89q2.07-9.16,4.45-18.22c7-26.55,16.07-52.48,24.68-78.46,2.11-6.3,4.22-12.75,8-18.24a17.34,17.34,0,0,1,3.9-3.8c.58-.44,1.61-.21,2.28-.27a4.59,4.59,0,0,1,.41,1.06,8.23,8.23,0,0,1,4.49-.42,5.46,5.46,0,0,1,.74-.34,2.71,2.71,0,0,1,3.38,1.65,1.86,1.86,0,0,0,1.54.89c3.38-.79,5,1.25,6.2,4.14.78,1.91.94,4.29,3.6,4.67C206.9,130.58,207.28,132.31,207.14,133.16Zm101,124.93A8.09,8.09,0,0,1,307,261c-14.18,25.29-29.74,52.18-51.43,71-18.23,15.79-44.69,6-56-14.14a40.42,40.42,0,0,1-4.87-14,84.9,84.9,0,0,1,4-39.11,125.52,125.52,0,0,1,21.29-40,74.87,74.87,0,0,1,15.24-15.24c8.11-5.59,16.13-5.35,24.3-.72,11.46,6.66,17.6,20.49,15.2,34.22-1.91,11.13-7.3,20.1-14.87,27.75a46,46,0,0,1-13.5,9.65,31.5,31.5,0,0,1-13.7,3,3,3,0,0,0-1.94.36c-1.08.79-1.49,3.2-1.82,4.45-3,11.2-3,24.4,1.34,35.23,6.86,17.22,31.57-9.21,37.23-15.56,13.59-15.26,23.1-33.4,33.75-50.94a7,7,0,0,1,2.46-2.78,3.14,3.14,0,0,1,3.38.53A3.69,3.69,0,0,1,308.16,258.09Zm-53.5-28.43c-8,10.39-13.75,22.75-18.76,35-1.25,3.06-2.27,6.24-3.64,10.07,8.25-.53,16.8-7,23.57-17.27a54.25,54.25,0,0,0,7.54-16.61,38.84,38.84,0,0,0,1.11-12.3c-.13-1.46-.36-3.66-1.91-4.17C259.81,223.5,256.16,227.71,254.66,229.66Zm203.86,27.41a8.44,8.44,0,0,1-.79,2.33c-10.67,23.64-21.2,48.81-37.31,68.87-9.49,11.83-28.84,13.39-36.48-1.89l-.1-.21a21.36,21.36,0,0,1-1.55-4.27,71.37,71.37,0,0,1-1-24.43c.17-1.68.36-3.35.56-5q-2,4.35-4.16,8.64c-6.78,13.08-14.17,26.19-24.4,36.55-3.56,3.61-7.78,7.72-13,7.05a19.25,19.25,0,0,1-12.07-7.8c-4.27-5.64-6-13.1-6.74-20.18a129.81,129.81,0,0,1,4.56-49.5c3.88-13.81,9.33-27,14.76-40.24a147.82,147.82,0,0,0-16.27,6.79c-2.09,1-4.25,2.42-6.49,3.35l-6.56,14.27q-1.92,4.16-3.81,8.33c-1,2.25-4.19-.68-5.29-1.46a1.77,1.77,0,0,1-.87-1.35,2.22,2.22,0,0,1,.26-.91c.77-1.71,8.39-18.84,8.35-18.85-3.22-1.7-6.06-5.52-7.92-8.63a15.94,15.94,0,0,1-.88-15.78,21.33,21.33,0,0,1,10.12-10.22,10.15,10.15,0,0,1,9.76.47,7.59,7.59,0,0,1,4,8.32c-.22,1.83-.52,3.65-.89,6.2,3.85-.81,7.13-1.34,10.32-2.21a38.26,38.26,0,0,1,13.44-.82,16,16,0,0,1,13.5,9.6c3.33,7.63.7,17.82-.92,25.6-2,9.39-4.21,18.71-6.6,28-4.65,18.13-9.8,36.11-14.14,54.33-1.93,8.12,6.74-.46,8.27-2.14,2.3-2.53,4.5-5.2,6.58-8,4.55-6,8.54-12.5,12.51-19a260.16,260.16,0,0,0,20.43-42.79c.2-.52.4-1,.59-1.56a344,344,0,0,1,12.3-38.34A66.15,66.15,0,0,1,407.35,207c3.15-4.7,10.29-5.36,14.89-4.57.38.07.65.91,1,1.52,2.28-.51,4.29-.39,5.91,1.87s4.07,4,3.32,7.44a93.19,93.19,0,0,1-2.3,9.78c-3.11,9.3-6.48,18.5-9.68,27.76a317.67,317.67,0,0,0-12.34,46.1,170.11,170.11,0,0,0-3.17,22.83c-.15,3.44.31,10.71,4.89,6.4a116.06,116.06,0,0,0,17.78-21.9,224.93,224.93,0,0,0,13.84-25.47c3.39-7.2,6.54-14.51,9.73-21.81a4.78,4.78,0,0,1,4.65-3.16,2.35,2.35,0,0,1,2.17.88A2.72,2.72,0,0,1,458.52,257.07Zm-144-44.37c-4.37,4.2-5.65,8.31-4.78,13.72C312.83,222,313.41,220.41,314.51,212.7ZM452.8,163.22a15.69,15.69,0,0,0-3.49-3,16.52,16.52,0,0,0-22.07,3.39,41.53,41.53,0,0,0-8.74,16.76,24.1,24.1,0,0,0-.76,4.92,7.89,7.89,0,0,0,1.39,3.79l.34-.1a13.16,13.16,0,0,0,3.74,6.12,13.9,13.9,0,0,0,13.27,3l0,.21a7.45,7.45,0,0,0,1.62-.75c.24-.09.48-.18.72-.29a4,4,0,0,0,2.38-3.25,43.47,43.47,0,0,0,2.68-5.84c2.58-7,6.14-13.64,9-20.52C453.8,165.63,454.26,164.94,452.8,163.22Zm406.55,94.87A8.09,8.09,0,0,1,858.2,261c-14.19,25.29-29.75,52.18-51.43,71-18.24,15.79-44.7,6-56-14.14a40.62,40.62,0,0,1-4.87-14,86.42,86.42,0,0,1-.72-10.15c-7.41,14.19-16.29,27.43-27.3,38.59a138.45,138.45,0,0,1-17,14.55c-3.92,2.83-9.76,4.89-12,9.59a293,293,0,0,1-18.63,32.71,77,77,0,0,1-13.16,15.46A22,22,0,0,1,631.41,408c-8.08-4.21-16.29-13-18.23-22.64-2.08-10.3,2.63-20.87,9.59-27.84,9.28-9.3,20.76-15.88,33.58-16.9a85.22,85.22,0,0,1,9.59,0,1.21,1.21,0,0,0,.65-.1,1.32,1.32,0,0,0,.47-.66c3.75-8.39,7.69-17.57,9.68-26.64.83-3.77-3.27-.26-4.38.58-2.87,2.18-5.56,4.63-8.52,6.68a20.62,20.62,0,0,1-16.53,3.91c-9.71-2.35-19.62-9.79-22.1-20.57A67,67,0,0,1,623.67,285c-6.15,11.9-12.69,23.8-19.63,33.52q-3.85,5.4-8,10.47a26.5,26.5,0,0,1-7.55,7c-5.77,3.07-12.08.92-17.59-1.77-3.14-1.55-4.83-4.8-5.77-8.34a47.92,47.92,0,0,1-1.44-14.07c.09-2.74.25-5.52.1-8.21-2.22-.1-2.63,1.49-3.42,2.49a102.27,102.27,0,0,1-14.87,16.2c-6.61,5.39-13.45,8.05-21.7,5.2-11.76-4.06-22.42-15.71-23.64-29.19-.18-2-.26-3.93-.25-5.87a259.2,259.2,0,0,1-20.25,34.11c-3.15,4.4-7.09,8.44-12,10.12-11.15,3.81-21.31-5-23.63-16.33-2.07-10.07-.67-21.36.76-31.43a338.75,338.75,0,0,1,6.69-33.65A515.68,515.68,0,0,1,470,196.42H452.18a4.52,4.52,0,0,1,0-9h21.14l.17,0q4.44-11.12,9.28-22c2.16-4.85,4.32-10.54,7.77-14.54a27.63,27.63,0,0,1,2.57-2.93,5.44,5.44,0,0,1,4.59-1.66c1.42.18,2.93-.22,4.31.08a2.06,2.06,0,0,1,.93.4,5.07,5.07,0,0,1,3.59.59,3.87,3.87,0,0,1,.53.37c3,1.11,3.79,4.37,5.85,6.23.66.6.54,2.61.27,3.85-2,9.39-5.8,18.25-9.11,27.3-.28.77-.56,1.54-.85,2.32h16.12a4.52,4.52,0,0,1,0,9l-19.13-.17-.21,0q-3.28,9-6.45,18c-5.13,14.56-10.23,29.11-14.52,44-2,6.76-3.77,13.57-5.38,20.44-1.84,7.81-3.58,15.63-4.85,23.57q-1.5,10.16-2,20.44c-.41,6.8,6.67-1.46,7.94-3.16a272.28,272.28,0,0,0,29.68-52.18q.75-2.16,1.59-4.29a123.21,123.21,0,0,1,27.69-43,75.33,75.33,0,0,1,13.8-11c13.48-8.24,27.54-6.56,36.67,6.58,1.51,2.16,2.63-1,3.18-2.17a74.7,74.7,0,0,1,4.3-7.48,4.32,4.32,0,0,1,4-2.15c2.09.15,4.19.38,6.33.59l0,.15a7.9,7.9,0,0,1,3.19,1.27c3,.07,5.72,3.35,7.17,5.88,1.91,3.36,0,8.93-1,12.39Q603.86,248,596.52,272a263.34,263.34,0,0,0-10.12,45c-.24,2-1,5.41-.22,7.32,1.12,2.68,4.32-2,5.19-3a173.82,173.82,0,0,0,15.3-20.64,278.23,278.23,0,0,0,21.62-40.16,24.23,24.23,0,0,1,2-4A120.56,120.56,0,0,1,640.07,236c7.15-11.55,16-22.4,27.57-28.9a35.58,35.58,0,0,1,17.75-4.85c5.9.1,11.29,3.25,16.35,6.21,1.31.89,2.67,1.71,4,2.46.9.39,1-1.06,1.23-1.7a22.88,22.88,0,0,1,1.2-3,9.61,9.61,0,0,1,4-4.65,5.09,5.09,0,0,1,3.94.22l-.09.25a4.39,4.39,0,0,1,1.07.2l1.5.49.27,0a2.73,2.73,0,0,1,2.58-.55,2.11,2.11,0,0,1,1.5,1.47c.53.15,1.06.29,1.58.41a4.14,4.14,0,0,1,1.82,1l.57-.28c5.8,4.31,10.54,6.86,9.06,15.07-1.41,7.81-2.58,15.7-4.6,23.34a499.43,499.43,0,0,1-18.22,56.72c-4.16,10.5-8.56,20.89-13,31.26l-1,2.35c-.4.93-2,4.27.1,4.22.63,0,1.17-.58,1.68-.91a87.37,87.37,0,0,0,20.19-19.08c11.44-14.28,19.7-30.42,26.91-47.28.53-1.93,1.11-3.85,1.78-5.74a125.13,125.13,0,0,1,21.29-40,74.82,74.82,0,0,1,15.23-15.24c8.12-5.59,16.14-5.35,24.3-.72,11.46,6.66,17.61,20.49,15.2,34.22-1.91,11.13-7.3,20.1-14.87,27.75a46.05,46.05,0,0,1-13.49,9.65,31.5,31.5,0,0,1-13.7,3,3,3,0,0,0-1.95.36c-1.08.79-1.49,3.2-1.82,4.45-3,11.2-3,24.4,1.34,35.23,6.86,17.22,31.58-9.21,37.23-15.56,13.59-15.26,23.1-33.4,33.75-50.94a7,7,0,0,1,2.46-2.78,3.16,3.16,0,0,1,3.39.53A3.74,3.74,0,0,1,859.35,258.09ZM580,225c-.54-1-.73-2.23-1.19-3.31-1.18-2.81-3.08-4.08-5.8-3.24-8,2.48-14.16,9.29-19.27,16a123.52,123.52,0,0,0-14.08,25.18c-5.92,13.34-10.57,28.19-11.44,43-.16,2.66-.61,9.13,1.89,10.95,3.6,2.61,11.88-5.71,14.54-8.06,10.68-9.4,18.52-22,24.43-35.27a31.25,31.25,0,0,0,1.33-4c3.28-11.29,6.43-22.61,9.87-33.84A8.91,8.91,0,0,0,580,225Zm82.14,125.08c-5.77-.3-13.29,4.32-17.87,7.75a45.61,45.61,0,0,0-13.16,15.81,26.91,26.91,0,0,0-3,14.64c.29,3.49,3,12.81,7.68,10.37,2.45-1.29,5-5.66,6.63-7.94a120.56,120.56,0,0,0,11.21-19.07c1.62-3.41,3.11-6.88,4.5-10.41A92.7,92.7,0,0,0,662,350.63h0C662,350.45,662.05,350.26,662.09,350.06Zm40.83-127.15c.46-8.17-14.43,1.31-16.59,3.36a125.45,125.45,0,0,0-25.17,35.15c-6.87,13.71-13.22,28.64-13.57,44.48-.07,2.74.38,6.21,3.13,7.32,2.1.85,4.85-.07,7.21-1.36h0c12.05-6.58,20.59-18.28,27.54-30.41.11-.37.21-.75.33-1.12C691.56,261.21,697.41,242.12,702.92,222.91Zm102.93,6.75c-8,10.39-13.75,22.75-18.76,35-1.26,3.06-2.27,6.24-3.65,10.07,8.26-.53,16.8-7,23.57-17.27a54,54,0,0,0,7.54-16.61,39.14,39.14,0,0,0,1.12-12.3c-.13-1.46-.37-3.66-1.92-4.17C811,223.5,807.34,227.71,805.85,229.66Zm483.71,23.84C1277.12,277.71,1268,295.3,1265,302c-.42.94-4.15,8.1-8.3,12.16-1.72,1.68-3.17,2.21-7.87,7.26a23.94,23.94,0,0,1-8.49,5.89c-3.28,1.12-2.19-13-1.93-14.78a291.51,291.51,0,0,1,15.25-60.63c3-8,6.3-16,9.49-24,1.6-4,3.37-7.9,4.82-11.94.54-1.48,1.11-3.88.43-4.77-1.88-2.43-2.89-5.8-5.26-7.48a5.21,5.21,0,0,0-4.07-2.39l-1.75-.16-.08-.15-5.21-.82,0,0a4,4,0,0,0-4.34,0,10.74,10.74,0,0,0-4.24,4.51,164,164,0,0,0-12,25.07,277.57,277.57,0,0,0-13,40.25,32.24,32.24,0,0,1-3,8c-6.36,11.67-12.92,23.22-21,33.64a80.75,80.75,0,0,1-7.36,8.7c-.93.89-8.69,7.09-8.88,3.77a89.51,89.51,0,0,1,.65-16,282,282,0,0,1,6.94-34.64c3.91-15.63,9.46-30.66,14.52-45.87,1.59-4.76,3-9.61,4.42-14.43.89-3,0-5.31-1.64-8-2.3-3.83-6.06-3.54-9.15-4.76-3.92-1.55-7.49.16-9.78,4.06a103.51,103.51,0,0,0-5.79,10.61,300.82,300.82,0,0,0-17.29,50.36c-6.31,13.53-12.43,28-20.23,40.56-3.27,5.28-6.84,11-11.4,15.06-1.83,1.63-7,6.4-7,.77,0-16.6,2.34-32.44,5.14-48.74a431.65,431.65,0,0,1,15.21-61.43c4.91-15,10.54-29.73,15.81-44.59,1.11-3.15,2.14-6.34,3-9.57a3.46,3.46,0,0,0-.33-2.69c-2.68-3-4.57-7-9.19-7.34-5.91-.39-10.55-.09-13.79,5.72a249.78,249.78,0,0,0-16.27,33.81,506.32,506.32,0,0,0-14.88,48.67q-3.24,11.82-5.74,23.85c-7,13.56-14.07,27.06-22.82,39.48-15,21.26-34.68,40.14-59.24,47-18,5.06-40.34,3.47-52.14-14.08-6.4-9.51-9.16-21.53-9.87-33-2-32.85,9.67-65.19,26.1-93a220.25,220.25,0,0,1,15.29-22.66,163.87,163.87,0,0,1,29-29.45c10.89-8.41,24.1-16.65,37.48-19.09a11.34,11.34,0,0,1,6.74.39,6.11,6.11,0,0,1,1.07.65c7.17,5.38,3.88,21.53,2.09,28.88a96.25,96.25,0,0,1-12.73,28.6,71.06,71.06,0,0,1-17.53,19.87c-7.09,5.14-15.81,8.11-24.28,6.8-3.26-.5-7.83-.8-8.57,2.67a4.69,4.69,0,0,0,.88,3.71,41.67,41.67,0,0,0,15.4,12.66,42.85,42.85,0,0,0,33.2,1.83c12.41-4.58,21.23-15.84,28.2-27.26,11.59-19,15.13-44.63,6.11-65.57-4.8-11.13-12.76-21.05-23.17-26.43-12.2-6.3-25.75-4.27-38.5-.92-35.92,9.44-64.56,38.72-83.11,72.06-10.85,19.48-19.61,40.79-23.66,63.16-5.23,28.8-3.08,61.38,17.5,82.94,13.5,14.09,32,21.33,50.76,19.9,22.75-1.48,44.54-13,62-28.26,16.18-14.13,28.81-32.64,40.3-51.54-.31,2-.61,4-.9,6.05a209,209,0,0,0-1.74,25c0,6.63-.35,15.16,2.08,21.38.29.76,3.87,4.85,4.38,3.22,0-.07,0-.14,0-.21a10.7,10.7,0,0,0,5,2.1c.13.08.25.15.39.25l.07-.17a26.55,26.55,0,0,0,3.57.25l0,.11c.26.8,6.72.59,7.54.56a14.93,14.93,0,0,0,6.78-1.76,42.41,42.41,0,0,0,10.6-8.74c6.55-7.17,11.61-15.72,16.5-24.22,1-1.7,1.91-3.41,2.83-5.14a86.4,86.4,0,0,0,.27,16.16c1.36,11,6.13,18.78,16.94,21.63,6.22,1.64,11.66.91,16.54-3.29a51.8,51.8,0,0,0,7.69-8.1c4.21-5.58,8.17-11.36,12.19-17.1,1.1-1.58,2.16-3.22,3.32-4.75,1.34-1.76,2-.22,2.21,1.35.35,2,.58,4.08.81,6.13a49.19,49.19,0,0,0,2.51,12.21c3.72,9.63,14.38,16.43,24.07,14.94s15.71-9.07,26.28-24.32a95.8,95.8,0,0,0,13.43-27.8c.06-.24,1-3.83,2.19-8.62.7-2.77,1.19-4.7,1.34-5.32C1285.77,267.49,1287.16,262.12,1289.56,253.5ZM1412.3,259a6,6,0,0,1-.91,2.23c-6.94,11.79-19,20.19-30.88,25.24-2.73,1.16-3.38,3.16-4.61,5.85-7.09,15.44-18.53,32.57-34.29,38.55a25.3,25.3,0,0,1-19.39-.13,40.37,40.37,0,0,1-14-10.53c-3.17-3.85-.71-9.91,1-13.95a42.67,42.67,0,0,1,22.44-22.91,56.27,56.27,0,0,1,9.66-3.17c3.28-.79,6.67-1.11,10.58-1.73a74.62,74.62,0,0,0,3.94-7.78c5.13-13.56,10.59-28.94,8.38-43.84a5.77,5.77,0,0,0-5.56-5.36c-7.66-.81-15.47,4.85-20.92,10.1-14,13.48-23.47,33.51-28.27,52.75-3.2,12.81-6.09,25.7-9.19,38.54-.79,3.26-1.75,6.48-2.78,9.66-.42,1.31-1,3-1.93,3.59a32.06,32.06,0,0,1-5.51,2.06l-.49.14-.66.17a.56.56,0,0,1-.38-.08c-1.07,0-2.28.06-3.5.07a.62.62,0,0,1,0,.13l-.21-.14a13,13,0,0,1-5.27-.85,7.83,7.83,0,0,1-2.21-1.21,14.3,14.3,0,0,1-3.06-11.43c.62-6,1.26-12,2.42-17.86a758.66,758.66,0,0,1,21.68-82.75q6.11-19.23,13.14-38.08c4.46-12,8.65-24.58,14.37-36a6.4,6.4,0,0,1,6.16-4c0,.05,0,.09,0,.14,3.39-1.41,7.78-.15,11.08,2l.26-.36a16.59,16.59,0,0,1,2.68,1.14c2.2,1.48,3.69,3.32,2.69,6.34a13.15,13.15,0,0,1,.41,1.78l2.51-2.11a4,4,0,0,1,.78,4.84q-2,5.37-4.4,10.57c-4.57,10-10.94,24.26-14.59,34.69-1.63,4.66-3.21,9.31-4.66,14-.55,1.78.62,1.43,1.54.67,1.07-.89,2.14-1.79,3.23-2.65,6.43-5,12.8-9.72,21.09-8.87,13,1.34,22.2,11.9,26.67,24.38a60.6,60.6,0,0,1,3.15,21.65c-.07,3.78-.38,7.55-.81,11.3-.09.87-1.13,10.16-1.2,10.16a35.89,35.89,0,0,0,23.68-20.23,3.54,3.54,0,0,1,1.24-1.76,2.69,2.69,0,0,1,3,.88A5.07,5.07,0,0,1,1412.3,259Zm-66,30.05a.71.71,0,0,0-.06-.25c-.72-1.42-7.36,2-8.12,2.38a44.55,44.55,0,0,0-7.53,4.75,37.94,37.94,0,0,0-11.44,14.37c-.57,1.26-2.84,5.41,0,5,6.18-.9,11.26-5.43,15.54-10a83.85,83.85,0,0,0,11.39-15.59h0A1.23,1.23,0,0,0,1346.32,289.05Z" transform="translate(-21.5 -26.14)"/><path class="cls-3" d="M716.9,332.09" transform="translate(-21.5 -26.14)"/></svg>