<svg width="25" height="20" viewBox="0 0 25 20" fill="none" xmlns="http://www.w3.org/2000/svg">
<g clip-path="url(#clip0_1766_3759)">
<path d="M24.4976 2.43585C23.5803 2.84224 22.6072 3.10899 21.6109 3.22724C22.6487 2.60523 23.4456 1.62025 23.8208 0.446661C22.8342 1.0321 21.7548 1.44458 20.6293 1.66628C19.7124 0.689532 18.4063 0.0791016 16.9607 0.0791016C14.185 0.0791016 11.9345 2.32944 11.9345 5.10494C11.9345 5.49891 11.979 5.88245 12.0647 6.25039C7.88766 6.04073 4.18431 4.03987 1.70536 0.999102C1.27282 1.7414 1.02498 2.60484 1.02498 3.5258C1.02498 5.26953 1.91234 6.80781 3.26086 7.70915C2.46273 7.68415 1.68215 7.46859 0.984306 7.08044C0.984019 7.10149 0.984019 7.12255 0.984019 7.1437C0.984019 9.57882 2.71646 11.6102 5.0156 12.0719C4.27549 12.2732 3.49917 12.3027 2.74593 12.158C3.38545 14.1548 5.24163 15.6078 7.44086 15.6485C5.72077 16.9964 3.55359 17.8 1.19895 17.8C0.793206 17.8 0.393206 17.7761 0 17.7297C2.22421 19.1558 4.86603 19.9878 7.70431 19.9878C16.949 19.9878 22.0042 12.3293 22.0042 5.68781C22.0042 5.46982 21.9994 5.25307 21.9897 5.03757C22.9736 4.32626 23.8229 3.44524 24.4976 2.43585Z" fill="#55ACEE"/>
</g>
<defs>
<clipPath id="clip0_1766_3759">
<rect width="24.4976" height="20" fill="white"/>
</clipPath>
</defs>
</svg>
