<svg width="36" height="36" viewBox="0 0 36 36" fill="none" xmlns="http://www.w3.org/2000/svg">
<rect width="36" height="36" rx="18" fill="#FFE3E3"/>
<path d="M27 10.5H9C8.60218 10.5 8.22064 10.658 7.93934 10.9393C7.65804 11.2206 7.5 11.6022 7.5 12V24C7.5 24.3978 7.65804 24.7794 7.93934 25.0607C8.22064 25.342 8.60218 25.5 9 25.5H27C27.3978 25.5 27.7794 25.342 28.0607 25.0607C28.342 24.7794 28.5 24.3978 28.5 24V12C28.5 11.6022 28.342 11.2206 28.0607 10.9393C27.7794 10.658 27.3978 10.5 27 10.5ZM25.35 12L18 17.085L10.65 12H25.35ZM9 24V12.6825L17.5725 18.615C17.698 18.7021 17.8472 18.7488 18 18.7488C18.1528 18.7488 18.302 18.7021 18.4275 18.615L27 12.6825V24H9Z" fill="#AB1D3F"/>
</svg>
