<svg width="16" height="16" viewBox="0 0 16 16" fill="none" xmlns="http://www.w3.org/2000/svg">
<path d="M2 0.500001H14C14.4125 0.500001 14.7658 0.647001 15.0598 0.941001C15.3538 1.235 15.5005 1.588 15.5 2V10.25C15.5 10.6625 15.353 11.0158 15.059 11.3098C14.765 11.6038 14.412 11.7505 14 11.75H11V15.5L8 14L5 15.5V11.75H2C1.5875 11.75 1.23425 11.603 0.940251 11.309C0.646251 11.015 0.499501 10.662 0.500001 10.25V2C0.500001 1.5875 0.647001 1.23425 0.941001 0.940251C1.235 0.646251 1.588 0.499501 2 0.500001ZM2 8.75H14V6.5H2V8.75Z" fill="#AB1D3F"/>
</svg> 