<svg xmlns="http://www.w3.org/2000/svg" width="124" height="120" viewBox="0 0 233 154" fill="none">
  <path d="M228.8 36.7148L225.161 54.3384L222.819 52.0532L218.834 54.8973L215.789 51.114L208.96 56.0798L203.123 46.3194L196.614 50.133L194.032 46.5741L185.766 51.2319L183.279 45.9049L189.074 17.8403L220.139 24.2548L228.8 36.7148Z" fill="#EBEBEB"/>
  <path d="M220.138 24.2549L228.8 36.7149L218.024 34.4906L220.138 24.2549Z" fill="#DBDBDB"/>
  <path d="M224.386 57.8593L219.051 83.7148L177.207 75.076L182.504 49.4297L184.99 54.7529L193.26 50.0951L195.838 53.654L202.351 49.8441L208.184 59.6046L215.017 54.6388L218.059 58.4183L222.047 55.578L224.386 57.8593Z" fill="#EBEBEB"/>
  <path d="M164.497 54.8289L121.854 57.4677L118.466 2.73016L150.132 0.768188L161.755 10.521L164.497 54.8289Z" fill="#EBEBEB"/>
  <path d="M150.131 0.768188L161.754 10.521L150.773 11.2016L150.131 0.768188Z" fill="#DBDBDB"/>
  <path d="M138.325 37.6008L138.158 36.3651C137.728 33.8061 138.428 30.943 140.652 27.9506C142.66 25.289 143.747 23.3879 143.625 21.2282C143.489 18.7948 141.873 17.2586 138.865 17.3803C137.146 17.4696 135.495 18.0796 134.131 19.1294L132.819 16.1902C134.34 14.9545 137.002 14.0419 139.53 13.9088C145.017 13.6047 147.686 16.8518 147.895 20.4754C148.078 23.7187 146.397 26.156 144.26 29.0039C142.298 31.6008 141.656 33.7415 141.933 36.1635L142.051 37.4031L138.325 37.6008ZM137.648 44.3346C137.549 42.5704 138.671 41.2624 140.34 41.1711C142.009 41.0799 143.226 42.251 143.325 44.019C143.416 45.6882 142.393 47.0342 140.629 47.1331C138.945 47.2282 137.728 46.0038 137.633 44.3346H137.648Z" fill="#DBDBDB"/>
  <path d="M31.6638 28.289L27.3749 26.3461L26.7779 27.6579C26.6898 27.8453 26.5522 28.0052 26.3801 28.1205C26.2079 28.2357 26.0076 28.3018 25.8007 28.3118C25.565 28.3196 25.3301 28.3424 25.0973 28.3803C24.893 28.4106 24.6843 28.3849 24.4934 28.3059C24.3025 28.2269 24.1367 28.0975 24.0137 27.9316L23.1734 26.7567L19.3445 29.502L20.1848 30.6769C20.3016 30.8464 20.3704 31.0445 20.3838 31.25C20.3972 31.4555 20.3547 31.6608 20.2608 31.8442C20.1524 32.0533 20.0547 32.2677 19.968 32.4867C19.8927 32.6799 19.7662 32.8488 19.6021 32.9754C19.4379 33.102 19.2424 33.1815 19.0365 33.2054L17.603 33.3461L18.0631 38.0343L19.5042 37.8898C19.7108 37.8733 19.9181 37.9134 20.1037 38.0058C20.2892 38.0983 20.4461 38.2396 20.5574 38.4145C20.6182 38.5133 20.6829 38.6084 20.7513 38.7035C20.8198 38.7985 20.8882 38.8898 20.9604 38.981C21.0916 39.1407 21.176 39.3336 21.2042 39.5383C21.2324 39.743 21.2033 39.9515 21.1201 40.1407L20.5194 41.4639L24.8121 43.4107L25.4091 42.0913C25.4981 41.904 25.6364 41.7445 25.8093 41.6299C25.9821 41.5153 26.1829 41.4501 26.3901 41.4411C26.6231 41.4315 26.8554 41.4086 27.0859 41.3727C27.2902 41.3423 27.499 41.368 27.6898 41.447C27.8807 41.5261 28.0465 41.6554 28.1695 41.8213L29.0098 42.9962L32.8425 40.251L32.0022 39.0761C31.8818 38.908 31.8108 38.7096 31.7973 38.5033C31.7839 38.297 31.8285 38.091 31.9262 37.9088C32.0321 37.7009 32.1273 37.4877 32.2114 37.27C32.2845 37.0755 32.4104 36.9052 32.575 36.7782C32.7395 36.6513 32.9362 36.5727 33.1429 36.5514L34.584 36.4069L34.1201 31.7187L32.679 31.8594C32.4737 31.8774 32.2673 31.8383 32.0828 31.7464C31.8982 31.6544 31.7427 31.5133 31.6334 31.3385C31.5688 31.2396 31.5041 31.1445 31.4357 31.0495C31.3673 30.9544 31.2988 30.8594 31.2266 30.7719C31.0962 30.6103 31.0125 30.4162 30.9844 30.2105C30.9562 30.0048 30.9847 29.7953 31.0669 29.6046L31.6638 28.289ZM29.2304 32.6274C29.675 33.2479 29.9257 33.9863 29.9506 34.7493C29.9756 35.5122 29.7737 36.2654 29.3706 36.9136C28.9674 37.5618 28.3811 38.0759 27.6857 38.3909C26.9904 38.7058 26.2173 38.8075 25.4641 38.6831C24.711 38.5586 24.0117 38.2136 23.4546 37.6917C22.8976 37.1698 22.5078 36.4944 22.3347 35.7509C22.1615 35.0075 22.2127 34.2294 22.4818 33.515C22.7509 32.8006 23.2257 32.1821 23.8464 31.7377C24.6784 31.1419 25.7129 30.9009 26.7226 31.0677C27.7323 31.2346 28.6343 31.7956 29.2304 32.6274Z" fill="#EBEBEB"/>
  <path d="M225.542 90.4943L222.683 92.1444L223.188 93.019C223.264 93.1445 223.301 93.2891 223.297 93.4354C223.292 93.5818 223.245 93.7237 223.162 93.8441C223.074 93.9809 222.99 94.1216 222.914 94.2699C222.852 94.4011 222.753 94.5116 222.63 94.5884C222.507 94.6653 222.364 94.7051 222.219 94.7034H221.215V98.0076H222.226C222.372 98.0058 222.514 98.0457 222.638 98.1225C222.761 98.1993 222.86 98.3098 222.922 98.441C222.998 98.5893 223.082 98.73 223.169 98.8669C223.253 98.9872 223.299 99.1291 223.304 99.2755C223.309 99.4219 223.271 99.5665 223.196 99.692L222.69 100.566L225.549 102.217L226.059 101.338C226.133 101.214 226.24 101.112 226.368 101.045C226.496 100.978 226.641 100.948 226.785 100.958H227.272C227.416 100.948 227.56 100.979 227.689 101.046C227.817 101.113 227.924 101.214 227.998 101.338L228.508 102.22L231.363 100.57L230.857 99.692C230.785 99.5658 230.75 99.4221 230.756 99.277C230.761 99.1319 230.807 98.9911 230.888 98.8707C230.975 98.7338 231.059 98.5893 231.135 98.4448C231.197 98.3136 231.296 98.2031 231.419 98.1263C231.543 98.0495 231.686 98.0096 231.831 98.0114H232.842V94.7072H231.823C231.678 94.709 231.535 94.6691 231.412 94.5922C231.289 94.5154 231.19 94.4049 231.127 94.2737C231.051 94.1292 230.968 93.9848 230.88 93.8479C230.799 93.7274 230.753 93.5867 230.748 93.4416C230.743 93.2964 230.778 93.1527 230.85 93.0266L231.356 92.1483L228.5 90.4981L227.99 91.365C227.917 91.4896 227.81 91.5911 227.681 91.6583C227.553 91.7254 227.409 91.7555 227.264 91.7452H227.021H226.778C226.633 91.755 226.488 91.7246 226.359 91.6576C226.23 91.5905 226.123 91.4893 226.048 91.365L225.542 90.4943ZM227.021 93.6502C227.557 93.6494 228.081 93.8076 228.526 94.1048C228.972 94.402 229.32 94.8248 229.525 95.3196C229.73 95.8144 229.784 96.3591 229.68 96.8846C229.576 97.4101 229.318 97.8928 228.939 98.2717C228.56 98.6505 228.077 98.9084 227.552 99.0128C227.026 99.1171 226.482 99.0632 225.987 98.8578C225.492 98.6524 225.069 98.3048 224.772 97.859C224.475 97.4133 224.317 96.8893 224.317 96.3536C224.317 95.9982 224.387 95.6463 224.522 95.3179C224.658 94.9894 224.857 94.6909 225.108 94.4395C225.359 94.1881 225.657 93.9886 225.985 93.8525C226.314 93.7164 226.666 93.6464 227.021 93.6464V93.6502Z" fill="#EBEBEB"/>
  <path d="M40.3404 14.2396L37.7207 16.2472L38.3252 17.0495C38.4154 17.1638 38.4709 17.3016 38.485 17.4466C38.4992 17.5915 38.4714 17.7374 38.4051 17.867C38.3323 18.015 38.2688 18.1674 38.215 18.3233C38.1681 18.4606 38.0838 18.5821 37.9716 18.6741C37.8595 18.7662 37.7238 18.8251 37.58 18.8442L36.5762 18.9735L37.002 22.2472L38.0058 22.1179C38.1519 22.0976 38.3008 22.1189 38.4354 22.1794C38.5699 22.24 38.6846 22.3373 38.7663 22.4601C38.8578 22.5924 38.9569 22.7194 39.0629 22.8404C39.1608 22.9481 39.2258 23.0817 39.2501 23.2252C39.2743 23.3688 39.2569 23.5163 39.1997 23.6503L38.8195 24.5856L41.8613 25.8518L42.2416 24.9164C42.2981 24.7822 42.3912 24.6666 42.5101 24.5826C42.6291 24.4986 42.7692 24.4496 42.9146 24.4411L43.1579 24.4145L43.3975 24.3765C43.5382 24.35 43.6835 24.3625 43.8175 24.4128C43.9516 24.4631 44.0693 24.5492 44.1579 24.6617L44.7777 25.4715L47.3974 23.4639L46.7853 22.6617C46.6969 22.5458 46.6425 22.4075 46.6284 22.2624C46.6143 22.1173 46.641 21.9711 46.7054 21.8404C46.7775 21.6934 46.841 21.5423 46.8955 21.3879C46.9424 21.2506 47.0267 21.1291 47.1389 21.037C47.251 20.945 47.3867 20.8861 47.5305 20.867L48.5343 20.7377L48.1085 17.464L47.1047 17.5932C46.9589 17.614 46.8103 17.5933 46.6758 17.5334C46.5413 17.4736 46.4264 17.377 46.3442 17.2548C46.2492 17.118 46.1503 16.9887 46.0438 16.8746C45.9553 16.7646 45.8979 16.6327 45.8779 16.4929C45.8578 16.3531 45.8757 16.2104 45.9298 16.0799L46.31 15.1446L43.2682 13.8784L42.8879 14.8138C42.8306 14.9474 42.7374 15.0626 42.6186 15.1465C42.4998 15.2304 42.3601 15.2798 42.2149 15.2891L41.9716 15.3119L41.7473 15.3195C41.6066 15.346 41.4613 15.3334 41.3272 15.2832C41.1931 15.2329 41.0754 15.1468 40.9868 15.0343L40.3404 14.2396ZM42.2149 17.1788C42.7446 17.1107 43.2825 17.201 43.7609 17.4383C44.2393 17.6756 44.6367 18.0493 44.903 18.5121C45.1693 18.975 45.2925 19.5064 45.2571 20.0392C45.2217 20.5721 45.0293 21.0825 44.7042 21.5061C44.3791 21.9297 43.9358 22.2476 43.4302 22.4195C42.9247 22.5915 42.3795 22.6099 41.8635 22.4724C41.3475 22.3349 40.8838 22.0476 40.5308 21.6469C40.1779 21.2461 39.9516 20.7498 39.8803 20.2206C39.8328 19.8674 39.8556 19.5084 39.9474 19.164C40.0391 18.8197 40.1981 18.4969 40.415 18.2142C40.632 17.9315 40.9027 17.6945 41.2116 17.5168C41.5205 17.3391 41.8615 17.2242 42.2149 17.1788Z" fill="#EBEBEB"/>
  <path d="M20.766 100.027C20.9089 96.3509 20.8581 92.6702 20.6139 88.9999C20.0699 81.4209 18.914 73.8984 17.1577 66.5057C16.1919 62.346 15.0056 58.2547 13.766 54.1673C13.728 54.0418 13.5303 54.076 13.5645 54.2053C17.3934 68.6159 20.5341 83.4828 20.3173 98.4638C20.2565 102.646 19.7698 106.772 19.3744 110.939C19.3744 111.049 19.5455 111.095 19.5721 110.981C20.3592 107.403 20.6177 103.669 20.766 100.027Z" fill="#EBEBEB"/>
  <path d="M13.5651 54.194C13.5651 54.194 7.77048 68.9088 9.06706 72.3536C10.3636 75.7985 13.0404 76.5361 13.0404 76.5361C13.0404 76.5361 9.49291 81.6008 11.972 86.3498C14.4511 91.0988 19.9568 90.8745 20.337 96.2585C20.3256 96.2851 20.6298 73.7719 13.5651 54.194Z" fill="#EBEBEB"/>
  <path d="M19.6947 86.9885C19.704 86.964 19.704 86.937 19.6947 86.9125C18.9341 76.8665 17.0491 66.9375 14.0749 57.3118C14.0749 57.2852 14.0179 57.2928 14.0255 57.3118C15.1737 61.621 16.1877 65.948 17.0673 70.2927C16.2882 69.5547 15.3365 69.024 14.2992 68.749C14.2992 68.749 14.2688 68.7718 14.2992 68.7794C15.3889 69.1788 16.3687 69.8302 17.1585 70.6806C17.3258 71.5361 17.4931 72.3878 17.649 73.2433C16.3525 71.7946 14.5578 71.076 12.7593 70.3916C12.7552 70.3934 12.7518 70.3963 12.7493 70.4C12.7469 70.4037 12.7456 70.4081 12.7456 70.4125C12.7456 70.417 12.7469 70.4213 12.7493 70.425C12.7518 70.4287 12.7552 70.4317 12.7593 70.4334C14.6338 71.1939 16.4969 72.1749 17.7669 73.7908C18.208 76.2319 18.5958 78.6818 18.9304 81.1406C17.9942 80.1598 16.7936 79.4717 15.4741 79.1596C15.4323 79.1596 15.4095 79.2091 15.4513 79.2205C16.8067 79.6196 18.0168 80.4044 18.9342 81.479H18.957C19.0711 82.3409 19.1801 83.2065 19.284 84.076C18.5598 83.4631 17.7421 82.9702 16.862 82.6159C16.8391 82.6159 16.8239 82.6425 16.862 82.6501C17.7601 83.0392 18.5826 83.5837 19.2916 84.2585C19.2916 84.2585 19.3106 84.2585 19.322 84.2585C19.4171 85.0836 19.5121 85.9087 19.5958 86.7338C18.2901 85.1554 16.5957 83.9445 14.6795 83.2205C14.6714 83.2205 14.6636 83.2237 14.6579 83.2294C14.6522 83.2351 14.649 83.2428 14.649 83.2509C14.649 83.259 14.6522 83.2667 14.6579 83.2724C14.6636 83.2781 14.6714 83.2813 14.6795 83.2813C16.5716 84.1153 18.2337 85.3951 19.5235 87.0113C19.5377 87.0291 19.5569 87.0422 19.5786 87.0489C19.6003 87.0557 19.6235 87.0559 19.6452 87.0494C19.7707 88.3155 19.8848 89.5817 19.976 90.8516C19.976 90.8706 20.0064 90.8706 20.0064 90.8516C19.9076 89.5766 19.8036 88.2889 19.6947 86.9885Z" fill="white"/>
  <path d="M15.0369 67.3003C13.9875 66.6472 12.7887 66.2729 11.5541 66.2129C11.548 66.2129 11.5422 66.2153 11.5379 66.2196C11.5337 66.2238 11.5312 66.2297 11.5312 66.2357C11.5312 66.2418 11.5337 66.2476 11.5379 66.2518C11.5422 66.2561 11.548 66.2585 11.5541 66.2585C12.7477 66.4849 13.9061 66.8684 14.9989 67.3992C15.0446 67.4106 15.0788 67.3308 15.0369 67.3003Z" fill="white"/>
  <path d="M15.7403 82.8783C14.9337 82.4153 14.0456 82.112 13.1244 81.9847C13.0939 81.9847 13.0901 82.0266 13.1244 82.0342C14.024 82.2146 14.8941 82.5192 15.7099 82.9391C15.7441 82.9581 15.7745 82.8973 15.7403 82.8783Z" fill="white"/>
  <path d="M36.006 72.6083C33.5547 74.3028 31.3033 76.2698 29.295 78.4714C27.2239 80.8026 25.6264 83.5146 24.5916 86.4562C22.3893 92.5848 21.2051 99.0325 21.0859 105.544C21.0121 109.149 21.3579 112.752 22.1163 116.277C22.1225 116.303 22.1383 116.325 22.1604 116.34C22.1825 116.354 22.2093 116.359 22.2352 116.354C22.2611 116.349 22.2841 116.335 22.2995 116.313C22.3149 116.292 22.3215 116.266 22.3179 116.239C21.374 110.017 21.41 103.686 22.4243 97.4752C23.4205 91.3916 24.9833 84.768 28.854 79.8213C30.9604 77.1255 33.5878 75.0076 36.1848 72.8175C36.3216 72.6958 36.1467 72.5095 36.006 72.6083Z" fill="#EBEBEB"/>
  <path d="M21.938 101.156C23.3334 98.8989 24.9732 96.8026 26.8277 94.9048C29.7288 92.0037 32.1699 89.9429 32.5501 88.0265C32.9304 86.1102 29.6452 84.6957 29.6452 84.6957C29.6452 84.6957 33.6566 85.4182 34.7555 83.7338C35.8543 82.0494 36.3828 72.2927 36.3828 72.2927C36.3828 72.2927 29.0825 77.5056 25.6794 84.8136C22.2764 92.1216 21.938 101.156 21.938 101.156Z" fill="#EBEBEB"/>
  <path d="M33.7629 81.4449C33.2822 81.3733 32.7949 81.3568 32.3104 81.3955C32.2534 81.3955 32.2572 81.4943 32.3104 81.4981C32.7895 81.4981 33.2724 81.4753 33.7515 81.4981C33.7569 81.4967 33.7619 81.4938 33.7658 81.4897C33.7698 81.4856 33.7725 81.4806 33.7736 81.475C33.7748 81.4695 33.7744 81.4638 33.7725 81.4584C33.7706 81.4531 33.7673 81.4484 33.7629 81.4449Z" fill="white"/>
  <path d="M28.5195 90.9087C27.7486 90.9244 26.9866 91.0763 26.2686 91.3574C26.2686 91.3574 26.2686 91.3954 26.2686 91.3916C27.029 91.2129 27.7628 91.1406 28.5157 91.0114C28.5255 91.0071 28.5339 91.0001 28.54 90.9912C28.546 90.9823 28.5494 90.9719 28.5498 90.9612C28.5502 90.9505 28.5476 90.9399 28.5422 90.9306C28.5369 90.9213 28.529 90.9137 28.5195 90.9087Z" fill="white"/>
  <path d="M26.9454 87.6387C26.6253 87.6362 26.3058 87.6642 25.991 87.7224C25.9852 87.7245 25.9802 87.7284 25.9766 87.7335C25.9731 87.7386 25.9712 87.7447 25.9712 87.7509C25.9712 87.7571 25.9731 87.7631 25.9766 87.7682C25.9802 87.7733 25.9852 87.7772 25.991 87.7794C26.3097 87.7978 26.6295 87.7838 26.9454 87.7376C26.9585 87.7376 26.9711 87.7324 26.9803 87.7231C26.9896 87.7138 26.9948 87.7012 26.9948 87.6881C26.9948 87.675 26.9896 87.6624 26.9803 87.6532C26.9711 87.6439 26.9585 87.6387 26.9454 87.6387Z" fill="white"/>
  <path d="M0.534765 82.9581C2.91088 83.7636 5.18782 84.8364 7.32182 86.1558C9.53604 87.5628 11.4562 89.3861 12.9758 91.5246C16.1731 95.9752 18.6211 100.919 20.2229 106.16C21.1163 109.061 21.6675 112.058 21.8655 115.087C21.8614 115.107 21.8506 115.124 21.835 115.137C21.8195 115.15 21.8 115.157 21.78 115.157C21.7599 115.157 21.7405 115.15 21.7249 115.137C21.7093 115.124 21.6986 115.107 21.6944 115.087C21.0233 109.834 19.5324 104.719 17.2762 99.9276C15.0595 95.2318 12.2648 90.2356 7.99102 87.1254C5.66403 85.4333 3.04807 84.3231 0.439708 83.152C0.302826 83.1064 0.397883 82.9124 0.534765 82.9581Z" fill="#EBEBEB"/>
  <path d="M18.5194 102.81C16.8675 101.307 15.0556 99.9896 13.1164 98.882C10.0973 97.2052 7.64488 96.1025 6.89583 94.6386C6.14678 93.1748 8.47758 91.2736 8.47758 91.2736C8.47758 91.2736 5.39774 92.7945 4.12017 91.6729C2.84261 90.5512 0.158203 82.7946 0.158203 82.7946C0.158203 82.7946 7.27226 85.3231 11.7095 90.4523C16.1468 95.5816 18.5194 102.81 18.5194 102.81Z" fill="#EBEBEB"/>
  <path d="M12.6143 95.6691C11.9149 95.6203 11.2126 95.7068 10.5459 95.9238C10.5459 95.9238 10.5459 95.9581 10.5459 95.9543C11.2261 95.8376 11.9133 95.7665 12.6029 95.7413C12.6524 95.7413 12.6638 95.6729 12.6143 95.6691Z" fill="white"/>
  <path d="M6.40907 87.5323C6.09001 87.5063 5.76889 87.5242 5.4547 87.5856C5.42048 87.5856 5.43189 87.6464 5.4547 87.6426C5.77029 87.6084 6.07828 87.6198 6.39006 87.6122C6.39975 87.6126 6.40926 87.6096 6.41699 87.6037C6.42471 87.5979 6.43016 87.5895 6.43241 87.5801C6.43465 87.5707 6.43355 87.5607 6.4293 87.552C6.42504 87.5433 6.41789 87.5364 6.40907 87.5323Z" fill="white"/>
  <path d="M27.6942 124.893H11.6372L13.9262 108.122L14.5117 103.821H24.8197L25.4052 108.122L27.6942 124.893Z" fill="#DBDBDB"/>
  <path d="M25.4048 108.122H13.9258L14.5113 103.821H24.8193L25.4048 108.122Z" fill="#C7C7C7"/>
  <path d="M26.2914 102.331H13.0366V105.973H26.2914V102.331Z" fill="#DBDBDB"/>
  <path d="M1.4292 124.893L30.3303 124.802L59.2314 124.768L117.034 124.703L174.836 124.768L203.737 124.802L232.638 124.893L203.737 124.988L174.836 125.019L117.034 125.083L59.2314 125.019L30.3303 124.985L1.4292 124.893Z" fill="#263238"/>
  <path d="M117.793 153.232C178.007 153.232 226.82 147.883 226.82 141.285C226.82 134.687 178.007 129.338 117.793 129.338C57.5799 129.338 8.76709 134.687 8.76709 141.285C8.76709 147.883 57.5799 153.232 117.793 153.232Z" fill="#EBEBEB"/>
  <path d="M92.4128 139.308C91.5269 139.608 66.1239 139.688 65.1505 139.087C64.7703 138.859 64.5535 135.159 64.39 130.68C64.3558 129.715 64.3292 128.715 64.3064 127.703L62.2798 114.152L79.2645 114.042L80.8653 127.597L80.8007 130.578C80.8007 130.578 90.5421 134.893 91.5383 135.677C92.5345 136.46 93.2987 139.007 92.4128 139.308Z" fill="#EB9481"/>
  <path d="M92.4125 139.308C91.5266 139.608 66.1236 139.688 65.1502 139.087C64.7015 138.806 64.4582 133.403 64.3213 127.703L80.846 127.597L80.7813 130.578C80.7813 130.578 90.5228 134.893 91.519 135.677C92.5152 136.46 93.2984 139.007 92.4125 139.308Z" fill="white"/>
  <path d="M92.4129 139.308C91.527 139.608 66.124 139.688 65.1506 139.087C64.7704 138.859 64.5536 135.159 64.3901 130.68L80.7665 130.578C80.7665 130.578 90.5079 134.893 91.5041 135.676C92.5003 136.46 93.2988 139.007 92.4129 139.308Z" fill="#A6A6A6"/>
  <path d="M92.0441 138.293C87.7856 138.201 70.5993 138.243 66.3826 138.479C66.3484 138.479 66.3484 138.502 66.3826 138.505C70.6031 138.684 87.7894 138.505 92.0441 138.361C92.1354 138.357 92.1354 138.293 92.0441 138.293Z" fill="#263238"/>
  <path d="M89.8802 134.768C89.4067 134.757 88.9361 134.845 88.4982 135.026C88.0604 135.206 87.6648 135.476 87.3365 135.817C86.7382 136.427 86.4001 137.245 86.3936 138.099C86.3936 138.125 86.4392 138.125 86.443 138.099C86.5844 137.257 86.994 136.484 87.6107 135.895C88.2275 135.306 89.0182 134.932 89.865 134.829C89.8731 134.831 89.8816 134.829 89.8888 134.825C89.8959 134.821 89.901 134.814 89.903 134.806C89.9051 134.798 89.9038 134.789 89.8995 134.782C89.8952 134.775 89.8883 134.77 89.8802 134.768Z" fill="#263238"/>
  <path d="M82.4316 130.996C80.7282 130.977 78.7548 131.585 77.6978 132.984C77.6598 133.038 77.7358 133.095 77.7852 133.068C79.2735 132.283 80.8413 131.658 82.462 131.205C82.4871 131.198 82.5088 131.182 82.523 131.161C82.5372 131.139 82.543 131.113 82.5393 131.087C82.5356 131.061 82.5225 131.038 82.5027 131.021C82.4829 131.004 82.4576 130.995 82.4316 130.996Z" fill="#263238"/>
  <path d="M83.7547 131.502C82.0475 131.502 80.0741 132.095 79.0209 133.49C78.979 133.547 79.0551 133.604 79.1083 133.578C80.5944 132.789 82.1611 132.163 83.7813 131.711C83.806 131.704 83.8275 131.689 83.8417 131.667C83.856 131.646 83.862 131.62 83.8588 131.595C83.8555 131.569 83.8432 131.546 83.8241 131.529C83.805 131.512 83.7803 131.502 83.7547 131.502Z" fill="#263238"/>
  <path d="M85.0708 132.011C83.3674 132.011 81.394 132.601 80.3369 134C80.2989 134.053 80.375 134.11 80.4244 134.083C81.9127 133.298 83.4805 132.673 85.1012 132.22C85.1263 132.214 85.1479 132.198 85.1622 132.176C85.1764 132.154 85.1822 132.128 85.1785 132.102C85.1747 132.077 85.1617 132.053 85.1419 132.036C85.122 132.02 85.0968 132.011 85.0708 132.011Z" fill="#263238"/>
  <path d="M86.3901 132.521C84.6829 132.502 82.7095 133.11 81.6562 134.509C81.6144 134.563 81.6943 134.62 81.7437 134.593C83.2317 133.807 84.7995 133.182 86.4205 132.73C86.4456 132.723 86.4672 132.707 86.4815 132.685C86.4957 132.664 86.5015 132.638 86.4978 132.612C86.494 132.586 86.481 132.563 86.4612 132.546C86.4413 132.529 86.4161 132.52 86.3901 132.521Z" fill="#263238"/>
  <path d="M67.4547 134.429C65.5535 134.429 65.5535 137.414 67.4547 137.403C69.3558 137.391 69.371 134.418 67.4547 134.429Z" fill="#263238"/>
  <path d="M84.2607 126.441C83.3976 125.726 82.3102 126.441 81.7817 127.175C80.9019 128.472 80.3775 129.977 80.2607 131.54C80.2607 131.574 80.2874 131.589 80.314 131.589C80.3207 131.621 80.3351 131.651 80.3559 131.677C80.3767 131.702 80.4033 131.722 80.4335 131.735C80.4637 131.749 80.4965 131.754 80.5293 131.752C80.5621 131.75 80.5939 131.739 80.622 131.722C81.8311 130.882 83.2303 130.129 84.1467 128.939C84.6676 128.247 85.0934 127.106 84.2607 126.441ZM82.1847 130.068C81.5991 130.498 80.9946 130.897 80.4242 131.35C80.7284 130.498 80.9908 129.639 81.3786 128.817C81.5578 128.424 81.7636 128.042 81.9946 127.677C82.3748 127.11 84.0326 125.68 84.2075 127.532C84.3064 128.547 82.8805 129.559 82.1847 130.068Z" fill="#263238"/>
  <path d="M76.0174 132.186C77.5003 132.407 79.0326 131.981 80.4888 131.749C80.5205 131.741 80.5497 131.725 80.5742 131.704C80.5988 131.682 80.6179 131.655 80.6301 131.625C80.6423 131.594 80.6472 131.562 80.6445 131.529C80.6417 131.496 80.6314 131.465 80.6143 131.437C80.6198 131.433 80.6243 131.427 80.6274 131.421C80.6305 131.415 80.6321 131.408 80.6321 131.401C80.6321 131.394 80.6305 131.387 80.6274 131.381C80.6243 131.375 80.6198 131.369 80.6143 131.365C79.4442 130.321 78.0201 129.604 76.485 129.285C75.5877 129.114 74.3177 129.361 74.2037 130.475C74.0668 131.525 75.1504 132.049 76.0174 132.186ZM74.9831 131.22C73.8425 129.76 76.0212 129.635 76.6752 129.787C77.0995 129.893 77.5161 130.028 77.9223 130.19C78.7539 130.535 79.5674 130.922 80.3596 131.35C79.6371 131.422 78.9261 131.551 78.2075 131.65C77.3482 131.764 75.6219 132.023 74.9831 131.22Z" fill="#263238"/>
  <path d="M37.3066 51.5171C37.3066 51.5171 57.029 85.0684 57.5576 87.4258C58.3674 91.0455 62.6602 126.791 62.6602 126.791L83.1925 126.41C83.1925 126.41 79.6564 94.8934 76.3066 84.5094C73.8959 77.0303 56.4891 52.2243 56.4891 52.2243L37.3066 51.5171Z" fill="#37474F"/>
  <path d="M81.3252 123.277C78.3785 123.255 67.9336 123.137 64.0097 123.502C63.9793 123.502 63.9831 123.555 64.0097 123.559C65.3595 123.753 78.3747 123.452 81.3214 123.357C81.3276 123.359 81.3342 123.36 81.3407 123.359C81.3472 123.359 81.3534 123.356 81.3589 123.353C81.3643 123.349 81.3688 123.344 81.3721 123.338C81.3753 123.333 81.3771 123.326 81.3774 123.32C81.3777 123.313 81.3765 123.307 81.3738 123.301C81.3712 123.295 81.3671 123.29 81.3621 123.285C81.357 123.281 81.351 123.278 81.3446 123.277C81.3382 123.276 81.3316 123.276 81.3252 123.277Z" fill="#263238"/>
  <path d="M40.6713 54.5969C41.964 56.6235 43.3329 58.6083 44.6485 60.6197C45.964 62.6311 47.2872 64.6425 48.5914 66.6501C51.1922 70.7058 53.727 74.7882 56.196 78.8972C57.4009 80.8019 58.4317 82.8113 59.2758 84.901C60.0463 86.9912 60.6254 89.1471 61.0058 91.3421C61.4089 93.5436 61.675 95.7679 61.9222 97.9922C62.1757 100.357 62.4406 102.724 62.7169 105.091C63.2568 109.935 63.798 114.779 64.3404 119.623C64.4051 120.217 64.4697 120.81 64.5305 121.407C64.5305 121.494 64.3823 121.509 64.3708 121.407C63.7663 116.597 63.2644 111.768 62.7169 106.958C62.4431 104.557 62.1706 102.158 61.8994 99.7603C61.6446 97.5283 61.4013 95.2926 61.0553 93.0759C60.7378 90.8878 60.2547 88.727 59.6104 86.612C58.9004 84.4221 57.9491 82.3179 56.7739 80.3383C54.3975 76.2356 51.8804 72.2052 49.3633 68.171C46.8462 64.1368 44.2606 60.0684 41.6066 56.0836C41.2796 55.5931 40.9488 55.1026 40.6066 54.6197C40.58 54.5931 40.6485 54.5589 40.6713 54.5969Z" fill="#263238"/>
  <path d="M43.7701 141.285C42.8347 141.228 18.6751 131.441 18.0059 130.513C17.976 130.458 17.9628 130.396 17.9678 130.334C17.9678 129.502 19.6446 126.597 21.0439 122.779C21.1313 122.536 21.7549 121.403 22.618 119.878C25.0172 115.699 29.1997 108.502 29.1997 108.502L44.9906 114.775L37.4317 126.087L36.2568 128.825C36.2568 128.825 43.6674 136.486 44.291 137.57C44.9145 138.654 44.7016 141.338 43.7701 141.285Z" fill="#EB9481"/>
  <path d="M43.7701 141.285C42.8347 141.228 18.6751 131.441 18.0059 130.513C17.976 130.459 17.9628 130.396 17.9678 130.334C17.9678 129.502 19.6446 126.597 21.0439 122.779C21.1313 122.536 21.7549 121.403 22.618 119.878L37.4469 126.087L36.272 128.825C36.272 128.825 43.6826 136.487 44.3062 137.57C44.9298 138.654 44.7016 141.338 43.7701 141.285Z" fill="white"/>
  <path d="M43.7701 141.285C42.8348 141.228 18.6751 131.441 18.0059 130.513C17.7473 130.16 18.8272 126.863 21.0477 122.779L36.2568 128.829C36.2568 128.829 43.6675 136.483 44.2948 137.574C44.9222 138.665 44.7017 141.338 43.7701 141.285Z" fill="#A6A6A6"/>
  <path d="M43.8084 140.205C39.8958 138.525 23.9491 132.114 19.9529 130.753C19.9187 130.753 19.9111 130.753 19.9529 130.775C23.797 132.525 39.7932 138.806 43.7932 140.281C43.8692 140.3 43.892 140.239 43.8084 140.205Z" fill="#263238"/>
  <path d="M43.1241 136.125C42.6902 135.935 42.2215 135.836 41.7477 135.836C41.2738 135.836 40.8051 135.935 40.3713 136.125C39.5912 136.467 38.9729 137.096 38.645 137.882C38.645 137.905 38.6792 137.924 38.6907 137.901C39.1389 137.172 39.8113 136.608 40.6072 136.293C41.4031 135.978 42.2795 135.93 43.1051 136.156C43.1115 136.154 43.117 136.15 43.1205 136.144C43.124 136.138 43.1253 136.132 43.1241 136.125Z" fill="#263238"/>
  <path d="M37.6369 129.836C36.0665 129.179 34.0057 129.004 32.5038 129.905C32.4468 129.939 32.5038 130.019 32.5532 130.015C34.2275 129.845 35.9151 129.854 37.5874 130.042C37.6132 130.044 37.639 130.038 37.6602 130.023C37.6814 130.008 37.6964 129.986 37.7025 129.961C37.7085 129.936 37.7052 129.909 37.6931 129.886C37.6811 129.863 37.6611 129.846 37.6369 129.836Z" fill="#263238"/>
  <path d="M38.6676 130.802C37.0973 130.144 35.0365 129.969 33.5346 130.87C33.4775 130.905 33.5346 130.985 33.584 130.981C35.2582 130.809 36.9459 130.818 38.6182 131.007C38.6439 131.01 38.6698 131.003 38.691 130.989C38.7121 130.974 38.7272 130.952 38.7332 130.926C38.7393 130.901 38.736 130.875 38.7239 130.852C38.7118 130.829 38.6918 130.811 38.6676 130.802Z" fill="#263238"/>
  <path d="M39.7016 131.768C38.1275 131.11 36.0667 130.935 34.5686 131.836C34.5077 131.871 34.5686 131.95 34.6142 131.947C36.2884 131.775 37.9761 131.784 39.6484 131.973C39.6747 131.978 39.7016 131.972 39.7239 131.957C39.7463 131.943 39.7624 131.921 39.7691 131.895C39.7757 131.869 39.7725 131.842 39.76 131.818C39.7476 131.795 39.7267 131.777 39.7016 131.768Z" fill="#263238"/>
  <path d="M40.7324 132.734C39.1583 132.076 37.1012 131.901 35.5993 132.798C35.5385 132.836 35.5993 132.916 35.645 132.912C37.3191 132.741 39.0069 132.749 40.6792 132.939C40.7054 132.943 40.7324 132.938 40.7547 132.923C40.777 132.909 40.7931 132.886 40.7998 132.861C40.8065 132.835 40.8033 132.808 40.7908 132.784C40.7783 132.76 40.7575 132.742 40.7324 132.734Z" fill="#263238"/>
  <path d="M22.4622 127.399C20.6865 126.692 19.5838 129.456 21.3671 130.163C23.1504 130.871 24.2568 128.106 22.4622 127.399Z" fill="#263238"/>
  <path d="M41.0401 126.3C40.504 125.315 39.2378 125.559 38.466 126.049C37.1658 126.92 36.1169 128.117 35.4242 129.521C35.4211 129.527 35.4195 129.534 35.4194 129.54C35.4194 129.547 35.4209 129.554 35.4238 129.56C35.4267 129.567 35.431 129.572 35.4363 129.576C35.4417 129.581 35.4479 129.584 35.4546 129.585C35.4546 129.711 35.5382 129.859 35.6865 129.829C37.1276 129.498 38.7055 129.327 39.9983 128.566C40.7397 128.125 41.5458 127.232 41.0401 126.3ZM37.7512 128.882C37.0477 129.061 36.3405 129.205 35.6447 129.41C36.2202 128.717 36.8307 128.053 37.4736 127.422C37.7901 127.12 38.1267 126.841 38.4812 126.585C39.0325 126.205 41.1162 125.502 40.5839 127.285C40.2911 128.27 38.5915 128.669 37.7512 128.882Z" fill="#263238"/>
  <path d="M31.2417 128.532C32.5344 129.293 34.1124 129.471 35.5496 129.806C35.6979 129.84 35.7968 129.692 35.7854 129.563C35.7925 129.562 35.7993 129.559 35.8052 129.555C35.811 129.551 35.8157 129.545 35.8187 129.539C35.8218 129.532 35.8231 129.525 35.8226 129.518C35.8221 129.511 35.8197 129.504 35.8158 129.498C35.1242 128.092 34.0752 126.892 32.774 126.019C32.0135 125.524 30.7398 125.277 30.1998 126.258C29.6599 127.239 30.485 128.087 31.2417 128.532ZM30.6485 127.247C30.12 125.464 32.1998 126.171 32.7512 126.555C33.1052 126.811 33.4406 127.092 33.755 127.395C34.3967 128.028 35.0058 128.693 35.58 129.388C34.8842 129.182 34.177 129.034 33.4736 128.855C32.6219 128.627 30.9375 128.247 30.6485 127.247Z" fill="#263238"/>
  <path d="M38.6597 125.456L20.9829 118.319C20.9829 118.319 42.8992 86.0948 43.0589 83.6956C43.2034 81.5739 33.576 63.0873 33.1996 57.6995C32.789 51.882 35.5874 47.3839 38.6673 44.5892L56.8992 52.3421C56.8992 52.3421 54.9752 55.4181 51.9562 57.1329C51.9562 57.1329 61.306 78.5017 60.7737 85.072C60.2414 91.6424 38.6597 125.456 38.6597 125.456Z" fill="#37474F"/>
  <path d="M39.4432 122.095C36.888 120.996 37.6371 121.274 35.0668 120.194C33.812 119.669 25.5611 116.235 24.2911 115.95C24.2645 115.95 24.2455 115.988 24.2721 116.004C25.371 116.677 33.6903 119.966 34.9565 120.467C37.5458 121.486 36.812 121.167 39.4128 122.156C39.4166 122.161 39.4218 122.165 39.4277 122.168C39.4336 122.17 39.4401 122.171 39.4466 122.171C39.453 122.17 39.4592 122.168 39.4646 122.164C39.4699 122.161 39.4743 122.156 39.4772 122.15C39.4801 122.144 39.4814 122.138 39.4812 122.131C39.4809 122.125 39.4789 122.118 39.4755 122.113C39.4721 122.107 39.4673 122.103 39.4617 122.1C39.456 122.096 39.4497 122.095 39.4432 122.095Z" fill="#263238"/>
  <path d="M54.9451 56.7414C53.047 57.1839 51.1899 57.7868 49.3938 58.5437C49.3866 58.5462 49.3799 58.5501 49.3742 58.5552C49.3684 58.5603 49.3637 58.5664 49.3604 58.5733C49.357 58.5802 49.3551 58.5877 49.3546 58.5953C49.3541 58.603 49.3552 58.6106 49.3577 58.6179C49.3602 58.6251 49.3641 58.6318 49.3692 58.6375C49.3742 58.6433 49.3804 58.6479 49.3873 58.6513C49.3942 58.6546 49.4016 58.6566 49.4093 58.6571C49.4169 58.6575 49.4246 58.6565 49.4318 58.654C51.2949 58.1103 53.1885 57.6008 55.0212 56.9582C55.1619 56.9087 55.0896 56.711 54.9451 56.7414Z" fill="#263238"/>
  <path d="M52.7736 56.0036C52.5964 56.3187 52.4402 56.6452 52.306 56.9808C52.1747 57.2356 52.0934 57.513 52.0664 57.7983C52.0664 57.8553 52.1424 57.8668 52.1767 57.8325C52.3674 57.6044 52.5214 57.3478 52.6329 57.0721C52.7888 56.7717 52.9485 56.4751 53.0968 56.1671C53.1995 55.9428 52.8915 55.7983 52.7736 56.0036Z" fill="#263238"/>
  <path d="M53.0022 54.2774C53.1163 53.9961 53.2266 53.7185 53.3444 53.4371C53.4623 53.1558 53.6106 52.8668 53.7247 52.5702C53.7247 52.5246 53.8159 52.5702 53.7969 52.6044C53.6828 52.8858 53.6106 53.1824 53.5231 53.4714C53.4357 53.7603 53.3368 54.0493 53.2418 54.3383C53.0631 54.8744 52.8615 55.4067 52.6144 55.9276C52.9136 55.9426 53.2123 55.8906 53.4889 55.7755C53.7714 55.5947 53.9886 55.3282 54.1087 55.0151C54.2684 54.7033 54.4167 54.3839 54.5802 54.0721C54.7814 53.735 54.9507 53.3799 55.0859 53.0113C55.0859 52.9657 55.1771 53.0113 55.1581 53.0455C54.9102 53.8248 54.5854 54.5776 54.1885 55.2927C54.0174 55.5702 53.8844 55.863 53.5726 55.9695C53.2351 56.0638 52.8819 56.0884 52.5345 56.0417C52.4889 56.0417 52.4357 56.0417 52.4509 55.9733C52.6066 55.3992 52.7906 54.8333 53.0022 54.2774Z" fill="#263238"/>
  <path d="M52.2268 57.8288C52.877 59.2015 53.4473 60.5703 54.0519 61.9391C54.6564 63.3079 55.1926 64.6311 55.7363 65.9923C56.8237 68.7376 57.7971 71.536 58.6526 74.3573C59.0747 75.7566 59.4663 77.1672 59.8161 78.5893C60.2014 80.0068 60.4835 81.4504 60.6602 82.9086C60.8128 84.3645 60.6837 85.8362 60.28 87.2432C59.8607 88.6341 59.3226 89.9863 58.6716 91.2851C58.2724 92.1063 58.1393 91.9961 58.3294 91.5816C58.8732 90.4029 60.299 86.8326 60.1964 83.8326C60.1132 82.3964 59.8916 80.9715 59.5348 79.5778C59.2027 78.1406 58.8288 76.7147 58.4131 75.3003C57.6032 72.5094 56.6412 69.7756 55.6526 67.0456C55.0975 65.5246 54.512 64.0037 53.9416 62.4828C53.3713 60.9619 52.8009 59.5627 52.1622 57.8821C52.1431 57.8136 52.2078 57.787 52.2268 57.8288Z" fill="#263238"/>
  <path d="M38.8082 53.2927C39.1238 53.1748 39.5687 53.3687 39.8881 53.422C40.3017 53.4922 40.7197 53.5341 41.139 53.5474C41.5539 53.5621 41.9694 53.5481 42.3823 53.5056C42.7983 53.4949 43.2059 53.3868 43.5725 53.19C44.1739 52.7519 44.6895 52.2067 45.0934 51.5817C45.5746 50.943 45.972 50.2453 46.2759 49.5056C46.2759 49.46 46.3557 49.5056 46.3405 49.536C46.2074 49.9581 46.1086 50.384 45.9603 50.7984C45.7964 51.1878 45.6005 51.563 45.3747 51.9201C45.0087 52.6387 44.4673 53.2533 43.8006 53.7071C43.0668 54.1254 42.1238 54.0874 41.3063 54.0531C40.8322 54.0255 40.3607 53.9632 39.8957 53.8668C39.5611 53.7946 38.9983 53.7414 38.7854 53.4486C38.7754 53.4374 38.768 53.4241 38.7636 53.4097C38.7593 53.3953 38.7582 53.3802 38.7604 53.3653C38.7625 53.3504 38.7679 53.3362 38.7762 53.3237C38.7845 53.3111 38.7954 53.3006 38.8082 53.2927Z" fill="#263238"/>
  <path d="M26.0293 114.939C28.9342 110.538 31.7859 106.102 34.5844 101.631C37.3829 97.1595 40.1433 92.6538 42.8657 88.1139C43.5159 87.0302 44.265 85.9504 44.6832 84.7489C45.1395 83.4447 44.8809 82.1785 44.4703 80.901C43.6949 78.5703 42.7885 76.2853 41.7555 74.0569C40.7365 71.8097 39.6376 69.6006 38.5578 67.3839C37.4779 65.1671 36.3486 62.977 35.5159 60.6652C34.7555 58.4561 34.4475 56.1672 35.0406 53.8782C35.6338 51.5892 36.9114 49.5664 38.246 47.6615C38.5958 47.1596 38.957 46.6615 39.3106 46.1406C39.3372 46.1025 39.3943 46.1406 39.3676 46.1862C37.8962 48.171 36.4627 50.2736 35.5996 52.6044C35.1584 53.7533 34.9117 54.9676 34.8695 56.1976C34.8624 57.446 35.0562 58.6875 35.4437 59.8744C36.1585 62.1862 37.2878 64.3725 38.341 66.5474C39.3942 68.7223 40.5197 70.9732 41.5577 73.2127C42.6286 75.4667 43.5805 77.7754 44.4095 80.1291C44.7631 81.1747 45.1699 82.2698 45.1395 83.3914C45.1129 84.6196 44.5273 85.726 43.919 86.7603C41.2574 91.266 38.5311 95.7184 35.7555 100.144C32.9798 104.57 30.1243 108.996 27.2346 113.376L26.1395 115.03C26.0825 115.099 25.9836 115.019 26.0293 114.939Z" fill="#263238"/>
  <path d="M57.911 31.8478C59.5574 35.46 67.8729 40.4372 71.7665 40.9733C74.5649 41.3535 83.0744 41.4904 85.9908 41.0455C89.4128 40.5208 86.7969 31.3003 84.7779 31.5398C79.2265 32.1862 74.5117 32.9087 73.0288 32.9087C71.2189 32.9087 61.4281 29.768 60.2494 29.3231C57.3597 28.2471 56.9794 29.7984 57.911 31.8478Z" fill="#EB9481"/>
  <path d="M57.964 32.8099C60.0477 35.8935 66.9716 40.9353 66.9716 40.9353L67.9336 38.806L71.1161 31.7642C71.1161 31.7642 64.7549 29.768 60.5686 28.8555C60.0759 28.7434 59.5749 28.6722 59.0705 28.6426C56.3975 28.4981 56.1656 30.1483 57.964 32.8099Z" fill="#AFAFAF"/>
  <path d="M57.964 32.8099C60.0477 35.8935 66.9716 40.9353 66.9716 40.9353L67.9336 38.8061C65.3519 35.8061 61.3633 31.2624 59.0705 28.6502C56.3975 28.4981 56.1656 30.1483 57.964 32.8099Z" fill="#263238"/>
  <path d="M65.7243 39.5057C66.2528 38.2091 68.6026 32.9886 69.1882 31.9011C69.2262 31.8251 69.287 31.8327 69.2528 31.9011C68.2335 34.4973 67.0734 37.0359 65.7775 39.5057C65.7623 39.5513 65.7015 39.5361 65.7243 39.5057Z" fill="#263238"/>
  <path d="M83.7588 31.635C87.1352 31.1939 91.3139 30.4373 94.8538 31.9392C95.2514 32.0951 95.5849 32.3804 95.8006 32.7491C97.3976 33.3955 97.5725 34.3422 97.5725 34.3422C98.8766 35.3993 98.9223 36.3955 98.9223 36.3955C98.9223 36.3955 100.793 37.1559 100.508 38.3802C100.196 39.7339 97.6333 38.3802 95.7702 38.4905C91.4926 38.7567 85.504 40.327 84.2683 40.5247L83.7588 31.635Z" fill="#EB9481"/>
  <path d="M91.093 35.6198C92.3437 35.5342 93.5989 35.5342 94.8496 35.6198C96.2117 35.7907 97.559 36.0639 98.8801 36.4373C98.8886 36.4403 98.898 36.4398 98.9062 36.4359C98.9144 36.432 98.9207 36.4249 98.9238 36.4164C98.9268 36.4078 98.9263 36.3984 98.9224 36.3902C98.9184 36.382 98.9114 36.3757 98.9029 36.3726C96.4211 35.3989 93.7196 35.1254 91.093 35.5818C91.0322 35.5742 91.0322 35.6236 91.093 35.6198Z" fill="#263238"/>
  <path d="M90.2987 31.6691C92.3862 31.7756 93.6903 32.1102 95.7892 32.7414V32.7186C93.4774 31.7528 92.5307 31.6615 90.2873 31.5779C90.2151 31.6083 90.2189 31.6691 90.2987 31.6691Z" fill="#263238"/>
  <path d="M90.6374 39.1368C90.0936 39.3916 90.2267 39.6768 91.2647 39.9163C92.3028 40.1559 96.6183 40.2281 96.4663 41.7338C96.3142 43.2395 90.2267 43.0494 88.5271 42.5171C86.8275 41.9847 84.2686 40.5247 84.2686 40.5247C85.4739 40.3231 88.3028 39.5589 90.6374 39.1368Z" fill="#EB9481"/>
  <path d="M62.4318 37.6045C62.4052 38.2547 62.3443 38.9163 62.2531 39.5741C62.2531 39.5475 62.2531 39.5247 62.2797 39.5018C62.4052 39.1596 62.5306 38.8098 62.6827 38.479C62.6827 38.479 62.7208 38.479 62.717 38.479C62.6439 38.8415 62.5343 39.1956 62.39 39.5361C62.3215 39.6996 62.2569 39.8593 62.1846 40.019C62.139 40.3117 62.0858 40.6007 62.0287 40.8897C61.9147 41.4334 61.4014 43.7452 61.2683 44.1368C61.2455 44.2167 61.1466 44.1977 61.1542 44.1064C61.1808 43.6805 61.6105 41.2737 61.698 40.7262C61.8678 39.669 62.095 38.6218 62.3786 37.5893C62.3976 37.5703 62.4356 37.5855 62.4318 37.6045Z" fill="#263238"/>
  <path d="M58.4775 54.8934C57.4623 55.4143 56.1543 56.2242 50.2608 55.0645C49.8806 54.9885 49.5232 54.8972 49.1506 54.787C43.6259 53.1292 36.9833 46.6311 36.6221 46.171C36.6221 46.171 45.4015 31.9391 56.6296 27.4638C58.0175 26.9125 60.314 27.9771 61.5726 29.3041C62.0251 29.7794 63.0098 33.2737 62.6334 36.1026C62.257 38.9315 59.4889 54.3725 58.4775 54.8934Z" fill="#AFAFAF"/>
  <path d="M57.6866 35.9734C57.729 36.5748 57.6448 37.1784 57.4395 37.7452C57.3912 37.1437 57.4756 36.5388 57.6866 35.9734Z" fill="white"/>
  <path d="M53.8575 45.6653C53.8817 45.9646 53.8715 46.2657 53.8271 46.5626C53.7905 46.8618 53.7177 47.1555 53.6103 47.4371C53.5841 47.1366 53.5944 46.8341 53.6408 46.536C53.6796 46.2385 53.7523 45.9463 53.8575 45.6653Z" fill="white"/>
  <path d="M47.3519 38.3384C47.3948 38.941 47.3106 39.546 47.1048 40.114C47.057 39.5112 47.1414 38.9052 47.3519 38.3384Z" fill="white"/>
  <path d="M60.1924 45.171C60.2167 45.4716 60.2065 45.7739 60.162 46.0722C60.1254 46.3714 60.0526 46.665 59.9453 46.9467C59.9191 46.6462 59.9293 46.3436 59.9757 46.0455C60.0141 45.7467 60.0869 45.4532 60.1924 45.171Z" fill="white"/>
  <path d="M51.8384 37.0836C52.1375 37.0581 52.4386 37.0671 52.7357 37.1102C53.0351 37.1482 53.3287 37.2222 53.6102 37.3307C53.0088 37.3739 52.405 37.2897 51.8384 37.0836Z" fill="white"/>
  <path d="M44.4546 44.0836C45.056 44.0412 45.6596 44.1254 46.2265 44.3307C45.6249 44.3789 45.02 44.2945 44.4546 44.0836Z" fill="white"/>
  <path d="M53.1543 51.6615C53.7557 51.6183 54.3595 51.7025 54.9262 51.9087C54.3246 51.9561 53.7199 51.8718 53.1543 51.6615Z" fill="white"/>
  <path d="M42.1772 48.9086C42.7786 48.8662 43.3823 48.9504 43.9491 49.1558C43.3475 49.2032 42.7429 49.1189 42.1772 48.9086Z" fill="white"/>
  <path d="M57.6294 29.1597C58.2308 29.1173 58.8344 29.2015 59.4012 29.4069C58.7998 29.4493 58.1962 29.3651 57.6294 29.1597Z" fill="white"/>
  <path d="M55.4809 31.5856C55.2886 31.8166 55.069 32.0235 54.8269 32.2015C54.5913 32.3837 54.3362 32.5393 54.0664 32.6654C54.2574 32.4358 54.4743 32.2291 54.7128 32.0494C54.9506 31.8666 55.2083 31.711 55.4809 31.5856Z" fill="white"/>
  <path d="M43.7742 38.479C43.5796 38.7081 43.3589 38.9135 43.1164 39.0912C42.8832 39.2768 42.6277 39.4326 42.356 39.555C42.5516 39.327 42.7722 39.1216 43.0137 38.9429C43.2475 38.758 43.5029 38.6023 43.7742 38.479Z" fill="white"/>
  <path d="M58.3938 41.5892C58.1993 41.8195 57.9786 42.0262 57.736 42.2052C57.5023 42.39 57.2469 42.5458 56.9756 42.6691C57.1701 42.4388 57.3909 42.2321 57.6334 42.0531C57.8684 41.8701 58.1236 41.7145 58.3938 41.5892Z" fill="white"/>
  <path d="M48.9261 47.5513C48.7316 47.7815 48.5108 47.9883 48.2683 48.1672C48.0341 48.3515 47.7788 48.5073 47.5078 48.6311C47.7023 48.4009 47.9231 48.1941 48.1656 48.0151C48.4007 47.8322 48.6558 47.6765 48.9261 47.5513Z" fill="white"/>
  <path d="M62.0213 33.4448C61.8268 33.6751 61.606 33.8818 61.3635 34.0608C61.1279 34.243 60.8728 34.3986 60.603 34.5247C60.7975 34.2944 61.0183 34.0877 61.2608 33.9087C61.495 33.7244 61.7503 33.5687 62.0213 33.4448Z" fill="white"/>
  <path d="M61.8235 40.3535C61.5932 40.159 61.3865 39.9383 61.2075 39.6958C61.0225 39.4621 60.8667 39.2068 60.7437 38.9353C60.9747 39.1275 61.1816 39.3471 61.3596 39.5893C61.5413 39.8266 61.6968 40.0829 61.8235 40.3535Z" fill="white"/>
  <path d="M40.721 45.1139C40.4907 44.9194 40.284 44.6987 40.105 44.4561C39.922 44.2211 39.7664 43.9659 39.6411 43.6957C39.8714 43.8902 40.0781 44.1109 40.2571 44.3535C40.4414 44.5876 40.5971 44.8429 40.721 45.1139Z" fill="white"/>
  <path d="M59.2571 50.7757C59.026 50.5834 58.8192 50.3638 58.6411 50.1217C58.4589 49.8861 58.3034 49.631 58.1772 49.3612C58.4075 49.5557 58.6142 49.7765 58.7932 50.019C58.9767 50.2523 59.1324 50.5063 59.2571 50.7757Z" fill="white"/>
  <path d="M49.9675 34.6349C49.7374 34.4417 49.5306 34.2222 49.3516 33.9809C49.1701 33.7448 49.0146 33.4898 48.8877 33.2205C49.1188 33.4127 49.3256 33.6323 49.5037 33.8745C49.6851 34.1106 49.8406 34.3655 49.9675 34.6349Z" fill="white"/>
  <path d="M50.1316 53.9999C49.9013 53.8054 49.6946 53.5846 49.5156 53.3421C49.3332 53.1067 49.1776 52.8516 49.0518 52.5817C49.2828 52.7739 49.4897 52.9935 49.6677 53.2357C49.8507 53.4721 50.0063 53.7285 50.1316 53.9999Z" fill="white"/>
  <path d="M51.7093 42.5779C51.4813 42.3823 51.2759 42.1617 51.0972 41.9201C50.9115 41.6869 50.7557 41.4314 50.6333 41.1597C50.8624 41.3542 51.0678 41.575 51.2455 41.8175C51.4303 42.0512 51.5861 42.3066 51.7093 42.5779Z" fill="white"/>
  <path d="M59.5155 33.095C58.082 32.8289 56.736 29.8669 56.5649 27.8745C56.5649 27.7376 57.2341 26.654 57.9984 25.2966C58.4623 24.4715 58.9528 23.5399 59.3444 22.6578C59.4243 22.4791 59.8919 23.0836 59.8919 23.0836L60.9109 23.8441L64.276 26.4258C63.4746 27.3874 62.794 28.4434 62.2493 29.5703C62.1956 29.6924 62.1548 29.8199 62.1277 29.9506C62.1262 29.9721 62.1262 29.9937 62.1277 30.0152C61.9185 30.768 60.8957 33.3498 59.5155 33.095Z" fill="#EB9481"/>
  <path d="M62.1278 29.9696C62.1263 29.9911 62.1263 30.0127 62.1278 30.0342C61.928 29.9757 61.7334 29.9006 61.546 29.8099C57.8616 28.0837 59.4852 23.1483 59.4852 23.1483L60.9301 23.8631L64.2951 26.4449C63.4938 27.4064 62.8132 28.4624 62.2685 29.5894C62.2082 29.7107 62.161 29.8382 62.1278 29.9696Z" fill="#263238"/>
  <path d="M68.1426 15.9202C68.1426 15.9202 69.827 16.9886 69.8346 18.8897C69.8422 20.7909 69.0741 22.6502 68.9144 22.7186C68.7547 22.7871 68.1426 15.9202 68.1426 15.9202Z" fill="#263238"/>
  <path d="M59.7854 16.9087C58.774 18.9049 58.8273 25.1976 60.0896 26.8174C61.9223 29.1672 65.4508 29.9771 67.5839 27.6539C69.6485 25.4029 69.4356 17.2052 67.9641 15.6767C65.8234 13.4182 61.2835 13.9543 59.7854 16.9087Z" fill="#EB9481"/>
  <path d="M65.1541 21.9468C65.1541 21.9468 65.1198 21.9696 65.1236 21.9848C65.1465 22.4145 65.1008 22.9088 64.7168 23.0608C64.7168 23.0608 64.7168 23.0875 64.7168 23.0837C65.1921 23.0076 65.2453 22.3498 65.1541 21.9468Z" fill="#263238"/>
  <path d="M64.7623 21.5096C64.0703 21.4715 64.0475 22.8556 64.6901 22.8898C65.3327 22.924 65.3403 21.54 64.7623 21.5096Z" fill="#263238"/>
  <path d="M67.5005 21.9315C67.5005 21.9315 67.5347 21.9315 67.5347 21.9695C67.5119 22.3992 67.5613 22.8935 67.9492 23.0418C67.9492 23.0418 67.9492 23.0684 67.9492 23.0646C67.4701 22.9924 67.413 22.3346 67.5005 21.9315Z" fill="#263238"/>
  <path d="M67.8914 21.4904C68.5796 21.4486 68.6138 22.8326 67.975 22.8707C67.3363 22.9087 67.3134 21.5247 67.8914 21.4904Z" fill="#263238"/>
  <path d="M64.3291 20.4562C64.5108 20.4045 64.6897 20.3436 64.8652 20.2737C65.0649 20.2376 65.2469 20.1359 65.3823 19.9847C65.4152 19.9294 65.4289 19.8648 65.4213 19.8008C65.4138 19.7369 65.3854 19.6773 65.3405 19.6311C65.2376 19.5529 65.1157 19.5036 64.9874 19.4882C64.859 19.4728 64.7289 19.492 64.6105 19.5437C64.3539 19.6124 64.1318 19.7735 63.9869 19.9961C63.9579 20.0491 63.9448 20.1092 63.949 20.1694C63.9532 20.2296 63.9746 20.2874 64.0106 20.3358C64.0466 20.3842 64.0958 20.4213 64.1522 20.4426C64.2087 20.464 64.27 20.4687 64.3291 20.4562Z" fill="#263238"/>
  <path d="M68.3631 21.0684C68.1782 21.0271 67.9954 20.9763 67.8156 20.9163C67.6153 20.8898 67.4294 20.7975 67.2871 20.654C67.2505 20.6011 67.2328 20.5374 67.2369 20.4732C67.2411 20.409 67.2668 20.3481 67.3099 20.3003C67.408 20.2165 67.5268 20.1606 67.6539 20.1385C67.781 20.1165 67.9118 20.129 68.0323 20.1749C68.2924 20.2288 68.523 20.3779 68.6787 20.5931C68.7113 20.644 68.7284 20.7033 68.7279 20.7638C68.7274 20.8242 68.7093 20.8832 68.6758 20.9336C68.6424 20.984 68.595 21.0235 68.5395 21.0475C68.484 21.0714 68.4227 21.0787 68.3631 21.0684Z" fill="#263238"/>
  <path d="M64.1806 26.0114C64.2832 26.1141 64.3821 26.251 64.538 26.2662C64.6978 26.2661 64.8559 26.2324 65.0019 26.1673C65.0019 26.1673 65.0285 26.1673 65.0019 26.1901C64.9396 26.2737 64.8557 26.3388 64.7592 26.3783C64.6628 26.4178 64.5574 26.4303 64.4543 26.4145C64.3675 26.3908 64.2895 26.3421 64.23 26.2746C64.1705 26.207 64.1322 26.1234 64.1197 26.0342C64.1167 26.0262 64.117 26.0172 64.1206 26.0094C64.1242 26.0016 64.1307 25.9954 64.1388 25.9924C64.1468 25.9894 64.1558 25.9897 64.1636 25.9933C64.1714 25.9968 64.1776 26.0034 64.1806 26.0114Z" fill="#263238"/>
  <path d="M66.6676 24.1786C66.6676 24.1786 66.6866 24.8174 66.6676 25.1178C66.0834 25.0558 65.4933 25.0763 64.9147 25.1786C64.7779 25.209 64.7931 25.0988 64.949 25.0265C65.415 24.8135 65.934 24.7447 66.4395 24.8288C66.4699 24.749 66.39 23.8402 66.4395 23.844C66.6695 23.8892 66.8921 23.9659 67.1011 24.0722C67.1011 22.7338 66.8881 21.4106 66.9071 20.0722C66.9071 20.0265 66.9794 20.0189 66.987 20.0722C67.2572 21.488 67.3846 22.9274 67.3672 24.3687C67.371 24.5322 66.7817 24.2395 66.6676 24.1786Z" fill="#263238"/>
  <path d="M65.8121 24.8896C65.6606 25.2883 65.3793 25.6245 65.0137 25.844C64.4395 26.0759 64.2532 25.555 64.8312 25.0835C65.1342 24.9304 65.4736 24.8633 65.8121 24.8896Z" fill="#263238"/>
  <path d="M65.2153 25.7262C65.1546 25.7756 65.0866 25.8154 65.0138 25.8441C64.4853 26.057 64.2762 25.635 64.702 25.2091C64.991 25.2319 65.3218 25.3384 65.2153 25.7262Z" fill="#FF99BA"/>
  <path d="M59.4963 22.2889C60.1921 22.5019 60.9906 20.4106 61.2188 19.6274C61.4165 18.9201 61.6446 16.673 61.6788 16.5171C61.7131 16.3612 64.7207 18.5057 66.4621 17.9962C68.2035 17.4867 69.386 15.9087 69.4127 15.1749C69.4393 14.4411 67.2606 12.5779 65.3785 12.4829C63.4963 12.3878 60.945 14.7642 60.945 14.7642C61.2532 14.4145 61.5329 14.0407 61.7815 13.6464C61.7511 13.5627 60.5344 14.0494 60.31 14.9163C60.31 14.9163 60.5534 13.8251 60.4621 13.8061C60.3709 13.7871 59.4241 14.7186 59.637 15.4258C59.637 15.4258 58.542 16.3726 58.4431 17.4106C58.3442 18.4486 58.6788 22.038 59.4963 22.2889Z" fill="#263238"/>
  <path d="M67.7092 17.6008C67.1913 17.8816 66.6335 18.0817 66.0552 18.194C65.406 18.2519 64.7527 18.1474 64.154 17.8898C63.5509 17.6568 62.9907 17.3253 62.4962 16.9088C62.059 16.5514 61.6674 16.1141 61.1997 15.7948C61.0818 15.7111 60.9487 15.8822 61.021 15.9887C61.8012 17.0908 62.9159 17.9121 64.1997 18.3309C64.7959 18.5253 65.4324 18.5616 66.0469 18.4363C66.6614 18.311 67.2328 18.0284 67.7054 17.616C67.7054 17.616 67.7168 17.6008 67.7092 17.6008Z" fill="#263238"/>
  <path d="M60.2224 22.1027C60.2224 22.1027 59.1425 19.9126 58.1692 20.2662C57.1958 20.6198 57.7889 23.6502 58.7889 24.2053C58.9114 24.2846 59.0486 24.3383 59.1924 24.3632C59.3361 24.3881 59.4834 24.3838 59.6255 24.3504C59.7675 24.317 59.9013 24.2553 60.0189 24.169C60.1365 24.0826 60.2355 23.9734 60.3098 23.8479L60.2224 22.1027Z" fill="#EB9481"/>
  <path d="M58.3637 21.1293C58.3637 21.1293 58.3408 21.1293 58.3637 21.1597C59.0557 21.5703 59.337 22.3004 59.5043 23.0608C59.4728 22.9803 59.4242 22.9076 59.3619 22.8478C59.2995 22.7879 59.2249 22.7423 59.1432 22.7141C59.0615 22.6859 58.9746 22.6757 58.8886 22.6844C58.8026 22.6931 58.7195 22.7203 58.645 22.7643C58.6222 22.7643 58.645 22.8061 58.645 22.8061C58.781 22.7849 58.9203 22.8065 59.0435 22.8678C59.1668 22.9291 59.268 23.0271 59.3332 23.1483C59.4421 23.3513 59.5288 23.5655 59.5918 23.7871C59.6146 23.8593 59.7401 23.8403 59.7287 23.7604C59.8922 22.8137 59.3599 21.3802 58.3637 21.1293Z" fill="#263238"/>
  <path d="M53.0932 31.8821C52.3328 36.19 57.002 50.7033 59.9944 53.4143C64.4468 57.4447 72.6788 60.0949 75.6636 60.958C76.9639 61.3383 80.5609 52.1862 79.2453 51.5816C76.4278 50.3003 67.675 47.5626 66.8423 46.8782C66.0096 46.1938 60.9906 38.9429 58.7548 34.768C55.7624 29.1482 53.4697 29.7034 53.0932 31.8821Z" fill="#EB9481"/>
  <path d="M77.0287 50.7756C77.0287 50.7756 80.9147 51.768 83.4204 52.5323C84.8196 52.9619 87.1542 53.9087 88.0401 54.692C89.3633 55.8669 94.1466 61.6159 92.7778 62.806C91.5382 63.8859 88.0553 58.422 88.0553 58.422C88.0553 58.422 92.0553 63.6235 90.3367 64.6463C88.6181 65.6691 85.4736 58.9733 85.4736 58.9733C85.4736 58.9733 89.4622 64.4106 87.5116 65.1824C86.0363 65.7642 82.8728 59.8593 82.8728 59.8593C82.8728 59.8593 86.2721 64.5551 84.774 65.2205C83.1238 65.9581 79.8652 60.6882 79.8652 60.6882C75.7892 61.7414 73.4014 60.5741 71.831 59.5475C71.4622 59.2965 77.0287 50.7756 77.0287 50.7756Z" fill="#EB9481"/>
  <path d="M86.7852 56.5322C87.2795 57.1253 87.7814 57.7261 88.2187 58.3611C88.6559 58.9961 89.0704 59.65 89.4468 60.323C89.9568 61.1935 90.3651 62.1198 90.6635 63.0835C90.0095 61.4105 88.4772 59.1101 88.0399 58.4751C87.6027 57.8402 87.1958 57.1824 86.7624 56.5474C86.751 56.5322 86.7738 56.517 86.7852 56.5322Z" fill="#263238"/>
  <path d="M84.462 58.0721C85.3061 58.7413 87.0741 61.228 87.7547 62.8972C87.7852 62.9656 87.7547 62.9618 87.7053 62.8972C87.173 62.0721 85.0133 58.8782 84.443 58.0835C84.4316 58.0721 84.4506 58.0607 84.462 58.0721Z" fill="#263238"/>
  <path d="M82.2302 59.0455C83.279 60.1456 84.1076 61.4363 84.6712 62.8478C84.6979 62.9163 84.6446 62.9049 84.6028 62.8478C83.8157 61.5665 83.2073 60.5665 82.1883 59.0798C82.1731 59.0455 82.2074 59.0113 82.2302 59.0455Z" fill="#263238"/>
  <path d="M57.3366 32.1976C53.8652 27.2889 51.7891 29.1063 52.4849 34.4371C53.1389 39.4219 54.8842 45.3611 54.8842 45.3611L63.6294 41.1177C63.6294 41.1177 59.5458 35.3421 57.3366 32.1976Z" fill="#AFAFAF"/>
  <path d="M59.4472 34.1293C59.5625 34.4065 59.6454 34.6961 59.6944 34.9924C59.7478 35.2896 59.7669 35.592 59.7514 35.8935C59.6374 35.6148 59.5557 35.3239 59.5081 35.0266C59.4515 34.7311 59.4311 34.4297 59.4472 34.1293Z" fill="white"/>
  <path d="M54.2642 37.114C54.8222 36.887 55.4227 36.7833 56.0246 36.8099C55.7472 36.9239 55.4576 37.0055 55.1615 37.0532C54.8659 37.1096 54.5646 37.1301 54.2642 37.114Z" fill="white"/>
  <path d="M54.4889 29.479C54.2534 30.0347 53.9022 30.5337 53.4585 30.9429C53.694 30.3872 54.0452 29.8881 54.4889 29.479Z" fill="white"/>
  <path d="M61.8991 39.4067C61.7836 39.6848 61.6369 39.9489 61.4618 40.1938C61.2913 40.4419 61.0922 40.669 60.8687 40.8706C61.1041 40.3149 61.4554 39.8159 61.8991 39.4067Z" fill="white"/>
  <path d="M55.8154 42.3839C55.5367 42.2699 55.2725 42.1231 55.0284 41.9467C54.7802 41.7763 54.553 41.5772 54.3516 41.3535C54.9072 41.589 55.4063 41.9403 55.8154 42.3839Z" fill="white"/>
  <path d="M58.4773 33.6768C58.945 34.3193 59.4279 34.9467 59.907 35.5779C59.7853 35.2585 59.6788 34.9353 59.5876 34.6083H59.6104C59.7054 34.8593 59.8157 35.1064 59.907 35.3688L60.0438 35.749C60.0556 35.775 60.0658 35.8016 60.0743 35.8288C60.4545 36.3193 60.8347 36.8098 61.1845 37.3117C61.6142 37.9125 62.0286 38.5209 62.4469 39.1292C62.8651 39.7376 63.2872 40.4942 63.7396 41.1064C63.7815 41.1596 62.9792 41.4866 62.8917 41.5285C62.8043 41.5703 62.7587 41.498 62.8423 41.4714C62.926 41.4448 63.5647 41.0532 63.5723 41.0456C63.1541 40.4296 62.6712 39.8631 62.234 39.2661C61.7967 38.6691 61.3632 38.0722 60.9412 37.4676C60.0857 36.2357 59.3024 34.9581 58.4507 33.7224L58.4773 33.6768Z" fill="#263238"/>
  <path d="M52.6906 37.9658C52.8237 38.2243 52.9682 38.4791 53.0708 38.7453L53.2153 39.076C53.0138 38.1293 52.8351 37.1749 52.626 36.2281C53.029 37.7491 53.4359 39.3042 53.8085 40.8479C54.1621 42.3232 54.5918 43.8137 54.7971 45.3194C55.0622 45.2031 55.337 45.1102 55.6184 45.0418C55.336 45.2246 55.032 45.3714 54.7134 45.4791C54.2551 43.948 53.8744 42.3946 53.5727 40.8251C53.4777 40.3992 53.3902 39.9734 53.299 39.5475C53.2001 39.289 53.0822 39.0418 52.9644 38.7871C52.8465 38.5323 52.74 38.2472 52.6336 37.9772C52.6564 37.962 52.683 37.9468 52.6906 37.9658Z" fill="#263238"/>
  <path d="M55.0137 43.8935C56.2304 43.2091 61.314 40.5779 62.4509 40.0912C62.5307 40.057 62.5726 40.0912 62.4927 40.1445C60.0797 41.5466 57.5918 42.816 55.0403 43.9468C55.0099 43.9544 54.9794 43.9125 55.0137 43.8935Z" fill="#263238"/>
  <path d="M194.34 143.855H78.4927L95.2417 48.8556H211.089L194.34 143.855Z" fill="#AFAFAF"/>
  <path d="M134.892 39.0153H96.9793L95.2417 48.8555H135.816L134.892 39.0153Z" fill="#AFAFAF"/>
  <g opacity="0.1">
    <path d="M194.341 143.855H78.4937L95.2427 48.8556H211.09L194.341 143.855Z" fill="black"/>
    <path d="M134.892 39.0153H96.9798L95.2422 48.8555H135.816L134.892 39.0153Z" fill="black"/>
  </g>
  <path d="M92.8884 43.0305C92.6349 41.9424 92.6349 40.8106 92.8884 39.7225C93.1419 40.8106 93.1419 41.9424 92.8884 43.0305Z" fill="#263238"/>
  <path d="M89.5196 44.0038C89.1325 43.6024 88.7989 43.1525 88.5272 42.6654C88.2423 42.1885 88.0187 41.6775 87.8618 41.1445C88.2501 41.5436 88.5838 41.9924 88.8542 42.4791C89.1385 42.9577 89.3621 43.4699 89.5196 44.0038Z" fill="#263238"/>
  <path d="M87.0858 46.5324C86.0174 46.2076 85.0378 45.6417 84.2227 44.8784C84.7557 45.0334 85.2668 45.2557 85.7436 45.54C86.2307 45.8134 86.6816 46.1468 87.0858 46.5324Z" fill="#263238"/>
  <path d="M86.2343 49.9392C85.1462 50.1927 84.0144 50.1927 82.9263 49.9392C84.0144 49.6856 85.1462 49.6856 86.2343 49.9392Z" fill="#263238"/>
  <path d="M87.2226 53.308C86.8194 53.6931 86.3698 54.0265 85.8842 54.3004C85.4074 54.5847 84.8963 54.807 84.3633 54.962C84.7647 54.5748 85.2146 54.2412 85.7017 53.9696C86.1778 53.6839 86.689 53.4615 87.2226 53.308Z" fill="#263238"/>
  <path d="M89.7477 55.7377C89.424 56.8077 88.8581 57.7887 88.0938 58.6046C88.2486 58.0709 88.4723 57.5596 88.7591 57.0837C89.0302 56.5948 89.3624 56.1425 89.7477 55.7377Z" fill="#263238"/>
  <path d="M93.1545 56.5779C93.2871 57.119 93.351 57.6747 93.3446 58.2319C93.3528 58.7891 93.2889 59.345 93.1545 59.8859C93.0183 59.3454 92.9543 58.7892 92.9644 58.2319C92.9581 57.6747 93.022 57.119 93.1545 56.5779Z" fill="#263238"/>
  <path d="M96.5229 55.6236C96.9101 56.025 97.2437 56.4749 97.5153 56.962C97.801 57.438 98.0234 57.9493 98.1769 58.4829C97.4126 57.667 96.8466 56.686 96.5229 55.616V55.6236Z" fill="#263238"/>
  <path d="M98.9531 53.076C99.4867 53.2295 99.998 53.452 100.474 53.7376C100.961 54.0093 101.411 54.3429 101.812 54.73C101.279 54.5765 100.768 54.3541 100.292 54.0684C99.8044 53.7968 99.3546 53.4632 98.9531 53.076Z" fill="#263238"/>
  <path d="M99.7935 49.6692C100.883 49.4158 102.016 49.4158 103.105 49.6692C102.016 49.9226 100.883 49.9226 99.7935 49.6692Z" fill="#263238"/>
  <path d="M98.8201 46.3003C99.2226 45.9155 99.6723 45.5833 100.159 45.3118C100.634 45.0233 101.145 44.7996 101.679 44.6464C100.864 45.4107 99.8825 45.9767 98.8125 46.3003H98.8201Z" fill="#263238"/>
  <path d="M96.2915 43.8708C96.448 43.3383 96.6703 42.8274 96.9531 42.3499C97.2248 41.8628 97.5583 41.4129 97.9455 41.0115C97.792 41.545 97.5696 42.0563 97.2839 42.5324C97.0122 43.0195 96.6787 43.4693 96.2915 43.8708Z" fill="#263238"/>
  <path d="M194.169 143.855H78.0746L61.5879 52.3042H177.687L194.169 143.855Z" fill="#AFAFAF"/>
  <path d="M101.82 108.27C104.485 108.27 106.645 106.11 106.645 103.445C106.645 100.78 104.485 98.6196 101.82 98.6196C99.1549 98.6196 96.9946 100.78 96.9946 103.445C96.9946 106.11 99.1549 108.27 101.82 108.27Z" fill="#263238"/>
  <path d="M139.965 108.27C142.63 108.27 144.79 106.11 144.79 103.445C144.79 100.78 142.63 98.6196 139.965 98.6196C137.3 98.6196 135.14 100.78 135.14 103.445C135.14 106.11 137.3 108.27 139.965 108.27Z" fill="#263238"/>
  <path d="M127.823 109.042L127.557 108.536C127.535 108.49 125.04 103.882 120.025 103.882C115.462 103.882 114.322 108.22 114.291 108.407L114.154 108.958L113.048 108.692L113.181 108.137C113.181 108.084 114.542 102.741 120.025 102.741C125.728 102.741 128.455 107.791 128.569 108.007L128.835 108.509L127.823 109.042Z" fill="#263238"/>
  <path d="M186.504 103.076L186.424 102.696C186.671 102.642 186.914 102.585 187.158 102.521L187.253 102.901C186.994 102.966 186.755 103.023 186.504 103.076Z" fill="#263238"/>
  <path d="M188.724 102.464L188.602 102.106C189.078 101.943 189.553 101.764 190.013 101.57L190.161 101.92C189.694 102.118 189.211 102.3 188.724 102.464ZM191.557 101.251L191.386 100.916C191.83 100.684 192.275 100.433 192.697 100.156L192.895 100.479C192.462 100.779 192.009 101.034 191.557 101.251ZM194.173 99.6425L193.948 99.3345C194.359 99.0341 194.754 98.7186 195.127 98.3954L195.378 98.6805C194.979 99.0265 194.599 99.3497 194.169 99.6577L194.173 99.6425ZM196.492 97.6197L196.214 97.3573C196.564 96.9771 196.895 96.5969 197.199 96.2167L197.5 96.4486C197.184 96.8669 196.846 97.2585 196.5 97.6349L196.492 97.6197ZM198.374 95.1862L198.051 94.9847C198.314 94.56 198.548 94.1179 198.751 93.6615L199.1 93.8174C198.885 94.2932 198.642 94.7554 198.37 95.2015L198.374 95.1862ZM199.633 92.365L199.252 92.2585C199.391 91.7815 199.494 91.2947 199.56 90.8022L199.941 90.8517C199.878 91.3687 199.773 91.8798 199.629 92.3802L199.633 92.365ZM200.055 89.3231H199.675V89.2129C199.675 88.7528 199.648 88.2851 199.602 87.8251L199.983 87.787C200.033 88.2607 200.058 88.7366 200.059 89.2129L200.055 89.3231ZM199.37 86.346C199.268 85.8557 199.141 85.371 198.99 84.8935L199.37 84.7794C199.526 85.2737 199.659 85.7756 199.751 86.2661L199.37 86.346ZM198.469 83.4828C198.287 83.0342 198.089 82.5741 197.846 82.1102L198.188 81.9391C198.42 82.4106 198.633 82.8821 198.819 83.3384L198.469 83.4828ZM197.138 80.7718C196.903 80.3574 196.644 79.9201 196.378 79.4715L196.701 79.2699C196.979 79.7224 197.241 80.1635 197.462 80.5855L197.138 80.7718ZM195.549 78.1901C195.272 77.7718 194.99 77.3498 194.701 76.9277L195.017 76.7148C195.306 77.1369 195.587 77.5589 195.865 77.9848L195.549 78.1901ZM193.838 75.673C193.553 75.2547 193.264 74.8327 192.983 74.4144L193.298 74.2015C193.58 74.6198 193.865 75.0418 194.15 75.4563L193.838 75.673ZM192.138 73.1407C191.861 72.7148 191.591 72.2813 191.325 71.8479L191.648 71.6502C191.914 72.0836 192.184 72.5095 192.458 72.9353L192.138 73.1407ZM190.553 70.5285C190.294 70.0684 190.055 69.6122 189.838 69.1749L190.18 69.0038C190.393 69.4373 190.633 69.8859 190.884 70.3422L190.553 70.5285ZM189.203 67.7909C189.002 67.3156 188.823 66.8327 188.656 66.3612L189.036 66.2395C189.195 66.6996 189.374 67.1749 189.572 67.6426L189.203 67.7909ZM188.215 64.8897C188.089 64.3954 187.979 63.8897 187.895 63.3688L188.275 63.308C188.359 63.7947 188.462 64.289 188.587 64.7757L188.215 64.8897ZM187.705 61.8479C187.667 61.3802 187.648 60.9088 187.648 60.4373V60.3118H188.028V60.4335C188.028 60.8935 188.028 61.3574 188.085 61.8137L187.705 61.8479ZM188.085 58.8061L187.705 58.7681C187.705 58.6654 187.724 58.5589 187.735 58.4487C187.781 58.0418 187.838 57.635 187.907 57.2472L188.287 57.3118C188.222 57.692 188.165 58.0913 188.119 58.4905C188.135 58.6084 188.135 58.711 188.104 58.8175L188.085 58.8061ZM188.614 55.8479L188.234 55.7453C188.374 55.2434 188.538 54.7529 188.72 54.2852L189.074 54.4221C188.901 54.8929 188.754 55.3726 188.633 55.8593L188.614 55.8479ZM207.56 53.6312C207.348 53.6312 207.127 53.6008 206.91 53.5704C206.614 53.5285 206.317 53.4791 206.024 53.4221L206.1 53.0419C206.382 53.0951 206.675 53.1445 206.964 53.1863C207.169 53.2129 207.378 53.232 207.579 53.2434L207.56 53.6312ZM209.123 53.5133L209.043 53.1331C209.521 53.0346 209.978 52.8572 210.397 52.6084L210.595 52.9316C210.147 53.2087 209.656 53.4092 209.142 53.5247L209.123 53.5133ZM189.709 53.0609L189.37 52.8821C189.613 52.4287 189.88 51.9894 190.173 51.5666L190.484 51.7833C190.207 52.1974 189.954 52.6278 189.728 53.0723L189.709 53.0609ZM204.538 53.038C204.047 52.8823 203.565 52.7008 203.093 52.4943L203.249 52.1445C203.706 52.3476 204.174 52.5241 204.652 52.673L204.538 53.038ZM211.762 51.8517L211.446 51.6388C211.717 51.246 211.877 50.7877 211.91 50.3118L212.291 50.3384C212.258 50.8839 212.08 51.4106 211.773 51.8631L211.762 51.8517ZM201.724 51.7947C201.279 51.5361 200.849 51.253 200.435 50.9468L200.659 50.6426C201.062 50.9396 201.481 51.2137 201.914 51.4639L201.724 51.7947ZM191.42 50.6084L191.138 50.3536C191.483 49.9707 191.85 49.6089 192.237 49.27L192.488 49.5552C192.115 49.8889 191.762 50.2444 191.431 50.6198L191.42 50.6084ZM199.249 49.9658C198.87 49.617 198.511 49.2476 198.173 48.8593L198.458 48.6084C198.787 48.9855 199.136 49.3447 199.503 49.6844L199.249 49.9658ZM211.625 48.9354C211.407 48.5009 211.106 48.1133 210.739 47.7947L210.99 47.5095C211.394 47.859 211.726 48.2839 211.967 48.7605L211.625 48.9354ZM193.671 48.635L193.454 48.3232C193.879 48.0328 194.32 47.765 194.773 47.5209L194.952 47.8555C194.515 48.0969 194.091 48.3609 193.682 48.6464L193.671 48.635ZM197.222 47.6464C197.078 47.4411 196.937 47.232 196.804 47.0152L196.31 47.2092L196.165 46.8593L196.602 46.6844C196.534 46.5704 196.465 46.4563 196.401 46.3422L196.732 46.1559C196.808 46.289 196.884 46.4221 196.964 46.5362C197.176 46.4601 197.393 46.3879 197.614 46.3194L197.724 46.6997C197.538 46.7567 197.344 46.8175 197.169 46.8822C197.287 47.0685 197.408 47.2624 197.549 47.4259L197.222 47.6464ZM209.515 46.9924C209.147 46.8091 208.766 46.654 208.374 46.5286L208.123 46.4487L208.233 46.0685L208.492 46.1521C208.899 46.282 209.296 46.4434 209.678 46.635L209.515 46.9924ZM199.18 46.3118L199.1 45.9316C199.591 45.8213 200.1 45.7301 200.621 45.6578L200.678 46.0381C200.176 46.1179 199.678 46.213 199.192 46.3232L199.18 46.3118ZM206.671 46.1065C206.195 46.0229 205.694 45.9582 205.18 45.9126L205.211 45.5324C205.739 45.578 206.252 45.6426 206.732 45.7301L206.671 46.1065ZM202.165 45.886L202.138 45.5057C202.591 45.4791 203.043 45.4639 203.492 45.4639H203.678V45.8441H203.496C203.066 45.8555 202.618 45.867 202.176 45.8974L202.165 45.886ZM195.739 44.9772C195.534 44.5133 195.359 44.0305 195.188 43.54L195.568 43.4221C195.728 43.9012 195.907 44.3727 196.104 44.8251L195.739 44.9772ZM194.777 42.0571C194.663 41.5666 194.568 41.0571 194.496 40.5362L194.876 40.4829C194.948 40.9848 195.04 41.4829 195.15 41.9658L194.777 42.0571ZM194.351 39.0153C194.332 38.6731 194.321 38.3232 194.321 37.9734C194.321 37.8099 194.321 37.6426 194.321 37.4791H194.701C194.701 37.6426 194.701 37.8023 194.701 37.9658C194.701 38.308 194.701 38.654 194.728 38.9848L194.351 39.0153ZM194.804 35.9734L194.424 35.9354C194.477 35.4335 194.549 34.9202 194.637 34.4145L195.017 34.4791C194.914 34.9848 194.842 35.4715 194.792 35.981L194.804 35.9734ZM195.325 33.0039L194.945 32.9126C195.066 32.4221 195.207 31.9278 195.363 31.4335L195.743 31.5514C195.572 32.0495 195.431 32.5324 195.313 33.0115L195.325 33.0039ZM196.237 30.1255L195.884 29.9887C196.07 29.5134 196.264 29.0381 196.496 28.578L196.838 28.7453C196.61 29.2016 196.408 29.6655 196.226 30.1484L196.237 30.1255ZM197.545 27.4145L197.214 27.2206C197.473 26.7833 197.751 26.3461 198.04 25.9278L198.351 26.1446C198.055 26.5628 197.785 26.9887 197.534 27.4221L197.545 27.4145ZM199.26 24.9392L198.964 24.6997C199.283 24.3195 199.625 23.9164 199.979 23.559L200.252 23.8214C199.895 24.1788 199.56 24.559 199.249 24.9468L199.26 24.9392ZM201.329 22.7491L201.074 22.4678C201.454 22.1294 201.834 21.7948 202.241 21.4716L202.477 21.7719C202.07 22.0951 201.682 22.4259 201.317 22.7567L201.329 22.7491ZM203.69 20.8708L203.473 20.5552C203.887 20.2701 204.321 19.9887 204.762 19.7225L204.956 20.0457C204.515 20.3157 204.104 20.5932 203.678 20.8784L203.69 20.8708ZM206.272 19.3005L206.093 18.9659C206.541 18.7263 207.005 18.4982 207.469 18.2853L207.629 18.6313C207.146 18.848 206.701 19.0761 206.26 19.3081L206.272 19.3005ZM209.021 18.0381L208.88 17.6807C209.359 17.4944 209.842 17.3005 210.321 17.1598L210.443 17.54C209.96 17.6845 209.481 17.8594 209.009 18.0457L209.021 18.0381Z" fill="#263238"/>
  <path d="M211.952 17.0761L211.857 16.6959C212.328 16.5742 212.617 16.521 212.617 16.521L212.686 16.9012C212.686 16.9012 212.412 16.9583 211.952 17.0761Z" fill="#263238"/>
  <path d="M218.675 14.6199C217.705 11.6161 211.211 12.6959 212.477 16.6237C213.743 20.5514 219.644 17.6275 218.675 14.6199Z" fill="#263238"/>
  <path d="M208.945 13.4183C208.994 12.0989 210.827 11.0837 213.42 11.5514C216.013 12.0191 218.451 13.7681 218.451 13.7681C218.451 13.7681 215.892 15.3195 213.272 15.6046C210.652 15.8898 208.895 14.7339 208.945 13.4183Z" fill="#EBEBEB"/>
  <path d="M218.45 13.7606C217.104 13.7606 215.762 13.7225 214.42 13.6807C213.077 13.6389 211.731 13.5705 210.389 13.464C211.735 13.464 213.081 13.4982 214.423 13.54C215.766 13.5819 217.112 13.6503 218.45 13.7606Z" fill="#263238"/>
  <path d="M211.549 12.2434C212.313 12.609 213.034 13.0592 213.697 13.5856C213.315 13.4062 212.944 13.203 212.587 12.9772C212.227 12.7531 211.88 12.508 211.549 12.2434Z" fill="#263238"/>
  <path d="M215.074 13.635C214.386 14.1925 213.64 14.6743 212.85 15.0723C213.541 14.5141 214.291 14.0322 215.085 13.635H215.074Z" fill="#263238"/>
  <path d="M215.465 12.8937C215.849 13.0779 216.185 13.3486 216.446 13.6845C216.255 13.594 216.074 13.4804 215.91 13.3461C215.745 13.2128 215.596 13.061 215.465 12.8937Z" fill="#263238"/>
  <path d="M211.416 21.232C212.226 22.2739 214.306 22.0229 216.135 20.1294C217.964 18.2358 218.933 15.3879 218.933 15.3879C218.933 15.3879 215.937 15.6161 213.652 16.9088C211.367 18.2016 210.603 20.1864 211.416 21.232Z" fill="#EBEBEB"/>
  <path d="M218.933 15.3879C217.838 16.1484 216.773 16.9925 215.705 17.81C214.636 18.6275 213.591 19.4716 212.568 20.3423C213.663 19.5818 214.728 18.7415 215.792 17.9241C216.857 17.1066 217.895 16.2625 218.933 15.3879Z" fill="#263238"/>
  <path d="M214.21 20.6427C214.414 20.2734 214.595 19.8925 214.754 19.5021C214.916 19.1105 215.053 18.7092 215.165 18.3005C214.961 18.6696 214.779 19.0505 214.621 19.4412C214.461 19.8334 214.324 20.2346 214.21 20.6427Z" fill="#263238"/>
  <path d="M216.272 17.464C215.382 17.4164 214.49 17.4636 213.61 17.6047C214.054 17.6313 214.498 17.6313 214.941 17.6047C215.387 17.5829 215.831 17.5359 216.272 17.464Z" fill="#263238"/>
  <path d="M217.005 17.8404C217.107 17.6526 217.186 17.4535 217.241 17.2472C217.297 17.0425 217.331 16.832 217.34 16.6199C217.138 16.9963 217.023 17.4135 217.005 17.8404Z" fill="#263238"/>
  <path d="M218.674 14.6199C218.459 14.6896 218.229 14.6941 218.012 14.6326C217.794 14.5712 217.6 14.4467 217.454 14.2749C217.307 14.103 217.215 13.8916 217.189 13.6674C217.163 13.4431 217.204 13.2161 217.306 13.0152C217.409 12.8142 217.57 12.6483 217.767 12.5384C217.964 12.4286 218.189 12.3797 218.414 12.3981C218.64 12.4164 218.854 12.5011 219.031 12.6414C219.208 12.7818 219.339 12.9715 219.408 13.1864C219.5 13.4738 219.475 13.7861 219.337 14.0548C219.2 14.3235 218.961 14.5267 218.674 14.6199Z" fill="#455A64"/>
  <path d="M219.374 16.7909C219.159 16.8603 218.929 16.8646 218.712 16.8031C218.495 16.7417 218.301 16.6172 218.154 16.4456C218.008 16.2739 217.916 16.0627 217.89 15.8386C217.863 15.6146 217.904 15.3878 218.007 15.1869C218.109 14.986 218.269 14.82 218.466 14.71C218.663 14.5999 218.888 14.5507 219.113 14.5685C219.338 14.5864 219.552 14.6705 219.729 14.8102C219.906 14.95 220.038 15.1391 220.108 15.3536C220.154 15.4962 220.171 15.6465 220.16 15.7959C220.148 15.9453 220.107 16.0909 220.038 16.2243C219.97 16.3578 219.877 16.4765 219.762 16.5738C219.648 16.671 219.516 16.7448 219.374 16.7909Z" fill="#455A64"/>
  <path d="M94.7177 15.8213C94.5355 17.5678 93.8716 19.2293 92.8 20.6203C91.7285 22.0114 90.2915 23.0774 88.6494 23.6993C87.0073 24.3212 85.2247 24.4745 83.5005 24.1423C81.7763 23.81 80.1784 23.0051 78.885 21.8175L74.1436 22.5133L76.5162 18.4145C75.9736 17.0808 75.7421 15.641 75.8393 14.2044C75.9364 12.7679 76.3597 11.3724 77.077 10.1239C77.7942 8.87543 78.7865 7.80683 79.9786 6.99928C81.1706 6.19172 82.5311 5.66646 83.9565 5.46338C85.3819 5.26029 86.8349 5.38474 88.2051 5.82726C89.5752 6.26978 90.8265 7.01873 91.8639 8.01723C92.9012 9.01573 93.6974 10.2375 94.1919 11.5898C94.6864 12.942 94.8662 14.3892 94.7177 15.8213Z" fill="white"/>
  <path d="M94.7176 15.8214C94.5393 17.5669 93.8813 19.229 92.8165 20.6237C92.2963 21.329 91.6689 21.9487 90.9572 22.4602C90.261 22.9908 89.4929 23.4197 88.6758 23.7339C87.8583 24.0559 86.9994 24.2607 86.1245 24.3423C85.6871 24.3815 85.2475 24.3904 84.8089 24.3689C84.3688 24.3576 83.9301 24.3118 83.4971 24.232C81.7497 23.9105 80.1263 23.1087 78.8089 21.9164L78.9192 21.9507L74.1854 22.6769L73.8394 22.7301L74.0143 22.4259L76.3717 18.3195V18.483C75.8154 17.1247 75.5789 15.6566 75.6804 14.1923C75.782 12.728 76.2188 11.3067 76.9572 10.0381C77.6947 8.77357 78.7086 7.69212 79.923 6.87464C81.1354 6.06802 82.5148 5.54637 83.9576 5.34882C85.4003 5.15127 86.8691 5.28294 88.2538 5.73396C89.6238 6.20003 90.8722 6.96651 91.9078 7.9773C92.941 8.98556 93.7311 10.2159 94.218 11.5751C94.7048 12.9342 94.8757 14.3864 94.7176 15.8214ZM94.7176 15.8214C94.8713 14.3934 94.6947 12.9493 94.2016 11.6004C93.7084 10.2515 92.9119 9.03402 91.8735 8.04189C90.835 7.04976 89.5825 6.30955 88.2125 5.87839C86.8426 5.44724 85.3919 5.33668 83.9724 5.55525C82.5672 5.76324 81.2286 6.29141 80.0599 7.09897C78.9012 7.91288 77.9334 8.96895 77.2234 10.194C76.5243 11.4218 76.1123 12.7919 76.0181 14.2016C75.9255 15.6209 76.1542 17.0427 76.6873 18.3613L76.7215 18.445L76.6758 18.5248L74.288 22.6161L74.1207 22.3651L78.866 21.6997H78.9306L78.9762 21.7415C80.2447 22.9221 81.8166 23.7265 83.5161 24.0647C83.9397 24.151 84.3694 24.2031 84.8013 24.2206C85.233 24.251 85.6662 24.251 86.0979 24.2206C86.9636 24.1509 87.8156 23.9628 88.6302 23.6617C89.4466 23.3644 90.2152 22.9494 90.9116 22.4297C91.6203 21.9224 92.2484 21.3109 92.7747 20.6161C93.8532 19.2282 94.5257 17.5685 94.7176 15.8214Z" fill="#263238"/>
  <path d="M80.6602 19.2548C80.6529 19.129 80.6716 19.0029 80.715 18.8846C80.7585 18.7662 80.8258 18.658 80.9128 18.5667C80.9998 18.4754 81.1046 18.403 81.2207 18.354C81.3369 18.3049 81.4619 18.2802 81.588 18.2815C81.8461 18.2815 82.0937 18.384 82.2763 18.5666C82.4588 18.7491 82.5614 18.9967 82.5614 19.2548C82.5614 19.513 82.4588 19.7606 82.2763 19.9431C82.0937 20.1257 81.8461 20.2282 81.588 20.2282C81.4619 20.2295 81.3369 20.2048 81.2207 20.1557C81.1046 20.1067 80.9998 20.0342 80.9128 19.943C80.8258 19.8517 80.7585 19.7435 80.715 19.6251C80.6716 19.5068 80.6529 19.3807 80.6602 19.2548ZM81.0405 17.0077L80.8199 9.46399H82.3408L82.1203 17.0077H81.0405Z" fill="#AFAFAF"/>
  <path d="M84.2769 19.2548C84.2697 19.1293 84.2882 19.0036 84.3314 18.8855C84.3746 18.7673 84.4416 18.6593 84.5282 18.5681C84.6148 18.4769 84.7191 18.4044 84.8348 18.3551C84.9505 18.3058 85.0751 18.2807 85.2009 18.2815C85.459 18.2815 85.7066 18.384 85.8892 18.5666C86.0717 18.7491 86.1743 18.9967 86.1743 19.2548C86.1743 19.513 86.0717 19.7606 85.8892 19.9431C85.7066 20.1257 85.459 20.2282 85.2009 20.2282C85.0751 20.229 84.9505 20.2039 84.8348 20.1546C84.7191 20.1053 84.6148 20.0328 84.5282 19.9416C84.4416 19.8504 84.3746 19.7423 84.3314 19.6242C84.2882 19.5061 84.2697 19.3804 84.2769 19.2548ZM84.6572 17.0077L84.448 9.46399H85.9689L85.7484 17.0077H84.6572Z" fill="#AFAFAF"/>
  <path d="M87.8888 19.2548C87.8814 19.129 87.9001 19.0029 87.9435 18.8846C87.987 18.7662 88.0543 18.658 88.1413 18.5667C88.2283 18.4754 88.3331 18.403 88.4493 18.354C88.5654 18.3049 88.6904 18.2802 88.8165 18.2815C89.0747 18.2815 89.3222 18.384 89.5048 18.5666C89.6873 18.7491 89.7899 18.9967 89.7899 19.2548C89.7899 19.513 89.6873 19.7606 89.5048 19.9431C89.3222 20.1257 89.0747 20.2282 88.8165 20.2282C88.6904 20.2295 88.5654 20.2048 88.4493 20.1557C88.3331 20.1067 88.2283 20.0342 88.1413 19.943C88.0543 19.8517 87.987 19.7435 87.9435 19.6251C87.9001 19.5068 87.8814 19.3807 87.8888 19.2548ZM88.269 17.0077L88.0484 9.46399H89.5693L89.3526 17.0077H88.269Z" fill="#AFAFAF"/>
</svg>