<svg width="124" height="120" viewBox="0 0 432 284" fill="none" xmlns="http://www.w3.org/2000/svg">
<path d="M424.497 66.7385L417.741 99.4582L413.392 95.2156L405.994 100.496L400.34 93.472L387.661 102.691L376.825 84.5702L364.74 91.6507L359.947 85.0432L344.6 93.6908L339.983 83.8007L350.741 31.6962L408.416 43.6052L424.497 66.7385Z" fill="#EBEBEB"/>
<path d="M408.415 43.6052L424.496 66.7385L404.49 62.6088L408.415 43.6052Z" fill="#DBDBDB"/>
<path d="M416.3 105.995L406.396 153.998L328.708 137.96L338.542 90.3447L343.159 100.228L358.513 91.5801L363.299 98.1876L375.392 91.1142L386.22 109.235L398.906 100.016L404.553 107.033L411.959 101.76L416.3 105.995Z" fill="#EBEBEB"/>
<path d="M305.11 100.369L225.94 105.268L219.65 3.64259L278.44 0L300.02 18.1071L305.11 100.369Z" fill="#EBEBEB"/>
<path d="M278.439 0L300.019 18.1071L279.632 19.3707L278.439 0Z" fill="#DBDBDB"/>
<path d="M256.52 68.3833L256.21 66.089C255.412 61.3381 256.711 56.0225 260.84 50.4668C264.568 45.5253 266.587 41.9957 266.361 37.986C266.107 33.468 263.107 30.6161 257.523 30.842C254.331 31.0077 251.266 32.1403 248.734 34.0893L246.298 28.6324C249.122 26.3382 254.064 24.6439 258.758 24.3969C268.945 23.8321 273.9 29.8607 274.288 36.5882C274.627 42.6098 271.507 47.1348 267.54 52.4222C263.897 57.2437 262.704 61.2181 263.219 65.7149L263.438 68.0162L256.52 68.3833ZM255.264 80.8852C255.08 77.6097 257.163 75.1814 260.262 75.0119C263.361 74.8425 265.62 77.0168 265.803 80.2993C265.973 83.3983 264.074 85.8973 260.798 86.0809C257.671 86.2574 255.412 83.9843 255.235 80.8852H255.264Z" fill="#DBDBDB"/>
<path d="M58.4934 51.0951L50.5305 47.4878L49.4222 49.9232C49.2586 50.2713 49.0032 50.5682 48.6836 50.7821C48.364 50.996 47.9922 51.1189 47.608 51.1374C47.1704 51.1518 46.7342 51.1942 46.302 51.2645C45.9227 51.3208 45.5352 51.2731 45.1808 51.1264C44.8265 50.9797 44.5186 50.7395 44.2901 50.4315L42.73 48.2502L35.6213 53.347L37.1814 55.5283C37.3984 55.8432 37.5261 56.2109 37.551 56.5924C37.5758 56.974 37.4969 57.3552 37.3226 57.6955C37.1213 58.0837 36.9399 58.4819 36.7791 58.8885C36.6392 59.2471 36.4043 59.5608 36.0996 59.7958C35.7949 60.0309 35.4318 60.1785 35.0495 60.2227L32.3882 60.4839L33.2424 69.188L35.9178 68.9198C36.3015 68.8891 36.6863 68.9636 37.0308 69.1353C37.3754 69.3069 37.6666 69.5692 37.8732 69.894C37.9862 70.0775 38.1062 70.254 38.2333 70.4305C38.3603 70.6069 38.4874 70.7764 38.6215 70.9458C38.8651 71.2422 39.0218 71.6003 39.0741 71.9804C39.1265 72.3605 39.0724 72.7477 38.918 73.0989L37.8027 75.5555L45.7726 79.1699L46.8809 76.7203C47.0461 76.3725 47.3029 76.0764 47.6238 75.8637C47.9447 75.651 48.3176 75.5298 48.7022 75.5131C49.1349 75.4953 49.5662 75.4529 49.994 75.3861C50.3734 75.3298 50.7609 75.3775 51.1152 75.5242C51.4696 75.6709 51.7774 75.9111 52.0059 76.2191L53.566 78.4004L60.6818 73.3036L59.1217 71.1223C58.898 70.8103 58.7662 70.4419 58.7413 70.0589C58.7163 69.6758 58.7992 69.2934 58.9805 68.9551C59.1772 68.5691 59.3539 68.1732 59.51 67.7691C59.6457 67.4079 59.8795 67.0918 60.185 66.8561C60.4905 66.6204 60.8557 66.4745 61.2395 66.4349L63.9149 66.1667L63.0537 57.4626L60.3782 57.7238C59.9969 57.7572 59.6138 57.6846 59.2712 57.514C58.9286 57.3433 58.6399 57.0812 58.4369 56.7566C58.3169 56.5731 58.1969 56.3966 58.0699 56.2201C57.9428 56.0436 57.8157 55.8672 57.6816 55.7048C57.4396 55.4047 57.2841 55.0443 57.2319 54.6624C57.1796 54.2805 57.2326 53.8916 57.3851 53.5376L58.4934 51.0951ZM53.9755 59.1497C54.801 60.3017 55.2663 61.6726 55.3127 63.0891C55.359 64.5056 54.9842 65.904 54.2357 67.1075C53.4872 68.3109 52.3987 69.2654 51.1077 69.8501C49.8167 70.4349 48.3814 70.6237 46.9831 70.3926C45.5848 70.1615 44.2865 69.521 43.2523 68.552C42.2181 67.583 41.4945 66.3291 41.1729 64.9488C40.8514 63.5685 40.9465 62.1239 41.4461 60.7976C41.9456 59.4713 42.8273 58.323 43.9795 57.4979C45.5242 56.3917 47.445 55.9443 49.3195 56.254C51.1941 56.5638 52.8688 57.6054 53.9755 59.1497Z" fill="#EBEBEB"/>
<path d="M418.446 166.585L413.137 169.649L414.076 171.272C414.217 171.505 414.286 171.774 414.278 172.045C414.269 172.317 414.182 172.581 414.027 172.804C413.865 173.058 413.709 173.319 413.568 173.595C413.452 173.838 413.269 174.043 413.04 174.186C412.811 174.329 412.546 174.403 412.276 174.399H410.413V180.534H412.29C412.56 180.531 412.825 180.605 413.054 180.747C413.283 180.89 413.466 181.095 413.582 181.339C413.723 181.614 413.879 181.875 414.041 182.129C414.196 182.353 414.283 182.616 414.292 182.888C414.3 183.16 414.231 183.428 414.091 183.661L413.152 185.285L418.46 188.349L419.406 186.718C419.543 186.487 419.742 186.298 419.98 186.173C420.218 186.049 420.486 185.993 420.754 186.012H421.658C421.926 185.994 422.194 186.05 422.432 186.174C422.67 186.299 422.869 186.487 423.006 186.718L423.952 188.356L429.254 185.292L428.315 183.661C428.181 183.427 428.116 183.16 428.126 182.891C428.136 182.621 428.221 182.36 428.371 182.136C428.534 181.882 428.689 181.614 428.83 181.346C428.946 181.102 429.13 180.897 429.358 180.754C429.587 180.612 429.852 180.538 430.122 180.541H432V174.407H430.108C429.838 174.41 429.573 174.336 429.344 174.193C429.115 174.051 428.932 173.845 428.816 173.602C428.675 173.334 428.52 173.065 428.357 172.811C428.207 172.587 428.122 172.326 428.112 172.057C428.102 171.787 428.167 171.521 428.301 171.286L429.24 169.656L423.938 166.592L422.992 168.201C422.855 168.433 422.657 168.621 422.418 168.746C422.18 168.871 421.912 168.927 421.644 168.907H421.192H420.74C420.471 168.925 420.203 168.869 419.964 168.745C419.724 168.62 419.524 168.432 419.385 168.201L418.446 166.585ZM421.192 172.444C422.187 172.443 423.16 172.736 423.987 173.288C424.815 173.84 425.46 174.625 425.841 175.544C426.223 176.462 426.323 177.473 426.129 178.449C425.935 179.425 425.457 180.321 424.753 181.024C424.05 181.728 423.154 182.207 422.178 182.4C421.202 182.594 420.191 182.494 419.272 182.113C418.354 181.731 417.569 181.086 417.017 180.258C416.465 179.431 416.172 178.458 416.173 177.463C416.172 176.803 416.301 176.15 416.553 175.54C416.805 174.931 417.174 174.376 417.641 173.91C418.107 173.443 418.66 173.072 419.27 172.82C419.879 172.567 420.532 172.437 421.192 172.437V172.444Z" fill="#EBEBEB"/>
<path d="M74.6025 25.011L69.7386 28.7383L70.861 30.2278C71.0285 30.44 71.1314 30.6959 71.1577 30.9649C71.184 31.234 71.1325 31.5049 71.0093 31.7455C70.8742 32.0203 70.7563 32.3032 70.6563 32.5926C70.5693 32.8476 70.4129 33.0732 70.2046 33.2441C69.9963 33.4149 69.7445 33.5243 69.4774 33.5598L67.6138 33.7998L68.4044 39.8778L70.2681 39.6378C70.5393 39.6 70.8158 39.6396 71.0656 39.752C71.3154 39.8644 71.5283 40.045 71.6799 40.2731C71.8499 40.5187 72.0338 40.7544 72.2305 40.9791C72.4124 41.1791 72.533 41.4271 72.5781 41.6936C72.6231 41.9602 72.5907 42.234 72.4847 42.4827L71.7788 44.2193L77.4262 46.57L78.1321 44.8334C78.2372 44.5843 78.4099 44.3696 78.6307 44.2136C78.8516 44.0577 79.1117 43.9667 79.3816 43.951L79.8334 43.9016L80.2781 43.831C80.5394 43.7818 80.8091 43.8051 81.058 43.8984C81.307 43.9918 81.5255 44.1516 81.69 44.3605L82.8407 45.8641L87.7045 42.1368L86.568 40.6473C86.4038 40.4321 86.3029 40.1754 86.2768 39.906C86.2506 39.6366 86.3001 39.3653 86.4197 39.1225C86.5535 38.8495 86.6714 38.569 86.7727 38.2824C86.8597 38.0275 87.0161 37.8019 87.2244 37.631C87.4327 37.4601 87.6845 37.3508 87.9516 37.3153L89.8152 37.0753L89.0246 30.9972L87.1609 31.2373C86.8903 31.2758 86.6144 31.2373 86.3646 31.1262C86.1149 31.015 85.9016 30.8358 85.7491 30.609C85.5726 30.3548 85.3891 30.1148 85.1914 29.903C85.0269 29.6988 84.9205 29.454 84.8833 29.1944C84.846 28.9348 84.8793 28.67 84.9796 28.4277L85.6855 26.6911L80.0381 24.3403L79.3322 26.0769C79.2258 26.3251 79.0527 26.5389 78.8321 26.6947C78.6116 26.8504 78.3522 26.942 78.0827 26.9593L77.6309 27.0017L77.2144 27.0158C76.9532 27.065 76.6834 27.0417 76.4345 26.9484C76.1856 26.855 75.967 26.6952 75.8025 26.4864L74.6025 25.011ZM78.0827 30.4678C79.066 30.3414 80.0648 30.509 80.953 30.9496C81.8411 31.3902 82.5789 32.0839 83.0733 32.9433C83.5677 33.8027 83.7964 34.7892 83.7308 35.7785C83.6651 36.7677 83.3079 37.7154 82.7043 38.5019C82.1006 39.2884 81.2776 39.8785 80.339 40.1977C79.4003 40.517 78.3882 40.5512 77.4302 40.2959C76.4722 40.0406 75.6112 39.5073 74.956 38.7633C74.3007 38.0192 73.8805 37.0978 73.7483 36.1152C73.6601 35.4595 73.7024 34.7928 73.8727 34.1535C74.0431 33.5142 74.3382 32.9149 74.741 32.3901C75.1438 31.8652 75.6464 31.4252 76.2199 31.0953C76.7934 30.7654 77.4265 30.5521 78.0827 30.4678Z" fill="#EBEBEB"/>
<path d="M38.2614 184.282C38.5266 177.458 38.4324 170.625 37.9791 163.811C36.969 149.739 34.8231 135.773 31.5622 122.048C29.7691 114.325 27.5666 106.729 25.2653 99.1405C25.1947 98.9075 24.8276 98.971 24.8911 99.2111C31.9998 125.966 37.8308 153.568 37.4284 181.381C37.3155 189.146 36.4119 196.806 35.6777 204.543C35.6777 204.747 35.9954 204.832 36.0448 204.62C37.5061 197.977 37.9861 191.045 38.2614 184.282Z" fill="#EBEBEB"/>
<path d="M24.8907 99.1899C24.8907 99.1899 14.1324 126.509 16.5396 132.905C18.9468 139.301 23.9166 140.67 23.9166 140.67C23.9166 140.67 17.3303 150.073 21.9329 158.89C26.5356 167.707 36.7574 167.291 37.4633 177.287C37.4422 177.336 38.0069 135.538 24.8907 99.1899Z" fill="#EBEBEB"/>
<path d="M36.2702 160.076C36.2876 160.031 36.2876 159.981 36.2702 159.935C34.8582 141.284 31.3585 122.85 25.8366 104.979C25.8366 104.929 25.7307 104.943 25.7448 104.979C27.8767 112.979 29.7592 121.013 31.3922 129.079C29.9459 127.709 28.1789 126.724 26.2531 126.213C26.2531 126.213 26.1966 126.255 26.2531 126.27C28.2762 127.011 30.0953 128.22 31.5617 129.799C31.8723 131.388 32.1829 132.969 32.4723 134.557C30.0651 131.868 26.7331 130.533 23.3941 129.263C23.3865 129.266 23.3801 129.271 23.3756 129.278C23.3711 129.285 23.3687 129.293 23.3687 129.302C23.3687 129.31 23.3711 129.318 23.3756 129.325C23.3801 129.332 23.3865 129.337 23.3941 129.34C26.8743 130.752 30.3334 132.573 32.6912 135.574C33.51 140.106 34.2301 144.654 34.8513 149.219C33.1132 147.398 30.8841 146.121 28.4344 145.541C28.3568 145.541 28.3144 145.633 28.3921 145.654C30.9085 146.395 33.1552 147.852 34.8584 149.848H34.9007C35.1125 151.448 35.3149 153.055 35.5078 154.669C34.1632 153.531 32.6451 152.616 31.0111 151.958C30.9687 151.958 30.9405 152.008 31.0111 152.022C32.6786 152.744 34.2056 153.755 35.5219 155.008C35.5219 155.008 35.5572 155.008 35.5784 155.008C35.7549 156.54 35.9314 158.072 36.0867 159.604C33.6626 156.673 30.5167 154.425 26.959 153.081C26.944 153.081 26.9297 153.087 26.9191 153.097C26.9085 153.108 26.9025 153.122 26.9025 153.137C26.9025 153.152 26.9085 153.167 26.9191 153.177C26.9297 153.188 26.944 153.194 26.959 153.194C30.472 154.742 33.5578 157.118 35.9526 160.119C35.9789 160.152 36.0145 160.176 36.0547 160.189C36.095 160.201 36.138 160.201 36.1784 160.189C36.4114 162.54 36.6232 164.891 36.7926 167.249C36.7926 167.284 36.8491 167.284 36.8491 167.249C36.6655 164.881 36.4726 162.491 36.2702 160.076Z" fill="white"/>
<path d="M27.6229 123.523C25.6746 122.311 23.4488 121.616 21.1566 121.504C21.1454 121.504 21.1346 121.509 21.1267 121.517C21.1187 121.525 21.1143 121.536 21.1143 121.547C21.1143 121.558 21.1187 121.569 21.1267 121.577C21.1346 121.585 21.1454 121.589 21.1566 121.589C23.3727 122.009 25.5234 122.721 27.5523 123.707C27.637 123.728 27.7006 123.58 27.6229 123.523Z" fill="white"/>
<path d="M28.9287 152.445C27.4312 151.586 25.7823 151.022 24.0719 150.786C24.0154 150.786 24.0084 150.864 24.0719 150.878C25.7421 151.213 27.3576 151.778 28.8722 152.558C28.9357 152.593 28.9922 152.48 28.9287 152.445Z" fill="white"/>
<path d="M66.5547 133.378C62.0035 136.524 57.8236 140.176 54.095 144.264C50.2498 148.592 47.2839 153.627 45.3627 159.088C41.2739 170.466 39.0752 182.437 38.854 194.526C38.7169 201.22 39.3589 207.908 40.7671 214.454C40.7785 214.502 40.8078 214.543 40.8489 214.57C40.89 214.596 40.9397 214.606 40.9878 214.597C41.0359 214.588 41.0786 214.561 41.1072 214.521C41.1358 214.481 41.148 214.432 41.1413 214.383C39.389 202.832 39.4557 191.077 41.3389 179.546C43.1884 168.251 46.0898 155.954 53.2762 146.77C57.187 141.765 62.065 137.833 66.8865 133.766C67.1406 133.541 66.8159 133.195 66.5547 133.378Z" fill="#EBEBEB"/>
<path d="M40.436 186.379C43.0267 182.189 46.0711 178.297 49.5143 174.774C54.9005 169.387 59.4326 165.561 60.1385 162.003C60.8444 158.445 54.7452 155.819 54.7452 155.819C54.7452 155.819 62.1928 157.161 64.2329 154.033C66.273 150.906 67.2543 132.792 67.2543 132.792C67.2543 132.792 53.7004 142.47 47.3824 156.038C41.0643 169.606 40.436 186.379 40.436 186.379Z" fill="#EBEBEB"/>
<path d="M62.3901 149.784C61.4977 149.651 60.5929 149.62 59.6935 149.692C59.5876 149.692 59.5947 149.876 59.6935 149.883C60.583 149.883 61.4795 149.84 62.369 149.883C62.3791 149.88 62.3884 149.875 62.3956 149.867C62.4029 149.859 62.4079 149.85 62.4101 149.84C62.4123 149.83 62.4116 149.819 62.4081 149.809C62.4046 149.799 62.3983 149.79 62.3901 149.784Z" fill="white"/>
<path d="M52.6547 167.354C51.2234 167.384 49.8086 167.666 48.4756 168.188C48.4756 168.188 48.4756 168.258 48.4756 168.251C49.8874 167.919 51.2499 167.785 52.6476 167.545C52.6659 167.537 52.6815 167.524 52.6927 167.508C52.7039 167.491 52.7102 167.472 52.711 167.452C52.7117 167.432 52.7068 167.412 52.6969 167.395C52.6869 167.378 52.6723 167.364 52.6547 167.354Z" fill="white"/>
<path d="M49.7325 161.283C49.1383 161.279 48.545 161.331 47.9606 161.439C47.9498 161.443 47.9405 161.45 47.9339 161.459C47.9273 161.469 47.9238 161.48 47.9238 161.492C47.9238 161.503 47.9273 161.515 47.9339 161.524C47.9405 161.533 47.9498 161.541 47.9606 161.545C48.5524 161.579 49.1461 161.553 49.7325 161.467C49.7569 161.467 49.7802 161.457 49.7974 161.44C49.8146 161.423 49.8243 161.4 49.8243 161.375C49.8243 161.351 49.8146 161.328 49.7974 161.31C49.7802 161.293 49.7569 161.283 49.7325 161.283Z" fill="white"/>
<path d="M0.699171 152.593C5.11065 154.089 9.33802 156.081 13.3 158.53C17.4109 161.143 20.9758 164.528 23.7971 168.498C29.7333 176.761 34.2782 185.939 37.2521 195.669C38.9107 201.057 39.9342 206.619 40.3018 212.244C40.294 212.281 40.274 212.313 40.2451 212.337C40.2162 212.36 40.1801 212.373 40.1429 212.373C40.1057 212.373 40.0696 212.36 40.0407 212.337C40.0118 212.313 39.9918 212.281 39.9841 212.244C38.738 202.492 35.9701 192.994 31.7812 184.099C27.6656 175.381 22.4771 166.105 14.5424 160.33C10.2221 157.189 5.36536 155.128 0.522689 152.954C0.268554 152.869 0.445037 152.509 0.699171 152.593Z" fill="#EBEBEB"/>
<path d="M34.0893 189.45C31.0224 186.66 27.6585 184.214 24.058 182.158C18.453 179.045 13.8997 176.998 12.509 174.28C11.1184 171.562 15.4457 168.032 15.4457 168.032C15.4457 168.032 9.72769 170.856 7.35577 168.773C4.98385 166.691 0 152.29 0 152.29C0 152.29 13.2079 156.984 21.4461 166.507C29.6843 176.03 34.0893 189.45 34.0893 189.45Z" fill="#EBEBEB"/>
<path d="M23.1259 176.193C21.8273 176.102 20.5234 176.263 19.2856 176.666C19.2856 176.666 19.2856 176.729 19.2856 176.722C20.5485 176.506 21.8243 176.373 23.1047 176.327C23.1965 176.327 23.2177 176.2 23.1259 176.193Z" fill="white"/>
<path d="M11.6054 161.086C11.0131 161.037 10.4169 161.071 9.83355 161.185C9.77002 161.185 9.7912 161.298 9.83355 161.291C10.4195 161.227 10.9913 161.248 11.5701 161.234C11.5881 161.235 11.6058 161.229 11.6201 161.218C11.6345 161.208 11.6446 161.192 11.6488 161.174C11.6529 161.157 11.6509 161.139 11.643 161.122C11.6351 161.106 11.6218 161.093 11.6054 161.086Z" fill="white"/>
<path d="M51.1234 230.45H21.312L25.5617 199.312L26.6488 191.328H45.7865L46.8737 199.312L51.1234 230.45Z" fill="#DBDBDB"/>
<path d="M46.874 199.312H25.562L26.6491 191.328H45.7869L46.874 199.312Z" fill="#C7C7C7"/>
<path d="M48.5188 188.56H23.9102V195.323H48.5188V188.56Z" fill="#DBDBDB"/>
<path d="M2.35791 230.45L56.0155 230.281L109.673 230.217L216.988 230.097L324.304 230.217L377.961 230.281L431.619 230.45L377.961 230.627L324.304 230.683L216.988 230.803L109.673 230.683L56.0155 230.62L2.35791 230.45Z" fill="#263238"/>
<path d="M218.4 283.063C330.193 283.063 420.818 273.133 420.818 260.883C420.818 248.633 330.193 238.703 218.4 238.703C106.608 238.703 15.9824 248.633 15.9824 260.883C15.9824 273.133 106.608 283.063 218.4 283.063Z" fill="#EBEBEB"/>
<path d="M171.28 257.212C169.635 257.77 122.472 257.918 120.665 256.803C119.959 256.379 119.556 249.51 119.253 241.195C119.189 239.401 119.14 237.545 119.098 235.667L115.335 210.508L146.869 210.303L149.841 235.469L149.721 241.004C149.721 241.004 167.807 249.016 169.656 250.47C171.506 251.925 172.925 256.654 171.28 257.212Z" fill="#EB9481"/>
<path d="M171.279 257.212C169.635 257.77 122.472 257.918 120.664 256.803C119.831 256.28 119.38 246.249 119.125 235.667L149.805 235.469L149.685 241.004C149.685 241.004 167.771 249.016 169.621 250.47C171.47 251.925 172.924 256.654 171.279 257.212Z" fill="white"/>
<path d="M171.28 257.212C169.635 257.77 122.472 257.918 120.665 256.803C119.959 256.379 119.556 249.51 119.253 241.194L149.657 241.004C149.657 241.004 167.743 249.016 169.593 250.47C171.442 251.925 172.925 256.654 171.28 257.212Z" fill="#A6A6A6"/>
<path d="M170.595 255.327C162.689 255.158 130.781 255.236 122.952 255.673C122.888 255.673 122.888 255.716 122.952 255.723C130.788 256.054 162.696 255.723 170.595 255.454C170.764 255.447 170.764 255.327 170.595 255.327Z" fill="#263238"/>
<path d="M166.578 248.783C165.699 248.764 164.825 248.927 164.013 249.262C163.2 249.597 162.465 250.098 161.856 250.732C160.745 251.863 160.117 253.382 160.105 254.967C160.105 255.017 160.19 255.017 160.197 254.967C160.459 253.405 161.22 251.97 162.365 250.876C163.51 249.782 164.978 249.088 166.55 248.896C166.565 248.9 166.581 248.898 166.594 248.89C166.607 248.882 166.617 248.869 166.621 248.854C166.624 248.839 166.622 248.823 166.614 248.81C166.606 248.797 166.593 248.787 166.578 248.783Z" fill="#263238"/>
<path d="M152.749 241.78C149.586 241.745 145.922 242.875 143.96 245.472C143.889 245.571 144.031 245.677 144.122 245.628C146.885 244.169 149.796 243.01 152.805 242.169C152.852 242.156 152.892 242.127 152.919 242.086C152.945 242.046 152.956 241.997 152.949 241.949C152.942 241.902 152.918 241.858 152.881 241.827C152.844 241.796 152.797 241.779 152.749 241.78Z" fill="#263238"/>
<path d="M155.205 242.719C152.036 242.719 148.372 243.821 146.416 246.411C146.339 246.517 146.48 246.623 146.579 246.574C149.338 245.11 152.247 243.948 155.255 243.108C155.301 243.095 155.34 243.066 155.367 243.027C155.393 242.987 155.404 242.939 155.398 242.892C155.392 242.845 155.37 242.801 155.334 242.77C155.299 242.738 155.253 242.72 155.205 242.719Z" fill="#263238"/>
<path d="M157.648 243.665C154.486 243.665 150.822 244.76 148.859 247.357C148.789 247.456 148.93 247.562 149.022 247.513C151.785 246.054 154.696 244.895 157.705 244.054C157.751 244.041 157.792 244.012 157.818 243.971C157.844 243.931 157.855 243.882 157.848 243.834C157.841 243.787 157.817 243.743 157.78 243.712C157.743 243.681 157.696 243.664 157.648 243.665Z" fill="#263238"/>
<path d="M160.098 244.611C156.929 244.576 153.265 245.705 151.309 248.303C151.232 248.402 151.38 248.508 151.472 248.459C154.234 246.999 157.145 245.839 160.155 245C160.201 244.987 160.241 244.958 160.268 244.917C160.294 244.877 160.305 244.828 160.298 244.78C160.291 244.733 160.267 244.689 160.23 244.658C160.193 244.627 160.146 244.61 160.098 244.611Z" fill="#263238"/>
<path d="M124.943 248.155C121.413 248.155 121.413 253.696 124.943 253.675C128.472 253.654 128.501 248.134 124.943 248.155Z" fill="#263238"/>
<path d="M156.145 233.323C154.542 231.996 152.523 233.323 151.542 234.686C149.909 237.094 148.935 239.888 148.718 242.79C148.718 242.854 148.768 242.882 148.817 242.882C148.83 242.942 148.856 242.997 148.895 243.045C148.934 243.092 148.983 243.129 149.039 243.153C149.095 243.178 149.156 243.188 149.217 243.184C149.278 243.18 149.337 243.161 149.389 243.129C151.634 241.569 154.232 240.171 155.933 237.961C156.9 236.677 157.691 234.559 156.145 233.323ZM152.29 240.058C151.203 240.856 150.081 241.597 149.022 242.437C149.587 240.856 150.074 239.26 150.794 237.736C151.126 237.004 151.508 236.297 151.937 235.618C152.643 234.566 155.721 231.912 156.046 235.35C156.229 237.234 153.582 239.112 152.29 240.058Z" fill="#263238"/>
<path d="M140.84 243.99C143.593 244.399 146.438 243.609 149.142 243.178C149.201 243.163 149.255 243.134 149.301 243.094C149.346 243.054 149.382 243.004 149.404 242.947C149.427 242.891 149.436 242.83 149.431 242.77C149.426 242.709 149.407 242.651 149.375 242.599C149.385 242.591 149.394 242.581 149.399 242.57C149.405 242.558 149.408 242.545 149.408 242.532C149.408 242.519 149.405 242.506 149.399 242.495C149.394 242.483 149.385 242.473 149.375 242.465C147.203 240.528 144.559 239.196 141.709 238.604C140.043 238.286 137.685 238.745 137.473 240.813C137.219 242.762 139.231 243.736 140.84 243.99ZM138.92 242.197C136.802 239.486 140.847 239.253 142.062 239.536C142.849 239.733 143.623 239.983 144.377 240.284C145.921 240.924 147.431 241.643 148.902 242.437C147.561 242.571 146.241 242.811 144.906 242.995C143.311 243.206 140.106 243.686 138.92 242.197Z" fill="#263238"/>
<path d="M68.9692 94.2203C68.9692 94.2203 105.586 156.511 106.567 160.888C108.071 167.609 116.041 233.973 116.041 233.973L154.161 233.267C154.161 233.267 147.596 174.753 141.376 155.474C136.901 141.588 104.583 95.5334 104.583 95.5334L68.9692 94.2203Z" fill="#37474F"/>
<path d="M150.695 227.45C145.224 227.408 125.832 227.189 118.547 227.867C118.49 227.867 118.497 227.965 118.547 227.972C121.053 228.333 145.217 227.775 150.688 227.598C150.699 227.602 150.711 227.604 150.723 227.602C150.735 227.601 150.747 227.597 150.757 227.59C150.767 227.583 150.775 227.574 150.781 227.564C150.787 227.553 150.791 227.541 150.791 227.529C150.792 227.517 150.79 227.505 150.785 227.494C150.78 227.483 150.772 227.473 150.763 227.465C150.753 227.457 150.742 227.452 150.731 227.449C150.719 227.447 150.706 227.447 150.695 227.45Z" fill="#263238"/>
<path d="M75.2167 99.9383C77.6168 103.701 80.1582 107.386 82.6007 111.12C85.0432 114.855 87.4998 118.589 89.9212 122.316C94.7497 129.846 99.4559 137.425 104.04 145.054C106.277 148.59 108.191 152.321 109.758 156.201C111.188 160.081 112.263 164.084 112.97 168.159C113.718 172.247 114.212 176.376 114.671 180.506C115.142 184.897 115.633 189.29 116.146 193.686C117.149 202.679 118.154 211.673 119.161 220.666C119.281 221.767 119.401 222.869 119.514 223.977C119.514 224.139 119.238 224.168 119.217 223.977C118.095 215.047 117.163 206.082 116.146 197.152C115.638 192.695 115.132 188.24 114.629 183.788C114.156 179.645 113.704 175.494 113.062 171.378C112.472 167.316 111.575 163.304 110.379 159.377C109.061 155.312 107.295 151.405 105.113 147.73C100.701 140.113 96.0275 132.63 91.3542 125.14C86.681 117.65 81.8807 110.097 76.9533 102.698C76.3462 101.788 75.732 100.877 75.0967 99.9806C75.0473 99.9312 75.1743 99.8677 75.2167 99.9383Z" fill="#263238"/>
<path d="M80.9702 260.883C79.2336 260.777 34.3789 242.606 33.1365 240.884C33.0811 240.783 33.0566 240.667 33.0659 240.552C33.0659 239.006 36.179 233.613 38.7768 226.525C38.9392 226.074 40.0969 223.97 41.6994 221.139C46.1538 213.381 53.919 200.018 53.919 200.018L83.2362 211.666L69.2024 232.667L67.021 237.75C67.021 237.75 80.7796 251.974 81.9373 253.986C83.095 255.998 82.6997 260.982 80.9702 260.883Z" fill="#EB9481"/>
<path d="M80.9702 260.883C79.2336 260.777 34.3789 242.606 33.1365 240.884C33.0811 240.783 33.0566 240.667 33.0659 240.552C33.0659 239.006 36.179 233.613 38.7768 226.525C38.9392 226.074 40.0969 223.97 41.6994 221.139L69.2306 232.667L67.0493 237.75C67.0493 237.75 80.8078 251.974 81.9655 253.986C83.1233 255.998 82.6997 260.982 80.9702 260.883Z" fill="white"/>
<path d="M80.97 260.883C79.2334 260.777 34.3787 242.606 33.1363 240.884C32.6563 240.227 34.6611 234.107 38.7837 226.525L67.0209 237.757C67.0209 237.757 80.7794 251.967 81.9442 253.993C83.109 256.019 82.6995 260.982 80.97 260.883Z" fill="#A6A6A6"/>
<path d="M81.0403 258.878C73.7763 255.758 44.1697 243.856 36.7503 241.329C36.6868 241.329 36.6727 241.329 36.7503 241.371C43.8873 244.618 73.5857 256.28 81.0121 259.019C81.1532 259.054 81.1956 258.942 81.0403 258.878Z" fill="#263238"/>
<path d="M79.7699 251.303C78.9645 250.95 78.0943 250.767 77.2145 250.767C76.3347 250.767 75.4645 250.95 74.659 251.303C73.2108 251.938 72.0628 253.106 71.4541 254.565C71.4541 254.607 71.5176 254.642 71.5388 254.6C72.371 253.247 73.6195 252.199 75.0971 251.615C76.5747 251.031 78.2019 250.941 79.7346 251.36C79.7465 251.357 79.7567 251.349 79.7632 251.339C79.7698 251.328 79.7722 251.316 79.7699 251.303Z" fill="#263238"/>
<path d="M69.5835 239.627C66.668 238.406 62.8419 238.081 60.0535 239.754C59.9476 239.818 60.0535 239.966 60.1453 239.959C63.2537 239.644 66.3868 239.66 69.4918 240.009C69.5395 240.014 69.5876 240.001 69.6269 239.974C69.6662 239.946 69.6941 239.905 69.7053 239.858C69.7166 239.812 69.7104 239.762 69.688 239.72C69.6656 239.677 69.6284 239.644 69.5835 239.627Z" fill="#263238"/>
<path d="M71.4966 241.42C68.5811 240.199 64.755 239.874 61.9666 241.547C61.8607 241.611 61.9666 241.759 62.0584 241.752C65.1666 241.433 68.3002 241.45 71.4049 241.802C71.4526 241.807 71.5007 241.794 71.54 241.767C71.5793 241.739 71.6072 241.698 71.6184 241.651C71.6297 241.605 71.6235 241.555 71.6011 241.513C71.5787 241.47 71.5415 241.438 71.4966 241.42Z" fill="#263238"/>
<path d="M73.4174 243.214C70.4949 241.992 66.6687 241.668 63.8874 243.341C63.7744 243.404 63.8874 243.552 63.9721 243.545C67.0803 243.226 70.2139 243.243 73.3186 243.595C73.3673 243.603 73.4174 243.593 73.4588 243.566C73.5003 243.539 73.5302 243.497 73.5426 243.449C73.555 243.402 73.549 243.351 73.5258 243.307C73.5027 243.263 73.464 243.23 73.4174 243.214Z" fill="#263238"/>
<path d="M75.33 245.007C72.4075 243.785 68.5884 243.461 65.8 245.127C65.687 245.197 65.8 245.345 65.8847 245.338C68.9929 245.02 72.1265 245.036 75.2312 245.388C75.2799 245.396 75.33 245.386 75.3714 245.359C75.4129 245.332 75.4428 245.29 75.4552 245.242C75.4676 245.195 75.4616 245.144 75.4384 245.1C75.4153 245.057 75.3766 245.023 75.33 245.007Z" fill="#263238"/>
<path d="M41.4102 235.102C38.1135 233.789 36.0663 238.921 39.3771 240.234C42.6879 241.547 44.7421 236.415 41.4102 235.102Z" fill="#263238"/>
<path d="M75.9017 233.062C74.9063 231.234 72.5556 231.686 71.1225 232.596C68.7085 234.214 66.7612 236.436 65.4751 239.041C65.4694 239.053 65.4664 239.065 65.4663 239.078C65.4662 239.091 65.469 239.104 65.4744 239.115C65.4798 239.127 65.4878 239.137 65.4977 239.145C65.5076 239.153 65.5192 239.158 65.5316 239.161C65.5316 239.394 65.6869 239.67 65.9622 239.613C68.6377 238.999 71.5673 238.681 73.9674 237.27C75.344 236.451 76.8405 234.792 75.9017 233.062ZM69.7954 237.855C68.4894 238.187 67.1764 238.456 65.8845 238.837C66.9531 237.549 68.0864 236.317 69.28 235.145C69.8677 234.585 70.4927 234.066 71.1508 233.592C72.1744 232.886 76.0428 231.58 75.0545 234.891C74.511 236.719 71.3555 237.46 69.7954 237.855Z" fill="#263238"/>
<path d="M57.7094 237.206C60.1096 238.618 63.0392 238.95 65.7076 239.571C65.9829 239.634 66.1665 239.359 66.1453 239.119C66.1585 239.118 66.1712 239.113 66.182 239.105C66.1929 239.097 66.2015 239.087 66.2072 239.075C66.2129 239.063 66.2154 239.05 66.2144 239.036C66.2134 239.023 66.2091 239.01 66.2017 238.999C64.9177 236.388 62.9702 234.161 60.5543 232.54C59.1425 231.622 56.7776 231.163 55.7752 232.985C54.7728 234.806 56.3046 236.38 57.7094 237.206ZM56.6082 234.82C55.6269 231.509 59.4884 232.822 60.512 233.535C61.1692 234.011 61.792 234.532 62.3756 235.095C63.567 236.27 64.6979 237.505 65.7641 238.794C64.4722 238.413 63.1592 238.138 61.8532 237.806C60.2719 237.383 57.1447 236.677 56.6082 234.82Z" fill="#263238"/>
<path d="M71.4827 231.495L38.6641 218.245C38.6641 218.245 79.3538 158.417 79.6503 153.963C79.9185 150.024 62.0444 115.702 61.3455 105.699C60.5831 94.898 65.7788 86.5468 71.4968 81.3583L105.346 95.7522C105.346 95.7522 101.774 101.463 96.169 104.647C96.169 104.647 113.528 144.32 112.539 156.518C111.551 168.717 71.4827 231.495 71.4827 231.495Z" fill="#37474F"/>
<path d="M72.9364 225.255C68.1926 223.215 69.5833 223.73 64.8112 221.725C62.4816 220.751 47.163 214.376 44.8052 213.847C44.7558 213.847 44.7205 213.918 44.7699 213.946C46.81 215.195 62.2557 221.302 64.6065 222.233C69.4139 224.125 68.0514 223.532 72.88 225.368C72.8872 225.377 72.8967 225.385 72.9077 225.39C72.9187 225.395 72.9308 225.397 72.9428 225.396C72.9548 225.395 72.9663 225.39 72.9762 225.384C72.9862 225.377 72.9942 225.368 72.9996 225.357C73.005 225.346 73.0075 225.334 73.007 225.322C73.0064 225.31 73.0028 225.298 72.9965 225.288C72.9902 225.278 72.9813 225.27 72.9708 225.264C72.9603 225.258 72.9485 225.255 72.9364 225.255Z" fill="#263238"/>
<path d="M101.717 103.92C98.1934 104.741 94.7454 105.861 91.4109 107.266C91.3974 107.27 91.385 107.278 91.3744 107.287C91.3637 107.297 91.3551 107.308 91.3488 107.321C91.3426 107.334 91.339 107.347 91.3381 107.362C91.3372 107.376 91.3392 107.39 91.3438 107.403C91.3484 107.417 91.3557 107.429 91.3651 107.44C91.3745 107.451 91.386 107.459 91.3987 107.465C91.4115 107.472 91.4254 107.475 91.4396 107.476C91.4538 107.477 91.468 107.475 91.4815 107.471C94.9405 106.461 98.456 105.515 101.859 104.322C102.12 104.23 101.986 103.863 101.717 103.92Z" fill="#263238"/>
<path d="M97.6861 102.55C97.3571 103.135 97.0671 103.741 96.8178 104.364C96.5741 104.837 96.4232 105.352 96.373 105.882C96.373 105.988 96.5142 106.009 96.5778 105.946C96.9319 105.522 97.2178 105.046 97.4249 104.534C97.7143 103.976 98.0108 103.425 98.2861 102.854C98.4767 102.437 97.9049 102.169 97.6861 102.55Z" fill="#263238"/>
<path d="M98.1101 99.3454C98.3218 98.823 98.5266 98.3077 98.7454 97.7853C98.9642 97.2629 99.2395 96.7264 99.4513 96.1758C99.4513 96.0911 99.6208 96.1758 99.5855 96.2393C99.3737 96.7617 99.2396 97.3123 99.0772 97.8488C98.9148 98.3853 98.7313 98.9218 98.5548 99.4583C98.223 100.454 97.8489 101.442 97.39 102.409C97.9455 102.437 98.5002 102.34 99.0137 102.127C99.5381 101.791 99.9414 101.296 100.164 100.715C100.461 100.136 100.736 99.5431 101.04 98.9642C101.413 98.3384 101.728 97.679 101.979 96.9947C101.979 96.9099 102.148 96.9947 102.113 97.0582C101.652 98.5051 101.049 99.9026 100.313 101.23C99.9949 101.746 99.7478 102.289 99.169 102.487C98.5424 102.662 97.8866 102.708 97.2418 102.621C97.1571 102.621 97.0582 102.621 97.0865 102.494C97.3755 101.428 97.7171 100.377 98.1101 99.3454Z" fill="#263238"/>
<path d="M96.6694 105.939C97.8765 108.487 98.9354 111.028 100.058 113.57C101.18 116.111 102.176 118.568 103.185 121.095C105.204 126.192 107.011 131.387 108.6 136.625C109.383 139.223 110.11 141.842 110.76 144.482C111.475 147.114 111.999 149.794 112.327 152.502C112.61 155.205 112.37 157.937 111.621 160.549C110.842 163.132 109.843 165.642 108.635 168.053C107.894 169.578 107.647 169.373 108 168.604C109.009 166.416 111.656 159.787 111.466 154.217C111.311 151.551 110.9 148.905 110.237 146.318C109.621 143.649 108.927 141.002 108.155 138.376C106.651 133.195 104.865 128.119 103.03 123.05C101.999 120.227 100.912 117.403 99.8531 114.579C98.7943 111.756 97.7354 109.158 96.5494 106.038C96.5141 105.911 96.6341 105.861 96.6694 105.939Z" fill="#263238"/>
<path d="M71.7578 97.517C72.3438 97.2981 73.1697 97.6581 73.7627 97.757C74.5307 97.8873 75.3066 97.9651 76.0852 97.9899C76.8555 98.0171 77.6268 97.9911 78.3936 97.9123C79.1658 97.8923 79.9225 97.6917 80.6031 97.3264C81.7198 96.5129 82.677 95.5006 83.4268 94.3403C84.3203 93.1546 85.0582 91.8592 85.6223 90.4859C85.6223 90.4012 85.7705 90.4859 85.7423 90.5424C85.4952 91.326 85.3117 92.1166 85.0364 92.8861C84.732 93.609 84.3684 94.3055 83.9492 94.9685C83.2696 96.3027 82.2644 97.4439 81.0267 98.2864C79.6642 99.0629 77.9135 98.9923 76.3958 98.9288C75.5155 98.8775 74.6402 98.7619 73.7768 98.5829C73.1556 98.4488 72.1108 98.3499 71.7155 97.8064C71.6969 97.7856 71.6831 97.761 71.6751 97.7342C71.667 97.7075 71.665 97.6794 71.669 97.6518C71.673 97.6242 71.6831 97.5978 71.6984 97.5745C71.7138 97.5512 71.7341 97.5316 71.7578 97.517Z" fill="#263238"/>
<path d="M48.0315 211.969C53.4247 203.799 58.7192 195.563 63.9148 187.262C69.1105 178.96 74.2355 170.595 79.29 162.166C80.4971 160.154 81.8878 158.149 82.6643 155.918C83.5114 153.497 83.0314 151.146 82.269 148.774C80.8293 144.447 79.1466 140.205 77.2287 136.068C75.3368 131.896 73.2966 127.794 71.2918 123.679C69.287 119.563 67.1903 115.497 65.6444 111.205C64.2325 107.103 63.6607 102.854 64.762 98.604C65.8632 94.3543 68.2351 90.5988 70.7129 87.0621C71.3624 86.1303 72.033 85.2055 72.6895 84.2384C72.7389 84.1678 72.8448 84.2384 72.7954 84.3231C70.0635 88.008 67.4021 91.9118 65.7997 96.2392C64.9807 98.3722 64.5226 100.627 64.4443 102.91C64.4309 105.228 64.7909 107.533 65.5102 109.736C66.8374 114.029 68.934 118.088 70.8894 122.126C72.8448 126.163 74.9344 130.343 76.8616 134.5C78.8497 138.685 80.617 142.971 82.156 147.341C82.8125 149.283 83.5679 151.316 83.5114 153.398C83.462 155.678 82.3749 157.733 81.2454 159.653C76.3039 168.018 71.2424 176.284 66.0891 184.501C60.9358 192.718 55.6343 200.935 50.2692 209.068L48.2362 212.138C48.1303 212.266 47.9467 212.117 48.0315 211.969Z" fill="#263238"/>
<path d="M107.223 57.7025C110.28 64.4088 125.719 73.6494 132.947 74.6448C138.143 75.3507 153.942 75.6048 159.356 74.7789C165.71 73.8047 160.853 56.6859 157.104 57.1307C146.798 58.3308 138.044 59.672 135.291 59.672C131.931 59.672 113.753 53.8411 111.565 53.0151C106.2 51.0173 105.494 53.8975 107.223 57.7025Z" fill="#EB9481"/>
<path d="M107.322 59.4885C111.191 65.2136 124.046 74.5742 124.046 74.5742L125.832 70.621L131.74 57.5472C131.74 57.5472 119.93 53.8411 112.158 52.1469C111.243 51.9387 110.313 51.8065 109.376 51.7515C104.414 51.4833 103.983 54.547 107.322 59.4885Z" fill="#E7E7E7"/>
<path d="M107.322 59.4885C111.191 65.2136 124.046 74.5742 124.046 74.5742L125.832 70.621C121.038 65.0512 113.633 56.6154 109.376 51.7657C104.414 51.4833 103.983 54.547 107.322 59.4885Z" fill="#263238"/>
<path d="M121.731 71.92C122.712 69.5128 127.074 59.8204 128.162 57.8015C128.232 57.6603 128.345 57.6744 128.282 57.8015C126.389 62.6215 124.235 67.3347 121.829 71.92C121.801 72.0047 121.688 71.9765 121.731 71.92Z" fill="#263238"/>
<path d="M155.213 57.3072C161.482 56.4883 169.24 55.0835 175.812 57.872C176.55 58.1615 177.169 58.6912 177.57 59.3756C180.535 60.5757 180.859 62.3334 180.859 62.3334C183.281 64.2959 183.365 66.1454 183.365 66.1454C183.365 66.1454 186.839 67.5573 186.309 69.8304C185.73 72.3435 180.972 69.8304 177.513 70.0351C169.571 70.5293 158.453 73.4447 156.159 73.8118L155.213 57.3072Z" fill="#EB9481"/>
<path d="M168.83 64.7054C171.152 64.5466 173.483 64.5466 175.805 64.7054C178.334 65.0226 180.835 65.53 183.288 66.2231C183.304 66.2287 183.321 66.2278 183.336 66.2205C183.352 66.2132 183.363 66.2002 183.369 66.1843C183.375 66.1684 183.374 66.1509 183.366 66.1357C183.359 66.1204 183.346 66.1087 183.33 66.1031C178.722 64.2953 173.707 63.7874 168.83 64.6348C168.717 64.6207 168.717 64.7124 168.83 64.7054Z" fill="#263238"/>
<path d="M167.355 57.3708C171.23 57.5685 173.651 58.1897 177.548 59.3616V59.3192C173.256 57.5261 171.498 57.3567 167.333 57.2014C167.199 57.2579 167.206 57.3708 167.355 57.3708Z" fill="#263238"/>
<path d="M167.983 71.2351C166.973 71.7081 167.22 72.2375 169.147 72.6823C171.074 73.127 179.087 73.2611 178.804 76.0566C178.522 78.8521 167.22 78.4991 164.065 77.5108C160.909 76.5225 156.158 73.8117 156.158 73.8117C158.396 73.4376 163.648 72.0187 167.983 71.2351Z" fill="#EB9481"/>
<path d="M115.617 68.3903C115.567 69.5974 115.454 70.8257 115.285 72.047C115.285 71.9976 115.285 71.9552 115.334 71.9129C115.567 71.2775 115.8 70.6281 116.083 70.0139C116.083 70.0139 116.153 70.0139 116.146 70.0139C116.011 70.6869 115.807 71.3444 115.539 71.9764C115.412 72.2799 115.292 72.5764 115.158 72.8729C115.073 73.4165 114.974 73.953 114.869 74.4895C114.657 75.499 113.704 79.791 113.457 80.5181C113.414 80.6664 113.231 80.6311 113.245 80.4617C113.294 79.671 114.092 75.2025 114.254 74.186C114.57 72.2232 114.992 70.279 115.518 68.362C115.553 68.3268 115.624 68.355 115.617 68.3903Z" fill="#263238"/>
<path d="M108.275 100.489C106.39 101.456 103.962 102.96 93.0199 100.807C92.314 100.665 91.6504 100.496 90.9586 100.291C80.7014 97.2134 68.3689 85.149 67.6982 84.2949C67.6982 84.2949 83.9981 57.872 104.844 49.5632C107.421 48.5396 111.685 50.5162 114.021 52.9799C114.861 53.8623 116.69 60.3498 115.991 65.6019C115.292 70.854 110.153 99.5217 108.275 100.489Z" fill="#E7E7E7"/>
<path d="M106.807 65.3618C106.886 66.4784 106.729 67.599 106.348 68.6514C106.259 67.5345 106.415 66.4116 106.807 65.3618Z" fill="white"/>
<path d="M99.698 83.356C99.7429 83.9116 99.724 84.4706 99.6415 85.0219C99.5736 85.5774 99.4384 86.1226 99.2391 86.6456C99.1905 86.0877 99.2095 85.5259 99.2956 84.9725C99.3678 84.4201 99.5028 83.8777 99.698 83.356Z" fill="white"/>
<path d="M87.6202 69.7527C87.6997 70.8716 87.5434 71.9947 87.1613 73.0494C87.0726 71.9302 87.2292 70.8051 87.6202 69.7527Z" fill="white"/>
<path d="M111.459 82.4384C111.504 82.9964 111.485 83.5577 111.402 84.1114C111.334 84.6669 111.199 85.2121 111 85.735C110.951 85.1771 110.97 84.6154 111.056 84.062C111.128 83.5071 111.263 82.9623 111.459 82.4384Z" fill="white"/>
<path d="M95.9497 67.4232C96.5051 67.376 97.0641 67.3925 97.6157 67.4726C98.1715 67.5431 98.7166 67.6806 99.2393 67.8821C98.1227 67.9623 97.0018 67.8059 95.9497 67.4232Z" fill="white"/>
<path d="M82.2402 80.4194C83.3568 80.3406 84.4775 80.497 85.5299 80.8782C84.413 80.9677 83.29 80.8111 82.2402 80.4194Z" fill="white"/>
<path d="M98.3926 94.4885C99.5092 94.4083 100.63 94.5646 101.682 94.9473C100.565 95.0354 99.4427 94.8789 98.3926 94.4885Z" fill="white"/>
<path d="M78.0122 89.3776C79.1288 89.2989 80.2494 89.4552 81.3018 89.8365C80.185 89.9246 79.0623 89.768 78.0122 89.3776Z" fill="white"/>
<path d="M106.701 52.7116C107.817 52.6329 108.938 52.7892 109.99 53.1705C108.874 53.2492 107.753 53.0928 106.701 52.7116Z" fill="white"/>
<path d="M102.712 57.2156C102.356 57.6446 101.948 58.0286 101.498 58.3592C101.061 58.6974 100.587 58.9863 100.086 59.2204C100.441 58.7941 100.844 58.4104 101.287 58.0768C101.728 57.7373 102.206 57.4484 102.712 57.2156Z" fill="white"/>
<path d="M80.9773 70.014C80.6161 70.4393 80.2062 70.8208 79.7561 71.1506C79.3231 71.4952 78.8488 71.7845 78.3442 72.0118C78.7074 71.5883 79.117 71.2071 79.5655 70.8753C79.9995 70.5321 80.4736 70.2429 80.9773 70.014Z" fill="white"/>
<path d="M108.12 75.7885C107.759 76.2159 107.349 76.5998 106.899 76.9321C106.465 77.2752 105.991 77.5644 105.487 77.7933C105.848 77.3658 106.258 76.982 106.708 76.6497C107.144 76.3099 107.618 76.021 108.12 75.7885Z" fill="white"/>
<path d="M90.5423 86.8574C90.1812 87.2849 89.7713 87.6687 89.321 88.001C88.8863 88.3432 88.4124 88.6323 87.9092 88.8623C88.2703 88.4348 88.6802 88.051 89.1304 87.7187C89.5668 87.3789 90.0405 87.09 90.5423 86.8574Z" fill="white"/>
<path d="M114.855 60.6675C114.494 61.095 114.084 61.4788 113.634 61.8111C113.196 62.1493 112.723 62.4382 112.222 62.6723C112.583 62.2448 112.993 61.861 113.443 61.5287C113.878 61.1865 114.352 60.8974 114.855 60.6675Z" fill="white"/>
<path d="M114.488 73.4941C114.06 73.1329 113.676 72.7231 113.344 72.2728C113.001 71.8391 112.711 71.3649 112.483 70.861C112.912 71.2178 113.296 71.6256 113.627 72.0752C113.964 72.5158 114.253 72.9915 114.488 73.4941Z" fill="white"/>
<path d="M75.3085 82.3323C74.881 81.9712 74.4972 81.5613 74.1649 81.1111C73.8252 80.6747 73.5363 80.201 73.3037 79.6992C73.7312 80.0603 74.115 80.4702 74.4473 80.9205C74.7895 81.3552 75.0786 81.8292 75.3085 82.3323Z" fill="white"/>
<path d="M109.723 92.8437C109.294 92.4868 108.91 92.0791 108.579 91.6295C108.241 91.1921 107.952 90.7186 107.718 90.2177C108.145 90.5788 108.529 90.9886 108.861 91.4389C109.202 91.8721 109.491 92.3436 109.723 92.8437Z" fill="white"/>
<path d="M92.4765 62.877C92.0492 62.5184 91.6653 62.1109 91.3329 61.6628C90.9961 61.2244 90.7073 60.7511 90.4717 60.251C90.9007 60.6079 91.2847 61.0156 91.6153 61.4652C91.9521 61.9036 92.2408 62.3769 92.4765 62.877Z" fill="white"/>
<path d="M92.7802 98.8299C92.3527 98.4688 91.9689 98.0589 91.6366 97.6086C91.298 97.1715 91.0091 96.6979 90.7754 96.1968C91.2044 96.5537 91.5884 96.9614 91.919 97.411C92.2587 97.8499 92.5476 98.3259 92.7802 98.8299Z" fill="white"/>
<path d="M95.7097 77.624C95.2862 77.2608 94.905 76.8511 94.5731 76.4027C94.2285 75.9697 93.9392 75.4954 93.7119 74.9908C94.1372 75.3521 94.5187 75.762 94.8485 76.2121C95.1916 76.6461 95.4808 77.1202 95.7097 77.624Z" fill="white"/>
<path d="M110.202 60.018C107.541 59.5239 105.042 54.0247 104.724 50.3256C104.724 50.0715 105.967 48.0596 107.385 45.5395C108.247 44.0076 109.157 42.2781 109.884 40.6403C110.033 40.3085 110.901 41.4309 110.901 41.4309L112.793 42.8428L119.04 47.6361C117.553 49.4213 116.289 51.3818 115.278 53.4741C115.178 53.7008 115.102 53.9374 115.052 54.18C115.049 54.22 115.049 54.2601 115.052 54.3C114.664 55.6978 112.765 60.491 110.202 60.018Z" fill="#EB9481"/>
<path d="M115.052 54.2153C115.049 54.2552 115.049 54.2953 115.052 54.3353C114.681 54.2265 114.32 54.0872 113.972 53.9188C107.132 50.7139 110.146 41.5509 110.146 41.5509L112.828 42.8781L119.076 47.6713C117.588 49.4565 116.325 51.4171 115.313 53.5093C115.201 53.7347 115.114 53.9713 115.052 54.2153Z" fill="#263238"/>
<path d="M126.22 28.1311C126.22 28.1311 129.347 30.1148 129.361 33.6444C129.375 37.174 127.949 40.626 127.653 40.7531C127.356 40.8802 126.22 28.1311 126.22 28.1311Z" fill="#263238"/>
<path d="M110.704 29.9668C108.826 33.6729 108.925 45.356 111.268 48.3632C114.671 52.7259 121.222 54.2295 125.182 49.9163C129.015 45.7372 128.62 30.5174 125.888 27.6795C121.914 23.4863 113.485 24.4817 110.704 29.9668Z" fill="#EB9481"/>
<path d="M120.671 39.3202C120.671 39.3202 120.608 39.3625 120.615 39.3908C120.657 40.1885 120.572 41.1062 119.859 41.3886C119.859 41.3886 119.859 41.438 119.859 41.4309C120.742 41.2897 120.841 40.0685 120.671 39.3202Z" fill="#263238"/>
<path d="M119.944 38.5083C118.659 38.4377 118.617 41.0073 119.81 41.0708C121.003 41.1343 121.017 38.5647 119.944 38.5083Z" fill="#263238"/>
<path d="M125.027 39.2919C125.027 39.2919 125.091 39.2919 125.091 39.3625C125.049 40.1602 125.14 41.0779 125.86 41.3532C125.86 41.3532 125.86 41.4026 125.86 41.3955C124.971 41.2614 124.865 40.0402 125.027 39.2919Z" fill="#263238"/>
<path d="M125.754 38.473C127.032 38.3954 127.095 40.965 125.909 41.0356C124.723 41.1061 124.681 38.5366 125.754 38.473Z" fill="#263238"/>
<path d="M119.139 36.5529C119.477 36.4569 119.809 36.3438 120.135 36.2141C120.505 36.147 120.843 35.9582 121.095 35.6776C121.156 35.5748 121.181 35.4548 121.167 35.3361C121.153 35.2175 121.1 35.1067 121.017 35.021C120.826 34.8758 120.6 34.7842 120.361 34.7557C120.123 34.7271 119.882 34.7627 119.662 34.8587C119.185 34.9862 118.773 35.2854 118.504 35.6987C118.45 35.7971 118.426 35.9087 118.434 36.0205C118.441 36.1323 118.481 36.2394 118.548 36.3293C118.615 36.4192 118.706 36.4881 118.811 36.5277C118.916 36.5673 119.03 36.5761 119.139 36.5529Z" fill="#263238"/>
<path d="M126.63 37.6894C126.286 37.6127 125.947 37.5184 125.613 37.4071C125.241 37.3578 124.896 37.1865 124.632 36.92C124.564 36.8218 124.531 36.7035 124.539 36.5843C124.546 36.4652 124.594 36.3521 124.674 36.2635C124.856 36.1078 125.077 36.004 125.313 35.963C125.549 35.9221 125.792 35.9454 126.015 36.0305C126.498 36.1306 126.926 36.4075 127.216 36.807C127.276 36.9016 127.308 37.0117 127.307 37.1239C127.306 37.2361 127.272 37.3457 127.21 37.4392C127.148 37.5327 127.06 37.6061 126.957 37.6506C126.854 37.695 126.74 37.7085 126.63 37.6894Z" fill="#263238"/>
<path d="M118.864 46.8667C119.055 47.0573 119.238 47.3114 119.528 47.3396C119.825 47.3395 120.118 47.2769 120.389 47.1561C120.389 47.1561 120.439 47.1561 120.389 47.1984C120.273 47.3536 120.118 47.4743 119.939 47.5477C119.76 47.6211 119.564 47.6443 119.373 47.6149C119.211 47.571 119.067 47.4806 118.956 47.3552C118.846 47.2297 118.775 47.0745 118.751 46.909C118.746 46.894 118.746 46.8774 118.753 46.8629C118.76 46.8483 118.772 46.837 118.787 46.8314C118.802 46.8257 118.818 46.8263 118.833 46.8329C118.847 46.8395 118.859 46.8517 118.864 46.8667Z" fill="#263238"/>
<path d="M123.481 43.4638C123.481 43.4638 123.516 44.6498 123.481 45.2075C122.396 45.0924 121.301 45.1304 120.227 45.3204C119.973 45.3769 120.001 45.1722 120.29 45.038C121.155 44.6426 122.119 44.5148 123.058 44.671C123.114 44.5227 122.966 42.8356 123.058 42.8426C123.485 42.9264 123.898 43.069 124.286 43.2662C124.286 40.7813 123.891 38.3247 123.926 35.8398C123.926 35.7551 124.06 35.741 124.074 35.8398C124.576 38.4685 124.812 41.1409 124.78 43.8168C124.787 44.1203 123.693 43.5768 123.481 43.4638Z" fill="#263238"/>
<path d="M121.893 44.7841C121.611 45.5243 121.089 46.1483 120.41 46.556C119.344 46.9866 118.998 46.0194 120.071 45.1441C120.634 44.8597 121.264 44.7351 121.893 44.7841Z" fill="#263238"/>
<path d="M120.784 46.3371C120.672 46.4289 120.545 46.5027 120.41 46.556C119.429 46.9513 119.041 46.1677 119.831 45.3771C120.368 45.4194 120.982 45.6171 120.784 46.3371Z" fill="#FF99BA"/>
<path d="M110.167 39.9556C111.459 40.3509 112.942 36.4683 113.365 35.0141C113.732 33.701 114.156 29.529 114.219 29.2396C114.283 28.9501 119.867 32.9316 123.1 31.9856C126.333 31.0397 128.529 28.1101 128.578 26.7476C128.627 25.3852 124.582 21.9261 121.088 21.7497C117.594 21.5732 112.857 25.9852 112.857 25.9852C113.429 25.3359 113.948 24.6419 114.41 23.9098C114.354 23.7545 112.095 24.6581 111.678 26.2676C111.678 26.2676 112.13 24.2416 111.96 24.2063C111.791 24.171 110.033 25.9005 110.429 27.2135C110.429 27.2135 108.395 28.9713 108.212 30.8985C108.028 32.8257 108.65 39.4896 110.167 39.9556Z" fill="#263238"/>
<path d="M125.415 31.2515C124.454 31.7728 123.418 32.1442 122.344 32.3527C121.139 32.4602 119.926 32.2661 118.815 31.788C117.695 31.3554 116.655 30.74 115.737 29.9667C114.925 29.3031 114.198 28.4913 113.33 27.8983C113.111 27.743 112.864 28.0607 112.998 28.2583C114.447 30.3045 116.516 31.8294 118.9 32.6069C120.007 32.9678 121.188 33.0352 122.329 32.8026C123.47 32.57 124.531 32.0452 125.408 31.2797C125.408 31.2797 125.429 31.2515 125.415 31.2515Z" fill="#263238"/>
<path d="M111.516 39.6097C111.516 39.6097 109.511 35.5435 107.704 36.2C105.897 36.8565 106.998 42.4828 108.855 43.5134C109.082 43.6606 109.337 43.7603 109.604 43.8066C109.871 43.8528 110.144 43.8448 110.408 43.7828C110.672 43.7208 110.92 43.6063 111.138 43.4459C111.357 43.2856 111.54 43.0829 111.679 42.8499L111.516 39.6097Z" fill="#EB9481"/>
<path d="M108.063 37.8025C108.063 37.8025 108.021 37.8025 108.063 37.859C109.348 38.6214 109.87 39.9768 110.181 41.3886C110.123 41.2391 110.032 41.1042 109.917 40.993C109.801 40.8819 109.662 40.7972 109.511 40.7448C109.359 40.6924 109.198 40.6737 109.038 40.6897C108.878 40.7058 108.724 40.7564 108.586 40.838C108.543 40.838 108.586 40.9156 108.586 40.9156C108.838 40.8764 109.097 40.9164 109.326 41.0302C109.554 41.144 109.742 41.3259 109.863 41.551C110.065 41.9279 110.226 42.3255 110.343 42.7369C110.386 42.8711 110.619 42.8358 110.598 42.6875C110.901 40.9298 109.913 38.2684 108.063 37.8025Z" fill="#263238"/>
<path d="M98.2792 57.7663C96.8673 65.7644 105.536 92.7097 111.092 97.743C119.358 105.226 134.642 110.146 140.183 111.749C142.597 112.455 149.275 95.4628 146.833 94.3404C141.602 91.9614 125.352 86.8787 123.806 85.6081C122.26 84.3374 112.941 70.8753 108.79 63.1242C103.235 52.6906 98.978 53.7213 98.2792 57.7663Z" fill="#EB9481"/>
<path d="M142.718 92.8438C142.718 92.8438 149.932 94.6862 154.584 96.1051C157.182 96.9028 161.517 98.6606 163.161 100.115C165.618 102.296 174.499 112.97 171.957 115.179C169.656 117.184 163.19 107.04 163.19 107.04C163.19 107.04 170.616 116.697 167.425 118.596C164.234 120.495 158.396 108.064 158.396 108.064C158.396 108.064 165.802 118.158 162.18 119.591C159.441 120.671 153.568 109.708 153.568 109.708C153.568 109.708 159.879 118.427 157.098 119.662C154.034 121.031 147.984 111.247 147.984 111.247C140.416 113.203 135.983 111.036 133.068 109.13C132.383 108.664 142.718 92.8438 142.718 92.8438Z" fill="#EB9481"/>
<path d="M160.832 103.531C161.75 104.633 162.681 105.748 163.493 106.927C164.305 108.106 165.074 109.32 165.773 110.57C166.72 112.186 167.478 113.905 168.032 115.695C166.818 112.589 163.973 108.318 163.161 107.139C162.35 105.96 161.594 104.739 160.789 103.56C160.768 103.531 160.811 103.503 160.832 103.531Z" fill="#263238"/>
<path d="M156.519 106.391C158.086 107.633 161.369 112.25 162.632 115.349C162.689 115.476 162.632 115.469 162.54 115.349C161.552 113.817 157.542 107.887 156.484 106.412C156.462 106.391 156.498 106.369 156.519 106.391Z" fill="#263238"/>
<path d="M152.375 108.198C154.322 110.24 155.86 112.636 156.907 115.257C156.956 115.384 156.857 115.363 156.78 115.257C155.318 112.878 154.189 111.021 152.297 108.261C152.269 108.198 152.332 108.134 152.375 108.198Z" fill="#263238"/>
<path d="M106.158 58.3521C99.7124 49.2386 95.858 52.6129 97.1499 62.51C98.3641 71.7647 101.604 82.7913 101.604 82.7913L117.841 74.9132C117.841 74.9132 110.259 64.1901 106.158 58.3521Z" fill="#E7E7E7"/>
<path d="M110.075 61.9381C110.289 62.4529 110.443 62.9906 110.534 63.5406C110.633 64.0924 110.669 64.6537 110.64 65.2136C110.428 64.6962 110.277 64.1561 110.188 63.6041C110.083 63.0554 110.045 62.496 110.075 61.9381Z" fill="white"/>
<path d="M100.454 67.4797C101.49 67.0582 102.605 66.8656 103.722 66.9149C103.207 67.1266 102.669 67.2782 102.12 67.3667C101.571 67.4715 101.011 67.5094 100.454 67.4797Z" fill="white"/>
<path d="M100.87 53.3046C100.433 54.3362 99.7807 55.2628 98.957 56.0224C99.3942 54.9907 100.046 54.0642 100.87 53.3046Z" fill="white"/>
<path d="M114.629 71.7365C114.415 72.2528 114.142 72.743 113.817 73.1977C113.5 73.6582 113.131 74.08 112.716 74.4543C113.153 73.4226 113.805 72.496 114.629 71.7365Z" fill="white"/>
<path d="M103.334 77.264C102.817 77.0522 102.326 76.7797 101.873 76.4522C101.412 76.1358 100.99 75.7662 100.616 75.351C101.648 75.7881 102.574 76.4403 103.334 77.264Z" fill="white"/>
<path d="M108.275 61.0981C109.143 62.2912 110.04 63.4559 110.929 64.6278C110.703 64.0348 110.506 63.4348 110.336 62.8277H110.379C110.555 63.2936 110.76 63.7524 110.929 64.2395L111.183 64.9455C111.205 64.9936 111.224 65.0432 111.24 65.0937C111.946 66.0043 112.652 66.915 113.301 67.8468C114.099 68.9622 114.868 70.0917 115.645 71.2212C116.421 72.3506 117.205 73.7554 118.045 74.892C118.123 74.9908 116.633 75.5979 116.471 75.6756C116.308 75.7532 116.224 75.6191 116.379 75.5697C116.534 75.5203 117.72 74.7932 117.734 74.779C116.958 73.6354 116.061 72.5836 115.25 71.4753C114.438 70.367 113.633 69.2587 112.849 68.1363C111.261 65.849 109.807 63.4771 108.226 61.1829L108.275 61.0981Z" fill="#263238"/>
<path d="M97.5311 69.0609C97.7782 69.541 98.0465 70.0139 98.2371 70.5081L98.5053 71.1222C98.1312 69.3645 97.7994 67.5926 97.4111 65.8348C98.1594 68.6586 98.9148 71.5458 99.6066 74.4119C100.263 77.1509 101.061 79.9181 101.442 82.7136C101.934 82.4976 102.444 82.3252 102.967 82.1983C102.443 82.5375 101.878 82.8102 101.287 83.0101C100.436 80.1674 99.7289 77.2835 99.1689 74.3695C98.9924 73.5789 98.8301 72.7882 98.6606 71.9976C98.4771 71.5176 98.2582 71.0587 98.0394 70.5857C97.8206 70.1128 97.6229 69.5833 97.4253 69.0821C97.4676 69.0539 97.517 69.0256 97.5311 69.0609Z" fill="#263238"/>
<path d="M101.844 80.0663C104.103 78.7957 113.542 73.9107 115.652 73.0071C115.801 72.9435 115.878 73.0071 115.73 73.1059C111.25 75.7092 106.631 78.0658 101.894 80.1652C101.837 80.1793 101.781 80.1016 101.844 80.0663Z" fill="#263238"/>
<path d="M360.517 265.655H145.435L176.531 89.2788H391.613L360.517 265.655Z" fill="#E7E7E7"/>
<path d="M250.146 71.0093H179.758L176.532 89.2787H251.861L250.146 71.0093Z" fill="#E7E7E7"/>
<g opacity="0.1">
<path d="M360.517 265.655H145.435L176.531 89.2787H391.613L360.517 265.655Z" fill="black"/>
<path d="M250.146 71.0093H179.758L176.532 89.2787H251.861L250.146 71.0093Z" fill="black"/>
</g>
<path d="M172.162 78.464C171.691 76.4438 171.691 74.3425 172.162 72.3224C172.633 74.3425 172.633 76.4438 172.162 78.464Z" fill="#263238"/>
<path d="M165.907 80.2711C165.188 79.5258 164.569 78.6905 164.064 77.7862C163.535 76.9008 163.12 75.952 162.829 74.9625C163.55 75.7035 164.17 76.5366 164.672 77.4403C165.199 78.3289 165.614 79.2798 165.907 80.2711Z" fill="#263238"/>
<path d="M161.389 84.9656C159.405 84.3624 157.587 83.3119 156.073 81.8948C157.063 82.1824 158.012 82.5952 158.897 83.1231C159.801 83.6307 160.638 84.2497 161.389 84.9656Z" fill="#263238"/>
<path d="M159.808 91.2906C157.788 91.7613 155.687 91.7613 153.667 91.2906C155.687 90.82 157.788 90.82 159.808 91.2906Z" fill="#263238"/>
<path d="M161.643 97.5452C160.895 98.2602 160.06 98.8791 159.158 99.3876C158.273 99.9155 157.324 100.328 156.334 100.616C157.08 99.8972 157.915 99.2779 158.819 98.7735C159.703 98.2431 160.652 97.8302 161.643 97.5452Z" fill="#263238"/>
<path d="M166.331 102.056C165.73 104.043 164.679 105.864 163.26 107.379C163.547 106.388 163.962 105.439 164.495 104.555C164.998 103.647 165.615 102.808 166.331 102.056Z" fill="#263238"/>
<path d="M172.656 103.616C172.902 104.621 173.02 105.653 173.009 106.687C173.024 107.721 172.905 108.754 172.656 109.758C172.403 108.754 172.284 107.722 172.303 106.687C172.291 105.653 172.41 104.621 172.656 103.616Z" fill="#263238"/>
<path d="M178.911 101.844C179.629 102.59 180.249 103.425 180.753 104.329C181.284 105.213 181.696 106.162 181.981 107.153C180.562 105.638 179.512 103.817 178.911 101.83V101.844Z" fill="#263238"/>
<path d="M183.421 97.1146C184.412 97.3996 185.361 97.8125 186.245 98.3429C187.149 98.8473 187.985 99.4666 188.73 100.185C187.739 99.9004 186.79 99.4875 185.906 98.9571C185.002 98.4527 184.167 97.8334 183.421 97.1146Z" fill="#263238"/>
<path d="M184.981 90.7893C187.003 90.3188 189.107 90.3188 191.13 90.7893C189.107 91.2598 187.003 91.2598 184.981 90.7893Z" fill="#263238"/>
<path d="M183.174 84.5349C183.922 83.8204 184.757 83.2037 185.659 82.6995C186.541 82.164 187.491 81.7485 188.483 81.4641C186.968 82.8831 185.147 83.9339 183.16 84.5349H183.174Z" fill="#263238"/>
<path d="M178.48 80.0241C178.771 79.0356 179.183 78.087 179.708 77.2004C180.213 76.2961 180.832 75.4609 181.551 74.7156C181.266 75.7062 180.853 76.6554 180.322 77.5393C179.818 78.4436 179.199 79.2788 178.48 80.0241Z" fill="#263238"/>
<path d="M360.2 265.655H144.658L114.049 95.6815H329.598L360.2 265.655Z" fill="#E7E7E7"/>
<path d="M188.744 199.587C193.692 199.587 197.703 195.576 197.703 190.629C197.703 185.681 193.692 181.671 188.744 181.671C183.797 181.671 179.786 185.681 179.786 190.629C179.786 195.576 183.797 199.587 188.744 199.587Z" fill="#263238"/>
<path d="M259.563 199.587C264.51 199.587 268.521 195.576 268.521 190.629C268.521 185.681 264.51 181.671 259.563 181.671C254.615 181.671 250.604 185.681 250.604 190.629C250.604 195.576 254.615 199.587 259.563 199.587Z" fill="#263238"/>
<path d="M237.022 201.02L236.528 200.081C236.486 199.997 231.855 191.441 222.544 191.441C214.072 191.441 211.955 199.495 211.898 199.841L211.644 200.865L209.59 200.371L209.837 199.34C209.837 199.241 212.364 189.323 222.544 189.323C233.133 189.323 238.194 198.698 238.406 199.1L238.9 200.032L237.022 201.02Z" fill="#263238"/>
<path d="M345.968 189.944L345.82 189.238C346.279 189.139 346.73 189.033 347.182 188.913L347.359 189.619C346.879 189.739 346.434 189.845 345.968 189.944Z" fill="#263238"/>
<path d="M350.091 188.808L349.865 188.144C350.747 187.841 351.629 187.509 352.484 187.149L352.759 187.798C351.891 188.165 350.994 188.504 350.091 188.808ZM355.35 186.556L355.032 185.935C355.858 185.504 356.684 185.038 357.468 184.523L357.835 185.123C357.03 185.68 356.19 186.153 355.35 186.556ZM360.207 183.57L359.79 182.998C360.552 182.44 361.287 181.854 361.978 181.254L362.444 181.784C361.703 182.426 360.997 183.026 360.199 183.598L360.207 183.57ZM364.513 179.814L363.997 179.327C364.647 178.621 365.261 177.915 365.826 177.209L366.383 177.64C365.797 178.416 365.169 179.143 364.527 179.842L364.513 179.814ZM368.007 175.296L367.407 174.922C367.895 174.133 368.329 173.313 368.706 172.465L369.355 172.755C368.956 173.638 368.504 174.496 368 175.324L368.007 175.296ZM370.344 170.058L369.638 169.861C369.896 168.975 370.087 168.071 370.21 167.157L370.915 167.249C370.799 168.208 370.605 169.157 370.337 170.086L370.344 170.058ZM371.127 164.411H370.421V164.206C370.421 163.352 370.372 162.484 370.287 161.629L370.993 161.559C371.086 162.438 371.133 163.322 371.134 164.206L371.127 164.411ZM369.857 158.883C369.667 157.973 369.431 157.073 369.151 156.187L369.857 155.975C370.146 156.893 370.393 157.824 370.562 158.735L369.857 158.883ZM368.184 153.568C367.845 152.735 367.478 151.881 367.026 151.019L367.661 150.702C368.092 151.577 368.487 152.452 368.833 153.299L368.184 153.568ZM365.713 148.534C365.275 147.765 364.795 146.953 364.301 146.12L364.901 145.746C365.416 146.586 365.903 147.405 366.313 148.189L365.713 148.534ZM362.762 143.741C362.247 142.965 361.724 142.181 361.188 141.397L361.774 141.002C362.31 141.786 362.833 142.569 363.348 143.36L362.762 143.741ZM359.585 139.068C359.056 138.291 358.519 137.508 357.997 136.731L358.583 136.336C359.105 137.113 359.635 137.896 360.164 138.666L359.585 139.068ZM356.43 134.366C355.915 133.576 355.413 132.771 354.919 131.966L355.519 131.599C356.013 132.404 356.515 133.195 357.023 133.985L356.43 134.366ZM353.486 129.517C353.006 128.663 352.561 127.815 352.159 127.004L352.794 126.686C353.19 127.491 353.634 128.324 354.1 129.171L353.486 129.517ZM350.98 124.434C350.606 123.552 350.274 122.655 349.964 121.78L350.669 121.554C350.966 122.408 351.298 123.29 351.665 124.159L350.98 124.434ZM349.145 119.048C348.912 118.13 348.707 117.191 348.552 116.224L349.258 116.111C349.413 117.015 349.603 117.932 349.836 118.836L349.145 119.048ZM348.199 113.4C348.128 112.532 348.093 111.657 348.093 110.781V110.548H348.799V110.774C348.799 111.628 348.799 112.49 348.905 113.337L348.199 113.4ZM348.905 107.753L348.199 107.682C348.199 107.492 348.234 107.294 348.255 107.089C348.34 106.334 348.446 105.579 348.573 104.859L349.279 104.979C349.159 105.685 349.053 106.426 348.968 107.167C348.996 107.386 348.996 107.576 348.94 107.774L348.905 107.753ZM349.886 102.261L349.18 102.07C349.441 101.138 349.745 100.228 350.083 99.3595L350.74 99.6136C350.419 100.488 350.146 101.378 349.921 102.282L349.886 102.261ZM385.062 98.1453C384.667 98.1453 384.258 98.0888 383.855 98.0323C383.305 97.9547 382.754 97.8629 382.21 97.757L382.352 97.0511C382.874 97.1499 383.417 97.2417 383.954 97.3193C384.335 97.3687 384.723 97.404 385.098 97.4252L385.062 98.1453ZM387.964 97.9264L387.815 97.2205C388.701 97.0376 389.551 96.7083 390.328 96.2463L390.696 96.8464C389.864 97.3609 388.953 97.7331 387.999 97.9476L387.964 97.9264ZM351.919 97.0864L351.291 96.7546C351.74 95.9127 352.237 95.0972 352.78 94.3121L353.359 94.7144C352.843 95.4832 352.374 96.2824 351.954 97.1075L351.919 97.0864ZM379.45 97.044C378.539 96.7549 377.643 96.418 376.768 96.0345L377.057 95.3851C377.906 95.7622 378.775 96.0898 379.662 96.3663L379.45 97.044ZM392.863 94.8415L392.277 94.4462C392.78 93.717 393.077 92.8661 393.138 91.9825L393.844 92.0319C393.784 93.0446 393.452 94.0225 392.884 94.8627L392.863 94.8415ZM374.226 94.7356C373.4 94.2554 372.601 93.7299 371.833 93.1614L372.25 92.5967C372.997 93.148 373.775 93.657 374.579 94.1215L374.226 94.7356ZM355.096 92.5331L354.573 92.0602C355.212 91.3493 355.894 90.6774 356.613 90.0483L357.079 90.5777C356.387 91.1973 355.731 91.8574 355.117 92.5543L355.096 92.5331ZM369.631 91.3401C368.928 90.6924 368.261 90.0067 367.633 89.2859L368.162 88.82C368.773 89.5201 369.421 90.187 370.104 90.8177L369.631 91.3401ZM392.609 89.4271C392.204 88.6203 391.645 87.9008 390.964 87.3093L391.43 86.7798C392.18 87.4286 392.796 88.2175 393.244 89.1023L392.609 89.4271ZM359.275 88.8694L358.872 88.2905C359.662 87.7513 360.48 87.2542 361.322 86.801L361.654 87.4222C360.843 87.8704 360.056 88.3605 359.296 88.8905L359.275 88.8694ZM365.868 87.034C365.6 86.6528 365.339 86.2645 365.092 85.8621L364.174 86.2221L363.906 85.5727L364.717 85.248C364.59 85.0362 364.463 84.8244 364.343 84.6126L364.957 84.2667C365.099 84.5138 365.24 84.7609 365.388 84.9726C365.783 84.8315 366.186 84.6973 366.595 84.5703L366.8 85.2762C366.454 85.3821 366.094 85.495 365.769 85.615C365.988 85.9609 366.214 86.321 366.475 86.6245L365.868 87.034ZM388.691 85.8198C388.008 85.4794 387.3 85.1914 386.573 84.9585L386.107 84.8103L386.312 84.1043L386.792 84.2597C387.548 84.5007 388.285 84.8005 388.994 85.1562L388.691 85.8198ZM369.504 84.5561L369.355 83.8502C370.266 83.6455 371.212 83.4761 372.179 83.3419L372.285 84.0479C371.353 84.1961 370.428 84.3726 369.525 84.5773L369.504 84.5561ZM383.41 84.1749C382.528 84.0196 381.596 83.8996 380.643 83.8149L380.7 83.109C381.681 83.1937 382.634 83.3137 383.523 83.4761L383.41 84.1749ZM375.045 83.7655L374.996 83.0596C375.836 83.0102 376.676 82.9819 377.509 82.9819H377.855V83.6879H377.516C376.718 83.709 375.885 83.7302 375.066 83.7867L375.045 83.7655ZM363.115 82.0783C362.734 81.2171 362.409 80.3206 362.091 79.4099L362.797 79.1911C363.094 80.0806 363.426 80.9559 363.793 81.796L363.115 82.0783ZM361.329 76.6568C361.117 75.7462 360.941 74.8002 360.807 73.8331L361.512 73.7343C361.647 74.6661 361.816 75.5909 362.021 76.4874L361.329 76.6568ZM360.538 71.0094C360.503 70.3741 360.482 69.7246 360.482 69.0751C360.482 68.7716 360.482 68.461 360.482 68.1574H361.188C361.188 68.461 361.188 68.7575 361.188 69.061C361.188 69.6964 361.188 70.3388 361.237 70.9529L360.538 71.0094ZM361.378 65.362L360.672 65.2914C360.771 64.3595 360.905 63.4065 361.068 62.4676L361.774 62.5877C361.583 63.5265 361.449 64.4301 361.357 65.3761L361.378 65.362ZM362.345 59.8486L361.64 59.6792C361.865 58.7686 362.127 57.8509 362.416 56.9332L363.122 57.152C362.804 58.0768 362.543 58.9733 362.324 59.8628L362.345 59.8486ZM364.04 54.5048L363.383 54.2506C363.729 53.3682 364.089 52.4858 364.52 51.6316L365.155 51.9423C364.732 52.7894 364.357 53.6506 364.019 54.5471L364.04 54.5048ZM366.468 49.4715L365.854 49.1115C366.334 48.2997 366.849 47.4878 367.386 46.7113L367.965 47.1137C367.414 47.8902 366.913 48.6809 366.447 49.4856L366.468 49.4715ZM369.652 44.8759L369.101 44.4312C369.694 43.7252 370.33 42.977 370.986 42.3134L371.494 42.8005C370.831 43.4641 370.21 44.17 369.631 44.89L369.652 44.8759ZM373.492 40.8098L373.019 40.2874C373.725 39.6591 374.431 39.0379 375.186 38.4378L375.624 38.9955C374.869 39.5956 374.149 40.2097 373.471 40.8239L373.492 40.8098ZM377.876 37.3225L377.474 36.7366C378.243 36.2071 379.048 35.6847 379.867 35.1906L380.227 35.7906C379.408 36.2918 378.645 36.8072 377.855 37.3366L377.876 37.3225ZM382.669 34.407L382.337 33.7858C383.17 33.341 384.032 32.9175 384.893 32.5222L385.189 33.1646C384.293 33.5669 383.467 33.9905 382.648 34.4211L382.669 34.407ZM387.773 32.0633L387.512 31.3997C388.401 31.0538 389.298 30.6938 390.187 30.4326L390.413 31.1385C389.517 31.4068 388.627 31.7315 387.752 32.0774L387.773 32.0633Z" fill="#263238"/>
<path d="M393.216 30.2772L393.04 29.5713C393.915 29.3454 394.451 29.2466 394.451 29.2466L394.578 29.9525C394.578 29.9525 394.07 30.0584 393.216 30.2772Z" fill="#263238"/>
<path d="M405.697 25.717C403.896 20.1402 391.839 22.145 394.19 29.4372C396.541 36.7295 407.497 31.3009 405.697 25.717Z" fill="#263238"/>
<path d="M387.633 23.4863C387.725 21.0367 391.127 19.1519 395.942 20.0202C400.756 20.8885 405.281 24.1358 405.281 24.1358C405.281 24.1358 400.53 27.0159 395.666 27.5454C390.802 28.0748 387.541 25.9288 387.633 23.4863Z" fill="#EBEBEB"/>
<path d="M405.28 24.1215C402.781 24.1215 400.289 24.051 397.797 23.9733C395.305 23.8956 392.806 23.7686 390.314 23.5709C392.813 23.5709 395.312 23.6345 397.804 23.7121C400.296 23.7898 402.795 23.9168 405.28 24.1215Z" fill="#263238"/>
<path d="M392.468 21.3049C393.887 21.9836 395.225 22.8195 396.457 23.7969C395.747 23.4637 395.058 23.0865 394.395 22.6674C393.727 22.2511 393.084 21.7962 392.468 21.3049Z" fill="#263238"/>
<path d="M399.012 23.8885C397.735 24.9235 396.351 25.8181 394.882 26.557C396.166 25.5207 397.558 24.6261 399.033 23.8885H399.012Z" fill="#263238"/>
<path d="M399.739 22.5121C400.452 22.8541 401.075 23.3567 401.561 23.9804C401.204 23.8123 400.87 23.6013 400.565 23.3521C400.259 23.1045 399.982 22.8227 399.739 22.5121Z" fill="#263238"/>
<path d="M392.221 37.9932C393.724 39.9274 397.586 39.4615 400.981 35.946C404.377 32.4305 406.177 27.1431 406.177 27.1431C406.177 27.1431 400.614 27.5666 396.372 29.9668C392.129 32.3669 390.71 36.0519 392.221 37.9932Z" fill="#EBEBEB"/>
<path d="M406.177 27.1431C404.144 28.5549 402.167 30.1221 400.184 31.6398C398.2 33.1576 396.259 34.7247 394.36 36.3413C396.393 34.9295 398.37 33.3694 400.346 31.8516C402.323 30.3339 404.25 28.7667 406.177 27.1431Z" fill="#263238"/>
<path d="M397.41 36.8989C397.787 36.2132 398.124 35.5061 398.419 34.7812C398.72 34.0542 398.974 33.3092 399.182 32.5504C398.803 33.2356 398.466 33.9428 398.172 34.6682C397.875 35.3962 397.62 36.1411 397.41 36.8989Z" fill="#263238"/>
<path d="M401.236 30.9971C399.584 30.9088 397.928 30.9964 396.294 31.2583C397.117 31.3077 397.942 31.3077 398.765 31.2583C399.593 31.218 400.418 31.1308 401.236 30.9971Z" fill="#263238"/>
<path d="M402.598 31.6962C402.786 31.3476 402.933 30.978 403.035 30.595C403.14 30.2148 403.201 29.8241 403.219 29.4302C402.844 30.129 402.631 30.9037 402.598 31.6962Z" fill="#263238"/>
<path d="M405.698 25.717C405.299 25.8465 404.871 25.8547 404.467 25.7407C404.064 25.6266 403.704 25.3955 403.432 25.0764C403.16 24.7574 402.989 24.3649 402.94 23.9486C402.891 23.5322 402.967 23.1108 403.158 22.7377C403.349 22.3646 403.647 22.0565 404.013 21.8526C404.379 21.6486 404.798 21.5579 405.216 21.592C405.633 21.626 406.032 21.7833 406.36 22.0438C406.688 22.3044 406.932 22.6565 407.06 23.0556C407.231 23.5893 407.184 24.169 406.929 24.6678C406.673 25.1666 406.231 25.5439 405.698 25.717Z" fill="#455A64"/>
<path d="M406.996 29.7479C406.597 29.8769 406.17 29.8848 405.767 29.7707C405.364 29.6565 405.004 29.4255 404.732 29.1068C404.46 28.788 404.289 28.3959 404.241 27.98C404.192 27.564 404.267 27.143 404.458 26.77C404.648 26.397 404.945 26.0888 405.31 25.8845C405.676 25.6801 406.094 25.5887 406.511 25.6219C406.929 25.655 407.327 25.8112 407.656 26.0706C407.985 26.3301 408.229 26.6812 408.358 27.0795C408.444 27.3442 408.477 27.6232 408.455 27.9006C408.433 28.1779 408.357 28.4482 408.23 28.6961C408.103 28.9439 407.929 29.1643 407.718 29.3448C407.506 29.5253 407.261 29.6623 406.996 29.7479Z" fill="#455A64"/>
<path d="M175.558 27.9477C175.219 31.1901 173.987 34.2748 171.997 36.8574C170.008 39.4401 167.34 41.4192 164.291 42.5738C161.243 43.7284 157.933 44.0132 154.732 43.3963C151.531 42.7794 148.564 41.2851 146.163 39.0802L137.36 40.372L141.765 32.7621C140.758 30.286 140.328 27.6129 140.508 24.9458C140.689 22.2787 141.474 19.6878 142.806 17.3698C144.138 15.0519 145.98 13.068 148.193 11.5687C150.406 10.0694 152.932 9.09416 155.579 8.71712C158.225 8.34008 160.923 8.57113 163.466 9.39271C166.01 10.2143 168.333 11.6048 170.259 13.4586C172.185 15.3124 173.663 17.5808 174.581 20.0914C175.5 22.6019 175.833 25.2888 175.558 27.9477Z" fill="white"/>
<path d="M175.557 27.9478C175.226 31.1885 174.005 34.2744 172.028 36.8636C171.062 38.1732 169.897 39.3236 168.576 40.2733C167.283 41.2585 165.857 42.0548 164.34 42.6381C162.822 43.2359 161.228 43.6161 159.603 43.7676C158.791 43.8405 157.975 43.857 157.161 43.817C156.344 43.796 155.529 43.711 154.726 43.5629C151.481 42.966 148.467 41.4773 146.021 39.2638L146.226 39.3273L137.437 40.6756L136.795 40.7745L137.12 40.2097L141.496 32.5857V32.8893C140.464 30.3674 140.025 27.6418 140.213 24.9232C140.402 22.2046 141.213 19.5658 142.584 17.2106C143.953 14.8628 145.835 12.855 148.09 11.3373C150.341 9.83969 152.902 8.8712 155.58 8.50443C158.259 8.13766 160.986 8.38211 163.557 9.21948C166.1 10.0848 168.418 11.5078 170.341 13.3845C172.259 15.2564 173.726 17.5407 174.63 20.0641C175.534 22.5874 175.851 25.2835 175.557 27.9478ZM175.557 27.9478C175.843 25.2966 175.515 22.6154 174.599 20.1111C173.684 17.6068 172.205 15.3464 170.277 13.5044C168.349 11.6624 166.024 10.2881 163.48 9.48763C160.937 8.68715 158.243 8.48189 155.608 8.88769C152.999 9.27385 150.514 10.2544 148.344 11.7538C146.193 13.2648 144.396 15.2255 143.078 17.5C141.78 19.7795 141.015 22.3232 140.84 24.9405C140.668 27.5755 141.093 30.2153 142.082 32.6634L142.146 32.8187L142.061 32.9669L137.628 40.5627L137.317 40.0968L146.127 38.8614H146.247L146.332 38.9391C148.687 41.131 151.605 42.6244 154.761 43.2523C155.547 43.4125 156.345 43.5093 157.147 43.5417C157.948 43.5982 158.753 43.5982 159.554 43.5417C161.161 43.4122 162.743 43.0631 164.256 42.504C165.771 41.9521 167.198 41.1816 168.491 40.2168C169.807 39.2748 170.973 38.1396 171.95 36.8495C173.952 34.2728 175.201 31.1914 175.557 27.9478Z" fill="#263238"/>
<path d="M149.459 34.3222C149.445 34.0885 149.48 33.8545 149.561 33.6347C149.641 33.4149 149.766 33.2141 149.928 33.0446C150.089 32.8752 150.284 32.7407 150.5 32.6496C150.715 32.5585 150.947 32.5127 151.181 32.515C151.661 32.515 152.12 32.7054 152.459 33.0443C152.798 33.3832 152.989 33.8429 152.989 34.3222C152.989 34.8015 152.798 35.2611 152.459 35.6001C152.12 35.939 151.661 36.1294 151.181 36.1294C150.947 36.1317 150.715 36.0859 150.5 35.9948C150.284 35.9037 150.089 35.7692 149.928 35.5998C149.766 35.4303 149.641 35.2294 149.561 35.0097C149.48 34.7899 149.445 34.5559 149.459 34.3222ZM150.165 30.1502L149.755 16.1445H152.579L152.17 30.1502H150.165Z" fill="#E7E7E7"/>
<path d="M156.173 34.3222C156.159 34.0891 156.194 33.8557 156.274 33.6364C156.354 33.4171 156.478 33.2166 156.639 33.0472C156.8 32.8779 156.994 32.7433 157.209 32.6517C157.423 32.5602 157.655 32.5137 157.888 32.515C158.367 32.515 158.827 32.7054 159.166 33.0443C159.505 33.3832 159.695 33.8429 159.695 34.3222C159.695 34.8015 159.505 35.2611 159.166 35.6001C158.827 35.939 158.367 36.1294 157.888 36.1294C157.655 36.1307 157.423 36.0842 157.209 35.9927C156.994 35.9011 156.8 35.7665 156.639 35.5972C156.478 35.4278 156.354 35.2273 156.274 35.008C156.194 34.7887 156.159 34.5553 156.173 34.3222ZM156.879 30.1502L156.49 16.1445H159.314L158.905 30.1502H156.879Z" fill="#E7E7E7"/>
<path d="M162.879 34.3222C162.865 34.0885 162.9 33.8545 162.981 33.6347C163.061 33.4149 163.186 33.2141 163.348 33.0446C163.509 32.8752 163.704 32.7407 163.919 32.6496C164.135 32.5585 164.367 32.5127 164.601 32.515C165.081 32.515 165.54 32.7054 165.879 33.0443C166.218 33.3832 166.408 33.8429 166.408 34.3222C166.408 34.8015 166.218 35.2611 165.879 35.6001C165.54 35.939 165.081 36.1294 164.601 36.1294C164.367 36.1317 164.135 36.0859 163.919 35.9948C163.704 35.9037 163.509 35.7692 163.348 35.5998C163.186 35.4303 163.061 35.2294 162.981 35.0097C162.9 34.7899 162.865 34.5559 162.879 34.3222ZM163.585 30.1502L163.175 16.1445H165.999L165.597 30.1502H163.585Z" fill="#E7E7E7"/>
</svg>
