<svg width="36" height="36" viewBox="0 0 36 36" fill="none" xmlns="http://www.w3.org/2000/svg">
<rect width="36" height="36" rx="18" fill="#FFE3E3"/>
<path d="M13.0563 8.41805L14.2233 8.06705C14.8626 7.87428 15.5502 7.92068 16.1578 8.19761C16.7653 8.47454 17.2514 8.96308 17.5253 9.57205L18.4273 11.5781C18.6628 12.1019 18.7283 12.6862 18.6148 13.2492C18.5013 13.8122 18.2143 14.3254 17.7943 14.7171L16.2993 16.1101C16.2556 16.1508 16.2279 16.2057 16.2213 16.2651C16.1773 16.6621 16.4463 17.4351 17.0673 18.5101C17.5173 19.2911 17.9263 19.8401 18.2733 20.1471C18.5163 20.3621 18.6493 20.4081 18.7063 20.3921L20.7163 19.7771C21.2652 19.6092 21.8529 19.6172 22.397 19.8001C22.9411 19.9831 23.4143 20.3317 23.7503 20.7971L25.0303 22.5731C25.42 23.113 25.6005 23.776 25.5383 24.439C25.4761 25.102 25.1755 25.7199 24.6923 26.1781L23.8053 27.0181C23.3351 27.4634 22.7575 27.7793 22.1289 27.9351C21.5003 28.0909 20.8421 28.0812 20.2183 27.9071C17.4643 27.1381 14.9953 24.8141 12.7833 20.9831C10.5693 17.1471 9.79129 13.8431 10.5093 11.0701C10.6705 10.4464 10.9896 9.87476 11.4359 9.41025C11.8821 8.94575 12.4396 8.60404 13.0563 8.41805ZM13.4893 9.85505C13.1192 9.96636 12.784 10.1711 12.516 10.4496C12.248 10.7281 12.0563 11.0709 11.9593 11.4451C11.3573 13.7771 12.0463 16.7061 14.0823 20.2331C16.1163 23.7551 18.3053 25.8151 20.6223 26.4631C20.9966 26.5674 21.3915 26.5731 21.7686 26.4795C22.1458 26.386 22.4922 26.1963 22.7743 25.9291L23.6603 25.0891C23.8801 24.8808 24.0169 24.5999 24.0452 24.2985C24.0735 23.997 23.9915 23.6956 23.8143 23.4501L22.5343 21.6751C22.3815 21.4633 22.1663 21.3046 21.9188 21.2214C21.6713 21.1382 21.404 21.1346 21.1543 21.2111L19.1393 21.8281C17.9693 22.1761 16.9083 21.2351 15.7683 19.2601C14.9993 17.9301 14.6413 16.9001 14.7313 16.0991C14.7773 15.6831 14.9713 15.2991 15.2763 15.0131L16.7713 13.6201C16.9621 13.4419 17.0924 13.2086 17.1439 12.9526C17.1954 12.6967 17.1654 12.4311 17.0583 12.1931L16.1573 10.1871C16.0328 9.91024 15.8118 9.68819 15.5356 9.56233C15.2594 9.43647 14.9469 9.4154 14.6563 9.50305L13.4893 9.85505Z" fill="#AB1D3F"/>
</svg>
