<svg width="60" height="60" viewBox="0 0 60 60" fill="none" xmlns="http://www.w3.org/2000/svg">
<path d="M29.998 2.34375C29.3509 2.34375 28.8262 2.8684 28.8262 3.51562V10.4875C28.8262 11.1347 29.3509 11.6593 29.998 11.6593C30.6452 11.6593 31.1699 11.1347 31.1699 10.4875V3.51562C31.1699 2.8684 30.6452 2.34375 29.998 2.34375Z" fill="#B2465C"/>
<path d="M23.3577 12.3494L20.5539 9.54798C20.0958 9.09048 19.354 9.09084 18.8965 9.54869C18.4391 10.0065 18.4395 10.7485 18.8972 11.206L21.7012 14.0073C21.93 14.236 22.2298 14.3502 22.5295 14.3502C22.8296 14.3502 23.1296 14.2356 23.3584 14.0066C23.8158 13.5488 23.8155 12.8069 23.3577 12.3494Z" fill="#B2465C"/>
<path d="M41.1022 9.55097C40.6443 9.09335 39.9023 9.09382 39.4448 9.55156L36.4639 12.5348C36.0065 12.9927 36.0069 13.7346 36.4646 14.1921C36.6935 14.4208 36.9934 14.5351 37.293 14.5351C37.5931 14.5351 37.8931 14.4205 38.122 14.1915L41.1029 11.2082C41.5603 10.7504 41.5599 10.0085 41.1022 9.55097Z" fill="#B2465C"/>
<path d="M52.3242 33.281H51.3785C52.1503 32.2749 52.6105 31.0178 52.6105 29.6548V28.001C52.6105 24.7091 49.9324 22.031 46.6406 22.031C43.3488 22.031 40.6707 24.7091 40.6707 28.0009V29.2865L31.8546 20.4703C31.3654 19.9811 30.6458 19.8241 30.0001 20.0573C29.3546 19.8241 28.6349 19.9811 28.1455 20.4704L19.3295 29.2865V28.0009C19.3293 24.7091 16.6512 22.031 13.3594 22.031C10.0676 22.031 7.38949 24.7091 7.38949 28.0009V29.6547C7.38949 31.0178 7.84969 32.2748 8.62148 33.2809H7.67578C3.44332 33.281 0 36.7243 0 40.9568V56.4841C0 57.1313 0.524766 57.656 1.17188 57.656H6.12305C6.24023 57.656 6.3532 57.6383 6.45996 57.6063C6.56672 57.6383 6.67969 57.656 6.79688 57.656H19.9219C20.569 57.656 21.0938 57.1313 21.0938 56.4841V52.4997C21.0938 51.8525 20.569 51.3278 19.9219 51.3278C19.2748 51.3278 18.75 51.8525 18.75 52.4997V55.3122H7.96875V41.9591C7.96875 41.3118 7.44398 40.7872 6.79688 40.7872C6.14977 40.7872 5.625 41.3118 5.625 41.9591V55.3122H2.34375V40.9568C2.34375 38.0166 4.73566 35.6247 7.67578 35.6247H15.8203C16.1428 35.6247 16.4348 35.4943 16.6467 35.2836C16.6475 35.2828 16.6482 35.2823 16.6491 35.2816L28.8212 23.1093C28.7414 25.5431 27.9844 27.8872 26.6196 29.9142L18.9499 41.3046C18.8197 41.498 18.7501 41.726 18.7501 41.9591V43.2419C18.7501 43.8891 19.2749 44.4138 19.922 44.4138C20.5691 44.4138 21.0939 43.8891 21.0939 43.2419V42.3167L28.5638 31.223C29.1345 30.3754 29.613 29.4799 30.0001 28.5502C30.3872 29.4799 30.8657 30.3754 31.4365 31.223L38.9062 42.3167V56.4841C38.9062 57.1313 39.431 57.656 40.0781 57.656H53.2031C53.3203 57.656 53.4333 57.6383 53.54 57.6063C53.6468 57.6383 53.7598 57.656 53.877 57.656H58.8281C59.4752 57.656 60 57.1313 60 56.4841V40.9568C60 36.7243 56.5567 33.281 52.3242 33.281ZM16.9855 29.6547C16.9855 31.6543 15.3589 33.281 13.3594 33.281C11.3598 33.281 9.73324 31.6543 9.73324 29.6548V28.001C9.73324 26.0014 11.3599 24.3747 13.3594 24.3747C15.3588 24.3747 16.9855 26.0014 16.9855 28.0009V29.6547ZM43.0145 28.0009C43.0145 26.0014 44.6412 24.3747 46.6406 24.3747C48.6401 24.3747 50.2668 26.0014 50.2668 28.0009V29.6547C50.2668 31.6543 48.6402 33.281 46.6406 33.281C44.6411 33.281 43.0145 31.6543 43.0145 29.6548V28.0009ZM57.6562 55.3122H54.375V46.6403C54.375 45.9931 53.8502 45.4685 53.2031 45.4685C52.556 45.4685 52.0312 45.9931 52.0312 46.6403V55.3122H41.25V41.9591C41.25 41.7259 41.1804 41.4979 41.0502 41.3046L33.3805 29.9143C32.0157 27.8873 31.2587 25.5432 31.1789 23.1094L43.3511 35.2816C43.3665 35.2971 43.3811 35.3101 43.3951 35.3217C43.6029 35.5095 43.8776 35.625 44.1797 35.625H52.3242C55.2643 35.625 57.6562 38.0169 57.6562 40.957V55.3122Z" fill="#B2465C"/>
<path d="M54.0315 41.1305C53.8137 40.9125 53.5113 40.7871 53.2031 40.7871C52.8949 40.7871 52.5926 40.9125 52.3746 41.1305C52.1566 41.3484 52.0312 41.6508 52.0312 41.959C52.0312 42.2672 52.1565 42.5695 52.3746 42.7875C52.5926 43.0055 52.8949 43.1309 53.2031 43.1309C53.5113 43.1309 53.8137 43.0055 54.0315 42.7875C54.2495 42.5695 54.375 42.2672 54.375 41.959C54.375 41.6508 54.2496 41.3496 54.0315 41.1305Z" fill="#B2465C"/>
<path d="M20.7503 47.3355C20.5324 47.1176 20.2301 46.9922 19.9219 46.9922C19.6137 46.9922 19.3113 47.1176 19.0934 47.3355C18.8754 47.5535 18.75 47.8559 18.75 48.1641C18.75 48.4723 18.8753 48.7746 19.0934 48.9926C19.3114 49.2105 19.6137 49.3359 19.9219 49.3359C20.2301 49.3359 20.5324 49.2105 20.7503 48.9926C20.9682 48.7746 21.0938 48.4723 21.0938 48.1641C21.0938 47.8559 20.9684 47.5535 20.7503 47.3355Z" fill="#B2465C"/>
</svg>
